/* XPM */
static char *_ed5d24be2d24244d0f56365debf9188LnkiA0mUh1t3c5VK[] = {
/* columns rows colors chars-per-pixel */
"64 64 191 2 ",
"   c None",
".  c #010103",
"X  c #0B0100",
"o  c #000309",
"O  c #0A0A0B",
"+  c #150100",
"@  c #1E0000",
"#  c #140C0C",
"$  c #150903",
"%  c #1B150A",
"&  c #1F1606",
"*  c #000E13",
"=  c #061217",
"-  c #191A1D",
";  c #171719",
":  c #2A0801",
">  c #221600",
",  c #261B00",
"<  c #291D01",
"1  c #28170C",
"2  c #381508",
"3  c #2C1817",
"4  c #3F1D12",
"5  c #2B210B",
"6  c #2D2202",
"7  c #352600",
"8  c #3B2B01",
"9  c #35290E",
"0  c #3A2C0B",
"q  c #352803",
"w  c #3B2E11",
"e  c #3B2817",
"r  c #3E3012",
"t  c #1C1E21",
"y  c #321C24",
"u  c #0F2C32",
"i  c #2A292A",
"p  c #362A27",
"a  c #2D2F31",
"s  c #2F3134",
"d  c #36393A",
"f  c #3B3B3C",
"g  c #343638",
"h  c #441C0E",
"j  c #451E13",
"k  c #402F04",
"l  c #45340E",
"z  c #483602",
"x  c #4D2316",
"c  c #452317",
"v  c #5C2C1B",
"b  c #532718",
"n  c #433413",
"m  c #483714",
"M  c #4C3A16",
"N  c #4F3D18",
"B  c #503E17",
"V  c #513F18",
"C  c #612F1D",
"Z  c #69321F",
"A  c #64301E",
"S  c #40322E",
"D  c #4C342B",
"F  c #5B3B2E",
"G  c #503327",
"H  c #4D3C36",
"J  c #473733",
"K  c #56333E",
"L  c #6D3420",
"P  c #723622",
"I  c #574319",
"U  c #5A451A",
"Y  c #5E481B",
"T  c #604A1C",
"R  c #56433C",
"E  c #5A4538",
"W  c #6B473A",
"Q  c #744C3C",
"!  c #7A4938",
"~  c #664E23",
"^  c #5A3541",
"/  c #5F3844",
"(  c #623A46",
")  c #653B48",
"_  c #3C4143",
"`  c #434445",
"'  c #4B4C4D",
"]  c #47494B",
"[  c #5A4640",
"{  c #5A4A44",
"}  c #4E4F51",
"|  c #4E5153",
" . c #535354",
".. c #565758",
"X. c #57585A",
"o. c #5B5C5D",
"O. c #624C45",
"+. c #6D554D",
"@. c #7B5343",
"#. c #715951",
"$. c #765B53",
"%. c #6F5952",
"&. c #7B635A",
"*. c #7C6042",
"=. c #5E5F60",
"-. c #5F6063",
";. c #626263",
":. c #676769",
">. c #676869",
",. c #6A6B6C",
"<. c #6C6462",
"1. c #6E6E70",
"2. c #6F7071",
"3. c #7C7C7D",
"4. c #757577",
"5. c #824935",
"6. c #855949",
"7. c #915A46",
"8. c #85684B",
"9. c #90614F",
"0. c #82665C",
"q. c #996856",
"w. c #966553",
"e. c #A36D59",
"r. c #AB745F",
"t. c #866A60",
"y. c #8B6E63",
"u. c #8C7065",
"i. c #93766A",
"p. c #947468",
"a. c #9B7D72",
"s. c #817674",
"d. c #B37963",
"f. c #A07F72",
"g. c #9C8275",
"h. c #A38376",
"j. c #A6877A",
"k. c #AD8B7D",
"l. c #B5917E",
"z. c #F68F4B",
"x. c #C1826B",
"c. c #F79C69",
"v. c #F9A67E",
"b. c #7E7E81",
"n. c #888889",
"m. c #8F8F90",
"M. c #939394",
"N. c #9A9B9C",
"B. c #B99586",
"V. c #BD9A8C",
"C. c #B49284",
"Z. c #9F9FA1",
"A. c #ACACAD",
"S. c #A5A6A7",
"D. c #ADAFB0",
"F. c #AFB0B0",
"G. c #BABABC",
"H. c #B1B2B2",
"J. c #C39D8E",
"K. c #C09984",
"L. c #C7A08D",
"P. c #C5A091",
"I. c #CDA594",
"U. c #CDA99A",
"Y. c #D4AD9C",
"T. c #D9AE9D",
"R. c #D0A897",
"E. c #DBB19F",
"W. c #F9AA85",
"Q. c #FFB897",
"!. c #DDB3A2",
"~. c #E3B6A5",
"^. c #E4B9A6",
"/. c #ECBEAB",
"(. c #E6BBA9",
"). c #FAC3AB",
"_. c #F3C4B1",
"`. c #FCC9B5",
"'. c #FFCEBA",
"]. c #F9C6B3",
"[. c #FFD1BD",
"{. c #FFD2BD",
"}. c #C3C4C4",
"|. c #C7C7C9",
" X c #CCCCCE",
".X c #D5D6D7",
"XX c #D9DADC",
"oX c #FFD6C1",
"OX c #FFDAC4",
"+X c #FFE1CA",
"@X c #F4F6F6",
/* pixels */
"                                                                                                                                ",
"                                                                                  :. .d - a  .:.M.                              ",
"                                                                    A.o.o.o.;.G.o . > 0 w 0 < . . . o.XX                        ",
"                                                              b.' . . . . . . . 0 U U U U U U U I n X . o.                      ",
"                                                          G.f . < M I Y U U U M U I I I I I I I I I U B X . 4.                  ",
"                                                        N.. < I U I I I I I I I I I I I I I I I I I I I U m . '                 ",
"                                                      H.. m U I I U I I I I I I I I I I U I I I I I I I I U I . `               ",
"                                                      . n I I I I I I I I I I I I I I I I I I I I I I I I I I I . '             ",
"                                                    ` < U I I I I I I I I I I I I I I I I I I I I I I I I I I I I . 2.          ",
"                                                  n.. U U I I I I I I I I I I I I I I I I I I I I I I I I I I U I M .           ",
"                                                  t m I I I I I I I I I I I I I I I I I I I I I I I I I I I I I I U < '         ",
"                                                ,.. U I I I I I I I I I I I I I U I I I I I I I I I I I I I I I I I I . G.      ",
"                                                s m I I I I I I I I I I I I I I I I I I I I U I I I I I I I I I I I U 7 }       ",
"                                              S.. Y I I I I I I I U w I U I I I I I I I I I I I I U I I I I I I I I I I .       ",
"                                              ..8 I I I I I I I U 0 . . V U I I I I I I I I I I I I I I I I I I I I I U > X.    ",
"                                              . N I I U U I I I I . V.&.. B U I I I I I I I I I I I I I I I I I I I I I l f     ",
"                                              . U U U 5 m U I U 6 p `.).#.. U I I I I I U I I I I I I I I I I I I I I I U .     ",
"                                            ] , U I U . m I I I . R.).v.{.. 6 U I I I . I I I I I I I I I I I I I I U I U > >.  ",
"                                            >.7 U U I . V I I n . Q.W.c.'.T.. B I I U o 0 I I I I I I U I I I I I B 0 U U 8  .  ",
"                                            ' k B M B . U I Y . j.Q.c.z.'.{.#.. Y I Y % . U I I I I I 1 Y I I I I M . Y I M .   ",
"                                            ;.8 $ 5 B . U I I . ^.).W.`.].`./.. N I Y % . n U I I I M . w U I I I I . I I U .   ",
"                                            m.. . n N . U I 0 . {.`.z.'.`.`.{.0.. I Y . O.. I I I I m . . U I I I U . M I Y . }.",
"                                              Z.a m N . U Y . k.`.{.{.'.`.`.`.(.. I I . (.p $ Y I U l { J 0 I I I U . M U U < ` ",
"                                                = M I . I U . !.'.z 8 8.L.'.'.{.p q M . '._.. 0 U I 8 [ I.. I I U U . M U U 7 -.",
"                                                . B U . M l . {.oXM < , 7 < l.{.J.. X &.{.'.L.. n U 6 0.OX. m U I U . N I I 7 ,.",
"                                                . N U % n . f.{.R . u.0.. . 6 K.'.. . _.`.`.'.E . 9 % , ~ C.. U I I . I M Y 8 >.",
"                                                t M U 9 O . (.p u.{.{.{.{.t.. _.'.~./.'.].{.*.z . . . . 8.`.. B I M . Y . $ . o.",
"                                                | k U % . E J.+.{.{.^.R.{.{.R J.`.`.`.].`.`.L.. h.T.E.j.. ^.0.. Y 9 1 Y . o.;.  ",
"                                                ;.> Y . P.OX. _.`.E.. . a.'.^.. {.].`.`.`._.. ^.{.{.'.'./.. !.. M . m U .       ",
"                                                  . N . g.P.# {.{.#.. . . {.{.. `.`.].`.'.y.C.'._.+.y.`.'.B.i.g.. . I I .       ",
"                                                  >.. . H . y.'.'.O.. . . {.{.H Y.'.{.{.OX. '.{.R . . h.'.'.. oXJ.. I l `       ",
"                                                  ;.. . Y.^.%.{.`.I.. . u.{.{.R . . . . R J {.{.. . . p {.{.S ^._.. U < X.      ",
"                                                  u C.p B.`.. {.`.'.R.K.'.].{.. {._.~.R.h.%.'.{.. . . y.'.{.&.u.j.. n .         ",
"                                                    . +.$.OX; E.`.`.`.'.`.'.P.+.'.`.`.'./.. {.`.E.. . _.`.{.J p.O.. . S.        ",
"                                                    }._ . `.Y.. '.`.`.].'.`.. ^.`.`.`.`.{.. `.`.`.{.{.`.`.`.. OXk.. +.          ",
"                                        | . . . . . . i . 0.+Xp.. !.{.'.Y.. k.'.`.`.].].'.a.g.{.`.].`.].'.h.i.OX. R.O.          ",
"                                        o.. . o . o . . o . j.+XV.. . . . I.{.].`.'.'.{.].'.. I.{.'.'.{.I.. '.T.. p._           ",
"                                        .X. o . o o o X . . . t.{.{././.{.`.`.{.H a.P.R {.`./.. +.J.P.+.. /.'.# . X.            ",
"                                          . O . o . o . O . . . . J.{.'.`.].].`.{.p.$.^.`.].`.`.k.J J k.'.'.E _                 ",
"                                          ` . o . o . o . o o . . . . k.^.{.'.'.`.{.{.`.`.`.].`.'.{.OX{.J.. `                   ",
"                                          =.. . . O o . o . O . . o . . . . &.B.R.~.].'.'.'.'.].~.J.y.. . o.                    ",
"                                          A.. o O . . o o . . o . o o . . . . . . . . . . . . . . . ' ..                        ",
"                                            . . . . . . o . O . . o o X . o o . o . . . 3.4.3.                                  ",
"                                            ] . O . o . . o . o . o X o . O . o X o . o . A.                                    ",
"                                            o.. o o o O . . O . . O O o o . . o . . . o . X  .                      }.;.=.-     ",
"                                            A.. . . . o . o o . o o . . . . . o o O o . . . . . }.          ;.>.i . . . F .     ",
"                                              . o . . . O o o . . . O . O . . . . o . o O o . . f N.X.| . . . c @.q.d.x.q..     ",
"                                              d . o O . o . o O . . o o o o . }  X. o . . O . } . . 3 W 9.r.x.r.w.Q 3 . . `     ",
"                                              o.. . o o o . o . o o . o . . - @XX.X.. . . . p <.. . q.e.6.G . . . _ o.;.        ",
"                      >.f ' F.                M.. . X o O . . . o . o . . . . . . e 6.. . . 4.. (.p.. . * X.o.                  ",
"              XX..; . . . . . . g ;.            . . o . . . o . o X o . ^ o W r.x.d.w.W . . . h.+XH |                           ",
"          F. .. X x v L Z P L b h . . | }.4.:.* . o . o o o X o . . y ( ) 3 F F . . . d ,.1.] . . *                             ",
"         .. : C P Z Z Z Z Z Z Z L L v : . . $ ! D . o X . O o . . K ) / ) # . o.o. X          b.'                               ",
"    }.O + C P Z Z Z Z Z Z Z Z Z Z Z Z P . w.5.7.6.. . o o o . . / / / / K .                                                     ",
"    a + v b c v Z Z Z Z Z Z Z Z Z Z Z L : @.5.5.e.. o . . . . . y ) ) / . ..                                                    ",
"    =.. . . . c Z Z Z Z Z Z Z Z Z Z Z Z j D e.C q.. . . n.M.. o . K K . `                                                       ",
"    ;.. . j A L Z Z Z Z Z Z Z Z Z Z Z Z b . . . . . ]       f . . # . `                                                         ",
"  - . b L L Z Z Z Z Z Z Z Z Z Z Z Z Z P X | b.              A.. . ; 3.                                                          ",
"] . C Z P L Z Z Z Z Z Z Z Z Z Z Z Z P 2 s                     ... =.                                                            ",
"|.' . . o 1 j Z Z Z Z Z Z Z Z Z Z Z c . .X                      m.                                                              ",
"      =.. . . Z Z Z Z Z Z Z Z Z Z 2 . G.                                                                                        ",
"      =.. x P Z L L Z Z Z P Z b . a .X                                                                                          ",
"        ] . . : 2 x b x h @ . . >.                                                                                              ",
"            -.;.' = . . g ;.3.                                                                                                  "
};
