/* XPM */
static char *_d45e23dfcb34b35b778b6ad6207ad28JxHVF85uOxlxDoI8[] = {
/* columns rows colors chars-per-pixel */
"64 64 193 2 ",
"   c #5E3C0B",
".  c #653C0D",
"X  c #6A3F12",
"o  c #61400B",
"O  c #6F4612",
"+  c #694815",
"@  c #7A4E1F",
"#  c #7B4D21",
"$  c #7C5323",
"%  c #85581F",
"&  c #845A24",
"*  c #815526",
"=  c #8F5F32",
"-  c #81602B",
";  c #8C622B",
":  c #95652C",
">  c #9B672D",
",  c #856131",
"<  c #8D6C3A",
"1  c #996732",
"2  c #9B6C32",
"3  c #9A6E3C",
"4  c #946C38",
"5  c #9B783E",
"6  c #96713C",
"7  c #A27237",
"8  c #A3743C",
"9  c #A9773C",
"0  c #A47A3E",
"q  c #AA7A3E",
"w  c #956F40",
"e  c #9C7342",
"r  c #9E7B47",
"t  c #9F7E49",
"y  c #A16C42",
"u  c #A27445",
"i  c #AB7C43",
"p  c #A07F49",
"a  c #AB7C4A",
"s  c #B17E47",
"d  c #AC7E52",
"f  c #B07F54",
"g  c #B2833F",
"h  c #A58145",
"j  c #AB8443",
"k  c #AE804E",
"l  c #A78848",
"z  c #AD8B4C",
"x  c #A78547",
"c  c #B28244",
"v  c #B3844C",
"b  c #BA874E",
"n  c #B38A4E",
"m  c #BB8B4B",
"M  c #A68051",
"N  c #AD8255",
"B  c #AA8954",
"V  c #B48651",
"C  c #B68953",
"Z  c #BB8C55",
"A  c #B38659",
"S  c #B28C5C",
"D  c #BB8C5A",
"F  c #B49153",
"G  c #BD9057",
"H  c #BE935D",
"J  c #B4945B",
"K  c #B88D60",
"L  c #B48F62",
"P  c #BF9362",
"I  c #BC9B66",
"U  c #BE9168",
"Y  c #BE996C",
"T  c #C29355",
"R  c #C2945C",
"E  c #C2995E",
"W  c #CB9C5C",
"Q  c #CB9A57",
"!  c #D1A15E",
"~  c #C28F64",
"^  c #C29563",
"/  c #C69A63",
"(  c #CA9D64",
")  c #C3956A",
"_  c #C49B6B",
"`  c #CA9E6B",
"'  c #C79E71",
"]  c #CA9E73",
"[  c #C7A364",
"{  c #CCA265",
"}  c #C9A863",
"|  c #C5A56B",
" . c #CCA36C",
".. c #C9A96B",
"X. c #D4A464",
"o. c #D5A867",
"O. c #D3A56D",
"+. c #D4A96C",
"@. c #DCAC6C",
"#. c #CCA473",
"$. c #CDAC73",
"%. c #C6A778",
"&. c #CFA278",
"*. c #CEAC7C",
"=. c #C5A375",
"-. c #D2A673",
";. c #D3AB73",
":. c #DAAD74",
">. c #D3AD7B",
",. c #D9AE7B",
"<. c #D2B174",
"1. c #DDB274",
"2. c #D4B37C",
"3. c #DCB37B",
"4. c #D7B97C",
"5. c #DBBB7C",
"6. c #E0AF6C",
"7. c #E2B16F",
"8. c #E4B574",
"9. c #E0B57B",
"0. c #E3BA7E",
"q. c #D3AE82",
"w. c #D8AD82",
"e. c #CEB785",
"r. c #D5B383",
"t. c #DAB483",
"y. c #D7BA84",
"u. c #DCBB84",
"i. c #D6B68A",
"p. c #DCB58A",
"a. c #D6BC8B",
"s. c #DCBC8C",
"d. c #DDBE92",
"f. c #E2B782",
"g. c #E4BC84",
"h. c #E2BD8B",
"j. c #E8B983",
"k. c #E1BE91",
"l. c #DFC086",
"z. c #D7C08E",
"x. c #DEC28C",
"c. c #DDC394",
"v. c #DFC896",
"b. c #DEC699",
"n. c #DFC999",
"m. c #E2C285",
"M. c #E8C687",
"N. c #E5C78E",
"B. c #E3C38C",
"V. c #EBC58C",
"C. c #E5C98C",
"Z. c #E9C88C",
"A. c #E6C592",
"S. c #E3C494",
"D. c #E9C795",
"F. c #E4CA95",
"G. c #E9CB93",
"H. c #EACB95",
"J. c #ECCB96",
"K. c #EDCE97",
"L. c #EACB95",
"P. c #E3C699",
"I. c #E9C69A",
"U. c #E5CB9C",
"Y. c #EACD9C",
"T. c #F0C894",
"R. c #F1CC98",
"E. c #EAD097",
"W. c #E7D09E",
"Q. c #EED29D",
"!. c #EBD19E",
"~. c #F1D39E",
"^. c #F9D19D",
"/. c #E6CEA1",
"(. c #EACEA2",
"). c #E6D1A3",
"_. c #ECD3A4",
"`. c #EED8A6",
"'. c #EDD5A9",
"]. c #EED9AB",
"[. c #F1D5A5",
"{. c #F1D9A6",
"}. c #F1D6AA",
"|. c #F3DAAC",
" X c #F9DEAE",
".X c #EED7B1",
"XX c #EFDBB1",
"oX c #F3DCB1",
"OX c #F9DDB4",
"+X c #F5DFBA",
"@X c #F7E1AF",
"#X c #F5E0B2",
"$X c #FBE3B7",
/* pixels */
"O & ; ; 7 i c g m m 9 7 7 8 3 8 s > 7 9 > : 2 & & ; 4 4 6 e r M z l l z F z h 0 z h h 0 2 2 q j j j l g z z F z 5 g B h $     + ",
"$ v / Z T @.6.! Q ! Q T W W T R b 9 9 s 2 9 n n C H _  .#.#.$.$.$.....<.4.<...[ H R { W C n E { } } } } +.<.<.<.<.| J h M h < $ ",
"V (  .X.6.8.6.! ! 8.8.@.:.1.1.,.8.O.( T Z Z ( :.{ ;.3.u.h.y.y.y.4.4.4.l.m.l.3.4.>.;.3.0.;. .3.0.5.5.5.5.5.5.4.4.<.l.5.| I | I B ",
"G Z n G o.6.6.6.7.8.8.@.:.0.g.f.;.+./ T ( { ;.j.3.t.h.B.h.B.B.m.N.x.x.H.K.H.L.V.h.u.f.h.u.g.h.f.M.M.m.m.0.m.m.u.x.l.u.4.4.e.*.%.",
"b { W b T @.8.7.7.8.8.1.9.V.V.j.;.;.E H  .;.;.m.Y.J.H.H.H.K.Q.Q.W.!.Q.Q.{.{.[.~.~.A.B.S.S.h.B.h.M.m.u.5.m.m.B.V.E.C.l.<...<.4.2.",
"{ o.X.T Q ! ! ! @.o.1.9.0.V.T.g.j.5. .{ ;.2.,.u.J.J.G.A.F.H.U.E.W.!._._._.{._.!.[.!.[.~.k.s.S.F.C.l.y.4.u.u.x.m.l.C.x.<...2.z.4.",
"X.Q G W 6.X.Q ! o.! +.3.3.5.m.f.,.;. ...4.u.x.A.K.H.K.H.H.E.U.E.!.].@X].|.@X|.{.'._.|.|.P.c.P.!.Q.E.A.F.C.N.N.m.l.5.4.<.5.C.5...",
"X.8.8.@.o.o.X.X.7.{ o.3.>.2.h.m.u.u.y.h.B.B.N.A.G.H.!._.`.Q.E.U.`.].].@X@X$X#X|.#X{.|.|.'.)._.).E.H.H.F.F.G.A.N.5.l.l.4.$.| <.C.",
"0.8.:.8.@.o.{ X.@.1.0.0.3.2.r.y.y.m.L.B.h.m.F.H.Q.!.!.!.W.!.!.W.).`.].XX#X].#X#X#X#X].#X@X`._.).U.K.Y.F.F.F.C.x.C.l.4.4.4.m.m.m.",
"0.9.1.8.3.1.:.1.3.g.g.V.h.B.B.A.s.U.Y.Y.F.F.E.Q.!.!.W.W.`.W.`.).W.).).].].XX].XXXX#X#X].XX].].).W.[.'.!.W.F.F.x.x.x.l.l.l.l.5.4.",
"0.0.0.m.0.0.j.0.0.g.B.A.G.H.L.L.A.K.Y.K.F.F.W.!.W.W.W.!.W.`._.!.).).).XXXX].].#X@XXX#X].XX].'.)._.'.{._._.!.E.v.x.C.E.E.C.m.5.4.",
"M.Z.V.Z.V.Z.V.V.m.B.V.N.G.G.A.S.F.U.(.Y.P.P.U.U.W.W.W.W.!.`._._.].].].XXoX'.'.'.].XXXX#XXX].'._.W._.`.'.`.{.!.E.G.F.C.C.l.5.5.4.",
"C.G.E.K.J.J.T.J.J.G.L.H.K.K.H.F.Y.!.(.!.Y.Y.Y.Y.W.!.W.W._._.`._.].`.'.|.]._._._.].@X|.@X|.].`.).).`.`.`.`.`.`.Q.E.C.x.l.l.m.5.4.",
"N.F.E.H.Y.J.K.J.~.Q.H.K.K.E.H.F._.(.(._._.(._.(.W.!.W.W._.`.`.`.`.`.{.{.|.`.{.{.`._.}.`.`.`.`.`.`.].@X|.`.`.`.Q.F.x.C.x.C.x.l.4.",
"x.v.E.E.Y.L.Y.J.R.Y.H.F.F.H.E.E.(.Y.(.(._.(.Y._._._.W.!._.`.`.`.].{.@X{.@X X{.{.`.`._._._._._._.`.].`.`.`.`.`.!.E.v.C.v.C.x.l.l.",
"z.v.U.U.U.Y.R.Y.Y.Y.F.F.F.H.W._._.(.(.(.}.'._._._._.W.W.).)._.`.@X{.{.@X{.[.'.[.!.!.!.!.!.E.).!.`.`._.W.!.`._.!.E.F.F.C.x.x.x.C.",
"N.E.Q.~.Q.E.!.U.[.H.F.!.!.F.E._.W.`.[._._._._.(.'.].`.).).).`.].].XX].].#X].].`.@X{.`.!.W.v.W.@X`.!.!.W._.F.v.x.!.H.F._.~.A.H.!.",
"H.!.^.[.Q.!.K.!._.!.!.).W.U.W._.!.'.}.[.[.[.[.'.).`.`._.).`.).`.#X#XXX#X#X#X#X`.@X`.`.`.E.E.E.`.Q.E.E.E.E.E.E.!.E.F.F.E.E.F.v.F.",
"!.~.[.{.!.!.Y.Y.Q.{.'.Y.W.W._.W.!._.[.(.(._.'.'.).).`.'.'.].`.].).XX].#X].].].@X!.`.`.`.!.`.W.!.!.E.H.F.G.H.!.{.E.K.U.F.v.F.N.x.",
"K.!.~.~.!.E.Y.Y.Q._.Q.Y.U.U.W._._._._.Y.Y.Y._._.`.'.].].].'.`.).).XXXXXX].`.`.`.`.`.`.W.E.`.!.n.Q.W.E.F.F.c.H.E.W.!.E.F.F.F.E.F.",
"L.K.Y.~.!.Y.!.~.'.Y.!._.W.c.U._.}. X}.'._._.'._._.'.'.'.).`.`.].].XX#X#X].].].].`.`.`.W.W.`.!.E.`.!.!.!.F.c.c.F.F.W.W.F.F.!.Q.E.",
"F.Y.~.~.!._._.[.{.E.Y._.W.c.v._.}.}.oX}._.'.'._._.).`._.).).`.'.XXXXXX#X@X].`.`.`.`.W.W.W._.!.!._.!.Q.~.!.F.c.F.v.H.U.P.F.W.!.W.",
"F.Y.!.~.Y.Y.[.[.[.[.'._.W.v.P._._.}.'._.)._._.)._._.'.`.].'._.'.).`.].].@X].`.).@X`.W.`.`.`.E.W.!.!.!._.`.W.F.F.F.F.v.F.F.F.F.F.",
"S.F.Y.R.Y.Y.Y.[.{.|.|._.W.U.)._.(.].oX'.'.].].'.'.|.|.@X].]._._.).).].].#X@X@X`.@XW.`.`.@X`.W.W.!.E.U._.Q.!.F.v.F.v.F.F.F.v.c.c.",
"s.S.U.L.Y.[.[.[.[.[.}._.U._.'.).'._..X.X.X/./..X.X.X}.oX|.}._.).].].}.|.@X`.`.@X|.|.{.|.{.E.n.W.W.W.W.E.`.W.W.W.n.z.W.z.v.z.n.n.",
"s.h.S.F.U.(._.Y._._.[.(.U._.'._..X.X.X]..X/./..X.X.X}.oX|.}._.Y.W.`._.'.}._._.|.@X|.|.|.`.).E.W.W.W.W.W.W.W.W.!.c.a.!.z.v.v.W.W.",
"s.s.k.S.S.Y.Y.U.(.(.[._./._.].'.oX.X].'./././.).].].}.|.|.[.(.Y.n.).!.(._.!.Y.}.|.}.`.`.`._.W.W.W.W.W.W.W.W.W.W.z.z.W.c.n.W.!.!.",
"s.d.d.S.S.P.U.U.(.Y.(.}.(.'.|.}..X.X.X.X.X/..X).'.].}.|.|.}.(.U.U.!.(._.[._._.}.}.`.`._._._.).W.W.W.W.v.v.v.v.W.c.z.W.c.v.!.).`.",
"S.d.d.S.c.S.S.P.Y.U._.}._.'.oX|..XoX.X.X.X'.'.'.'.'.}.}. X}.(.Y.Y.(.Y.(.[._.(.|.}.`._._.).!.`.).n.W.W.v.v.v.v.W.v.v.W.v.v.!.).].",
"S.c.s.d.c.s.c.P.U.P.(.}._.'.|.oX+X+X.X.X.X'..X).'.).}.}. X|.[.(.U.(.Y.Y.[._.(.[.{.`._.W.W.`.).).W.W.W.n.v.n.W.W.W.v.n.W.z.W.W.{.",
"S.k.s.s.a.s.d.c.P.b./.'._.'.|.oX+X+X+X.X'..X).).).).(.}.|.|.[.(.Y.(.I.(.[._.Y.}.{.}._.).`.`.`.).W.W.W.E.W.n.W.W.W.W.W.W.z.W.W.W.",
"I.S.s.a.a.a.s.P.S.c.I._._._.}.oX.XoX.X'.'..X.X).(./.(.'.|.|.[.R.(.~.Y.Y.[.[.R.|.@X|.`.W.`.].].).W.W.W.W.n.W.W.W.W.W.W.W.z.W.v.W.",
"D.D.D.S.B.s.B.S.Y.k.I.(.(.(.}.'.#X|.].'.].'././.).).).|.#X|._._.}.(.Y.P.b.(.}. X}.^.}.(.(.(.}._.U.P.W.n.n.b.n.n.W.W.W.).W.W.n.W.",
"D.J.D.D.B.x.x.m.D.I.I.(.(.(.'.}.oX].`.].'.).).U._.U.)._.|.]._./.[.[.[.[.(.[.}.|.}.(.[.[.(.[.[.[._._.).).n.n.n.U.W.n.v.W.W.W.W.W.",
"s.S.F.Y.H.H.E.Q.D.B.k.}.(..X}.(.|.'.'.'.'.'./.U.).P.n.).'.'.)./.(.[.}.}.}.}.}.[.}.}.}.(.(.}.}.}.'.).U.n.n.n.n.v.W.W.U.W.W.E.W.n.",
"y.h.L.K.~.~.Q.Q.F.x.k.(.(.(.}._.'.}.|.|.|.'.)./._.U.n.Y.'.'._.(.}._.'.(._.[.[.}.}.(.(.}.(.}.}.}.|._.U.b.b.U.P.n._.).W.W.W.W.v.z.",
"x.A.L.Y.E.C.C.C.F.x.P.Y./._.}.'._.'.|.|.|.'._.U.'.).P.)._._.'.'.'..X'..X'.'.}.}.(.I..X.X(.}.}..X|.'./.b.b./.).Y.W.W.W.W.W.v.z.e.",
"L.Y.~.~.E.E.C.v.F.x.v.Y.Y.).'.'.)._.'.'.'.).U.n._.).U.)./.(._.].I.(.(..X}.(.(./..XI.}.OX.X'.}..X_._./.c.b.n.).Y.n.W.W.W.W.W.v.e.",
"K.~._.~.~.Q.Q.Q.v.c.P.!.P.U._.'.'._.`._././.U./.)././.)././.(.}.(.(.(.(.(.(.(.'..X}.OXOX}.(.}.}.)._./.c.z.n.)./.W._.`.!._.W.W.n.",
"Y.!.~.{.~.~.~.~.v.x.H.!.v.F._.'.|.'._.U.n.U./.).Y.Y.)./././.(..X.X.X.X(.(.(..XOXOX.XOX+XOX(.(.'.'.]._.U.b./._._.)._.`._.W._.W.W.",
"K.Y.K.K.K.K.E.K.l.x.v.F.E.W._._._._.U.P./.(./.(.b.b././.P./.}.(.OX}.I.(.'.OX'..XOX}..XOXOX'.'.'.(.}._.U.c.P.(.Y._.!.{.!.'.K.'._.",
"S.P.Y.J.L.A.N.F.x.x.x.F.v.v.P.P.U._./.I.(.(.(.(.d.d.b./././.}.(..X(.I..X(.oX}..XOXOX.XOXOX}.'.(.(.'.).I.b.b.U.Y.!._.}.)._.F.!.!.",
"s.S.L.J.N.x.x.x.x.B.x.a.x.x.x.a.P.(./.U.(._.(.(.b.i.d.(.(./.(.(.}.}.(.+X}.OX XoXOX}.}.}.}.}.'.}.(.(._.U.P.b.P.U.Y.(.{.Y.W.c.P.F.",
"h.S.S.S.m.l.u.a.x.u.4.y.a.x.x.a.P._._./.(._.Y./.P.d.d.(./.k././.}..X.XOX}. X}.oX}.}.}.}.}.}.}.].P.(.(.(.P.P.Y.(.U.(.|.K.Y.a.s.a.",
"h.s.f.a.u.y.y.r.t.2.2.2.a.A.F.k.I.(.(.(.(./.I.(./.d.b./.I.b.I.I.(.}.(.}.(.}.[.}.OX}.}.(._.(.(.(.P.P././.Y.I.U.(.Y.Y.}.Y.U.a.a.e.",
"h.p.r.t.t.t.4.2.2.2.*.2.u.S.D.S.k.(.(.(./.I./.(./.d.k./.P.I.(.(.I.(.(.}.(. X}.}.OX}.}.(.(.(.U.P.d.d.d.d.P.P.U.(.[.[.|._.!.s.s.e.",
"k.h.f.t.f.t.t.4.u.4.r.4.u.B.k.s.k./.[.(./.I.P./.I.b.b.I.I./.(.(.(.}.(.}.(.}.}.}.}.}.^.(.U.U.P.c.b.d.d.d.P.P.P.P.[.(.{.Y.'.S.d.a.",
"k.h.A.B.S.h.h.h.h.u.u.t.t.u.u.r.i.I.(././.(.I.(.I.b.P./.I.'.}.(.(.(.k.}.I.[.Y.Y.I.(./.I.U.(.Y.P.I.d.a.d.U.P.P.F.[.Y._.Y.[.P.P.s.",
"A.y.a.D.S.t.D.k.s.h.t.4.y.m.B.V.h.S.Y.(.(.Y.I.Y.S.P.U.P.(.'.'.(.(.I.P.P.P.P.P.Y.P.!._.P.c.c.U.U.(.S.d.S.Y.Y.S.S.Y.Y.[.{.~.F.S.x.",
"N.h.t.J.S.h.F.S.a.s.s.4.u.m.M.B.A.P.Y.Y.I.I.P.S.P.I.U.P.I.(.(.I.U.S.S.P.F.F.Y.[.!.!.U.F.H.E.E.U.F.k.k.F.P.F.D.U.(.K.F.U.U.F.F.Y.",
"y.u.*.N.A.Y.S.D.h.S.s.t.l.B.B.Z.L.I.I.Y.Y.I.S.d.P.P.P.P.(.'..X(.Y.S.k.P.F.P.Y.[.'._.U.v.n.Y.W.U.d.k.S.P.S.S.P.Y._.S.c.c.Y.E._.[.",
"2.h.=.m.A.R.h.I.s.B.u.y.l.m.B.G.L.I.P.I.I.I.P.S.d.b.P.P.(.}..X.X(.I.S.S.P.Y._.|.[._.!.U.c.c.P.!.x.d.S.S.c.c.P./.Y.U.U.!.'.'.'.[.",
"4.V.;.B.V.^.V.A.s.s.y.y.u.u.x.N.I.I.I.I.I.P.I.P./.P.P.b./.(./.P.[.(.I.S.P.U.Y.}._.Y.P.P.P.Y.U./.P.c.b.d.P.P.b.b.).).).].}.].`.'.",
":.f.#.f.B.~.R.D.h.h.s.u.x.u.x.H.Y.I.Y.F.S.k.P.P.I././.k./.(./.b.(.I.P.S.P.P.Y._.[.Y.c.S._.}._.Y._./.b.b.P.P./.b._.).).'._._.`.].",
"O.:.O.3.f.T.^.D.B.B.h.h.B.s.x.Y.I.Y.(.k.d.s.k.P.(.I.k./.I.(./.d.b.d.s.k.k.S.P.(.'.I.P.U.'.}.'.(.)././.b.b./.b.d.'./.n.).'.).`.].",
"3.3.3.3.0.h.^.g.h.h.u.u.h.a.s.K.S.P.I.k.s.s.k.S.(.P.k.d.d.b.p.i.i.w.i.s.k.S.P.(.I.I.[.'./.P.I.'././.n.b.b.b.b.b.(.n.b.).XX].).).",
"j.j.j.,.;.3.f.3.3.>.2.y.s.s.h.L.h.s.t.a.h.k.S.I.k.k.S.P.a.i.i.s.s.p.r.i.p.k.S.S.I.Y.~.I.I.P.I.(..X/././.d.d.I.k.P./.(.(.'..X.X/.",
"O.:.9.9.:.-.#. . . .,.t.4.>.>.t.q.p.h.p.q.>.w.h.I.k.p.s.d.s.r.*.p.t.r.2.t.s.h.s.k.P.(.(.(.P.P.k././.I.P.d.P.I.I.k./.(./././.'..X",
"` O.-.:.9.O.R { /  .;.>.;.#. .=.] ,.f.j.t.>.t.h.k.h.p.p.k.p.q.&.t.2.*.>.t.t.t.q.h.h.h.s.p.d.d.s.i.d.d.d.d.p.k.I.k.k.k./.P././.'.",
"~ ) D D O. ./  . .;.<.;... .#.#.-.-.w.j.f.f.f.h.,.t.f.f.q.,.>.>.,.;. .-.,.2.;.&.&.q.q.>.&.w.p.p.q.d.d.d.k.p.w.k.p.p.d.k.b.a.c.U.",
"s ~ D a R / W ( +.+.;.O.#.#.-.-.-.O.&.:.-.] ` -.^ -.t.,.-.=.#.-. .` ` `  .-.#.` ^ ` &.=.U q.q.q.q.q.q.q.p.w.&.&.U ] p.s.q.*.i.P.",
"= D ] ( ` ( ^ ( ( ( / E / ( ` ( / / ( ` D a V R Z D / _ ` / ^ D R T D R R ^ ^ P K ) P S f U U Y f Y Y Y ] &.) ~ ) ) ) ' *.i.q.%.",
"# u ) -. ./ / ( W v i v v b D D Z b Z T c 8 y v i a V C H ^ C k V C v v v v V C K D d u y r u w w r d d f f ~ K ~ A d A ' *.S < ",
"O # w C C C C C T i 2 2 8 u a V Z s i s i 7 : 1 1 8 a V C D V i s s v i i i i a u d d u y w $ X . X # # * = y y y d d d N M ,   "
};
