/* XPM */
static char *d460e2d0ef144f11ecfec6d320aa00234wn7gSuetwtom6OY[] = {
/* columns rows colors chars-per-pixel */
"64 64 242 2 ",
"   c None",
".  c #020101",
"X  c #170B04",
"o  c #3A0001",
"O  c #350708",
"+  c #2D1201",
"@  c #490705",
"#  c #530203",
"$  c #560A06",
"%  c #5D1D05",
"&  c #5D1907",
"*  c #590812",
"=  c #660904",
"-  c #760805",
";  c #621E05",
":  c #6B1E03",
">  c #681707",
",  c #731404",
"<  c #791707",
"1  c #681713",
"2  c #7B1A11",
"3  c #592605",
"4  c #5D3C1F",
"5  c #4B2E09",
"6  c #642304",
"7  c #6B2103",
"8  c #6C2C0C",
"9  c #662A08",
"0  c #752404",
"q  c #7C2504",
"w  c #732B05",
"e  c #7C2B04",
"r  c #78290A",
"t  c #6B3205",
"y  c #693509",
"u  c #753204",
"i  c #7B3D05",
"p  c #763508",
"a  c #6A2E15",
"s  c #792812",
"d  c #673816",
"f  c #773813",
"g  c #611921",
"h  c #5B3736",
"j  c #702F27",
"k  c #774509",
"l  c #7D5307",
"z  c #6C4214",
"x  c #6D421B",
"c  c #7C4B17",
"v  c #6C4105",
"b  c #714629",
"n  c #7A5242",
"m  c #870703",
"M  c #930203",
"N  c #9E0103",
"B  c #861704",
"V  c #951907",
"C  c #941916",
"Z  c #8F1D11",
"A  c #A60804",
"S  c #BA0702",
"D  c #A81906",
"F  c #B61B06",
"G  c #AF1116",
"H  c #832404",
"J  c #8B2203",
"K  c #892B04",
"L  c #872B09",
"P  c #972607",
"I  c #8C3404",
"U  c #8D3C0B",
"Y  c #883706",
"T  c #943304",
"R  c #943B04",
"E  c #9B3B04",
"W  c #92340D",
"Q  c #98360A",
"!  c #862815",
"~  c #992516",
"^  c #853C12",
"/  c #983A14",
"(  c #A92C04",
")  c #A62307",
"_  c #B62903",
"`  c #A3360B",
"'  c #A83906",
"]  c #B83707",
"[  c #A83A15",
"{  c #873623",
"}  c #8C362E",
"|  c #B33B24",
" . c #C90201",
".. c #DB0204",
"X. c #D60202",
"o. c #C91807",
"O. c #D81804",
"+. c #C11914",
"@. c #E60302",
"#. c #FE0401",
"$. c #F50B03",
"%. c #F90502",
"&. c #E91604",
"*. c #F71604",
"=. c #C62707",
"-. c #D82506",
";. c #C63B08",
":. c #D83805",
">. c #CD3D11",
",. c #EA270B",
"<. c #F72904",
"1. c #F73804",
"2. c #E63A10",
"3. c #E4393B",
"4. c #8C4B06",
"5. c #874808",
"6. c #974807",
"7. c #8A540B",
"8. c #865806",
"9. c #9E530A",
"0. c #99570A",
"q. c #864A18",
"w. c #984717",
"e. c #865518",
"r. c #985A14",
"t. c #A94B05",
"y. c #A84605",
"u. c #BC4B04",
"i. c #B64706",
"p. c #A5530B",
"a. c #A65D09",
"s. c #B55204",
"d. c #BD5405",
"f. c #B85A07",
"g. c #A64719",
"h. c #BA4613",
"j. c #A45B15",
"k. c #A4521C",
"l. c #B95A19",
"z. c #9A6517",
"x. c #96620A",
"c. c #B56507",
"v. c #BA6817",
"b. c #B97416",
"n. c #A86E12",
"m. c #8D4928",
"M. c #A44826",
"N. c #A7582A",
"B. c #B85525",
"V. c #996832",
"C. c #996326",
"Z. c #B26536",
"A. c #C24D04",
"S. c #C64D09",
"D. c #C94509",
"F. c #D74705",
"G. c #C65507",
"H. c #D75707",
"J. c #C54A16",
"K. c #C65713",
"L. c #D75614",
"P. c #E34B02",
"I. c #E94704",
"U. c #F34803",
"Y. c #E75A06",
"T. c #F15604",
"R. c #E7481A",
"E. c #F04B1F",
"W. c #E55815",
"Q. c #F8581C",
"!. c #C36104",
"~. c #C86507",
"^. c #D36B04",
"/. c #DA6707",
"(. c #C97808",
"). c #DD7B03",
"_. c #D47708",
"`. c #D06C17",
"'. c #E76A06",
"]. c #FC6907",
"[. c #E67907",
"{. c #FD730F",
"}. c #F37808",
"|. c #E76817",
" X c #E87319",
".X c #F5771C",
"XX c #F16114",
"oX c #C5532A",
"OX c #EC5236",
"+X c #EB4B2C",
"@X c #DD7623",
"#X c #CE712D",
"$X c #E06A30",
"%X c #EA6D2E",
"&X c #A98A26",
"*X c #DA8706",
"=X c #CA911B",
"-X c #D89915",
";X c #D18B0E",
":X c #EA8907",
">X c #F68506",
",X c #EC9607",
"<X c #F69208",
"1X c #E88514",
"2X c #F59416",
"3X c #F48E1C",
"4X c #DFA305",
"5X c #E8A908",
"6X c #FFAB0D",
"7X c #F8A70B",
"8X c #FCB807",
"9X c #E4A612",
"0X c #F5AA16",
"qX c #F9BA17",
"wX c #E7B10D",
"eX c #DF8A2A",
"rX c #E68629",
"tX c #E8952D",
"yX c #F5932B",
"uX c #E98C35",
"iX c #F28C34",
"pX c #E69737",
"aX c #F88620",
"sX c #D7AC3B",
"dX c #F6A926",
"fX c #F6B623",
"gX c #F6AA33",
"hX c #E0B53E",
"jX c #E6C704",
"kX c #FDC408",
"lX c #FAD605",
"zX c #FDCC15",
"xX c #FCE903",
"cX c #F9EC30",
"vX c #D88645",
"bX c #E78850",
"nX c #EA9C58",
"mX c #F39754",
"MX c #F88E70",
"NX c #F1AD62",
"BX c #E2C34F",
"VX c #FEB68E",
/* pixels */
"                                                                                                                                ",
"                                                                                                                                ",
"                                                                                                                                ",
"                                                                                                                                ",
"                                                      0X2X                              0X                                      ",
"                                            L.nXmXNXbXbX%XL.L.Y.'.          G.~.&.].0XwX|.~ s C.                                ",
"                                    V W.iXuXyX2X3X|. XyXuXvXoXJ.L./.@XtXP R [ c.A #.o.;.V & 1XoXw.8                             ",
"                                  rXtXrXtXgX0XfXdX X.X.XaXiXvXB.h.J.|.nXZ.^ $ c.6.N m ..<.Y. .= ^ 8 7.7.j.                      ",
"                            fXqXdXfX2X2X:X:X7XqX2XgX3X>X2XyXNXvXK.2.XXR.mXZ.# J f.& - A -.>XU.I.8X-XK.                          ",
"                        7X>X}.[.:X:X,X:X:X,X,X}.>X1X<X7X2XyX#X) ) D {.OXVXuXo 6 e 0 o D I.T.<X].<XxX8XwXjX9X                    ",
"                    <X}.[.).:X*X*X).:X).[.'.'.H.H./.<X1X[./ J B ( I.U.E.MX$X= = , - @ m =.:.I.}.kXxXjXwXcXcXqX[                 ",
"                ).'.^._._.*X(.;X).).).'.Y.G.;.u.d.^.G.b.6.4.= V A D {.OXVXrXo 3 - = m @.%.<.&.O.F.=. .m h n < =XBX              ",
"              *XH.G.!.~.(._.~._.~.u.G.G.i.u.s.t.d.S.  &XC.y K < ( P.U.E.MX$X= = # # N %.@...#.#.X.X.%.S & 0.:.@X=XsX            ",
"          ).h.] S.i.d.G.c.t.!.f.' ] i.R t.f.R t.  pX|.N.V.x w Q =.2XqX{.+X+X&.F @ o  .#.$.V V D 0 L h.v.e.y i N.m.q.N.          ",
"      !.:X] ] G.i.i.s.6.B y.a.6.d.d.T ' R e G.fX@XrX@X|.[ b q., :.dXzX<.*.&.-.F = @ A *.G p a f n.5.5.9.z.k y 3 a f r           ",
"    E [.] S.i.' K ' R I d.c.4.G.G.P P 0 : X + t 5 X l.;.L.N.= b.].{.<.#.#.@... .O.P         7.d v i 5.4.7.v t L r p p !         ",
"  u.~.u.d.R K y.s.6.T A.^.R T y.0 P : ;.>.I.;.u 5.d.D.D.D.S [ | ,.*.*.U.<.*.#.S {.            r.l k i 8.8.v 3 t t y 5 9 s       ",
"S.g.'.y.L Y s.`.t.T ] A.K K t.: ' ' D._ _ i.i.U.T.F.D.=.D._ F &.$.$.}.8X<XT.M S                 n.x.v 8.8.y 3 3 ; 6 6 9 b V.    ",
"~ ] T R t.^.G.6.q ' u.q K c.0 ' S.( H.[ ] y.F.D O.F _ _ ) F o.<.$.U.7XxXlXJ ( ].                  b.4.k 8.8.9 3 % % 7 e I 8 f   ",
"P J y.G.^.G.R @ 6._.E , _.I J < =.P H.S.h.h.D D _ :.D F o.A X.&.$.U.>XlX,Xm Y.kX                    z.z 8.8.k 6 7 : 6 6 9 t 9 j ",
"J s.).^.s.K q ' (.f.> T L @ X = V :.>.g.' / k.8 1 ] L.%X|.,.,.*.@.O.P.8X^.M '.kX                    n.x c 8.4.u 7 0 q : q e i w.",
"A.(.).c.R H ' /.v.; < q ,   . . @ , ) i.Z.w.$ * * - +.3.%XQ.2.<. .A ;.8XD.B Y.W.                      m.c l k w : 7 K q q e 0 6 ",
"_.;X(.t.J V S.v.8 = `             O 1 M.f # , 2 - $ * C G o.+.,.S M :.6XF.L hXF 2X    sX              e.e.7.k y & % e e q I Y w ",
"-X;Xp.H m _ v.e.@ P                     1 j ! 1 1 $ g * = - m o.o.N S 6X;.f.;XM.-.  zX1X                c 7.k 9 % 6 t w H P q Y ",
"=Xa.r - ) K.C.1 >                             j } j { s ! ~ ! C   D A F.5X*X(.-XM.4X).#X*XV.              a.k z y 8 w t 0 q K I ",
"j.e $ V /.K.a @                                                     i.) 8X^.'.:X9X'./.:X;X                x.q.x k 5.5.p t 0 E R ",
"! < B ] `.{ *                                                   vX6X|.-X}.Y.S.G.P.) 6.K.(.                  x d q.0.6.5.i t 0 u ",
"2 , ) F.B.g                                                     $XpX6XH.+.  9X1X                            d x e.j.9.4.6.p % 3 ",
"< B _ L.}                                                                   M.                                4 c j.9.9.9.Y p 8 ",
"- B J.oX                                                                                                      4 q.j.p.6.6.^ W P ",
"m )                                                                                                             b r.p.W Y U W W ",
"B                                                                                                                     5.W / W ~ ",
"                                                                                                                        Q Q W [ ",
"                                                                                                                          ` ` [ ",
"                                                                                                                                ",
"                                                                                                                                ",
"                                                                                                                                ",
"                                                                                                                                ",
"                                                                                                                                ",
"                                                                                                                                ",
"                                                                                                                                ",
"                                                                                                                                ",
"                                                                                                                                ",
"                                                                                                                                ",
"                                                                                                                                ",
"                                                                                                                                ",
"                                                                                                                                ",
"                                                                                                                                ",
"                                                                                                                                ",
"                                                                                                                                ",
"                                                                                                                                ",
"                                                                                                                                ",
"                                                                                                                                ",
"                                                                                                                                ",
"                                                                                                                                ",
"                                                                                                                                ",
"                                                                                                                                ",
"                                                                                                                                ",
"                                                                                                                                ",
"                                                                                                                                ",
"                                                                                                                                ",
"                                                                                                                                ",
"                                                                                                                                ",
"                                                                                                                                "
};
