/* XPM */
static char *_19e16ead8fe4377a2a743e98170dbdfovL8O3wIebww6IuZ[] = {
/* columns rows colors chars-per-pixel */
"64 64 256 2 ",
"   c None",
".  c #1C0002",
"X  c #180804",
"o  c #0A0208",
"O  c #2B0002",
"+  c #250404",
"@  c #340102",
"#  c #3B0102",
"$  c #360907",
"%  c #3C1507",
"&  c #3B1719",
"*  c #2D120F",
"=  c #192919",
"-  c #312A0A",
";  c #430102",
":  c #4B0001",
">  c #480B05",
",  c #540101",
"<  c #5C0203",
"1  c #560A07",
"2  c #491706",
"3  c #5C1503",
"4  c #531D02",
"5  c #561508",
"6  c #5A1615",
"7  c #4D1014",
"8  c #640101",
"9  c #6D0202",
"0  c #630B04",
"q  c #6B0D02",
"w  c #660B0C",
"e  c #740302",
"r  c #7A0302",
"t  c #780C06",
"y  c #6B1203",
"u  c #651A06",
"i  c #731304",
"p  c #781608",
"a  c #661914",
"s  c #711412",
"d  c #592708",
"f  c #4B3011",
"g  c #682906",
"h  c #742C03",
"j  c #792506",
"k  c #683605",
"l  c #753606",
"z  c #782316",
"x  c #693E15",
"c  c #793714",
"v  c #6D271F",
"b  c #541921",
"n  c #6A1B23",
"m  c #4C2E2B",
"M  c #682928",
"N  c #752827",
"B  c #72362E",
"V  c #7A4906",
"C  c #73500C",
"Z  c #745132",
"A  c #7C6339",
"S  c #353B43",
"D  c #7C3F45",
"F  c #734B44",
"G  c #840202",
"H  c #830B03",
"J  c #8C0A04",
"K  c #880405",
"L  c #930202",
"P  c #9D0103",
"I  c #8D1D01",
"U  c #8A1705",
"Y  c #971906",
"T  c #8C1916",
"R  c #941715",
"E  c #A30B04",
"W  c #A80403",
"Q  c #BA0701",
"!  c #A31D02",
"~  c #A71706",
"^  c #B41C03",
"/  c #B61806",
"(  c #AF1812",
")  c #892607",
"_  c #982607",
"`  c #8B3D03",
"'  c #873506",
"]  c #933805",
"[  c #882515",
"{  c #982614",
"}  c #8F3E18",
"|  c #A42203",
" . c #A72706",
".. c #BC2D03",
"X. c #B62706",
"o. c #A83407",
"O. c #B73705",
"+. c #A92A16",
"@. c #A73817",
"#. c #BE3C1E",
"$. c #BD1D20",
"%. c #982926",
"&. c #873A27",
"*. c #8A332E",
"=. c #A8342B",
"-. c #B53A38",
";. c #AE332A",
":. c #CA0302",
">. c #DA0203",
",. c #C81705",
"<. c #D81707",
"1. c #C11914",
"2. c #FE0401",
"3. c #F80802",
"4. c #E91604",
"5. c #F71603",
"6. c #E60302",
"7. c #C72806",
"8. c #D92706",
"9. c #C73B08",
"0. c #DC3C02",
"q. c #D53705",
"w. c #CD3D11",
"e. c #CB2915",
"r. c #E72909",
"t. c #F72904",
"y. c #E73804",
"u. c #F93A03",
"i. c #EC3F18",
"p. c #C8302B",
"a. c #E4393B",
"s. c #884707",
"d. c #984708",
"f. c #8A5706",
"g. c #985709",
"h. c #8B4915",
"j. c #984916",
"k. c #8C5E18",
"l. c #B84807",
"z. c #A45A07",
"x. c #B75605",
"c. c #A94A16",
"v. c #BB4416",
"b. c #A94A10",
"n. c #986B05",
"m. c #8C620E",
"M. c #A56B07",
"N. c #B36507",
"B. c #B67503",
"V. c #BA671A",
"C. c #B1761B",
"Z. c #914A2E",
"A. c #AB4A31",
"S. c #946C37",
"D. c #9E6829",
"F. c #AE692D",
"G. c #C94407",
"H. c #DB4A02",
"J. c #D74705",
"K. c #C75706",
"L. c #D85806",
"P. c #C7531A",
"I. c #D75515",
"U. c #D7461B",
"Y. c #E54804",
"T. c #F54805",
"R. c #E95805",
"E. c #F65805",
"W. c #ED5019",
"Q. c #C96A04",
"!. c #D66604",
"~. c #C67709",
"^. c #D57809",
"/. c #D67918",
"(. c #D17016",
"). c #EA6606",
"_. c #FA6706",
"`. c #E97906",
"'. c #FC7C03",
"]. c #F77607",
"[. c #E76816",
"{. c #F56717",
"}. c #E77616",
"|. c #F97917",
" X c #D4512C",
".X c #F14D33",
"XX c #DC7325",
"oX c #C96539",
"OX c #CC7228",
"+X c #E66B23",
"@X c #E57526",
"#X c #F77B25",
"$X c #E56832",
"%X c #F06E30",
"&X c #823D44",
"*X c #8C4040",
"=X c #AB4C47",
"-X c #A57D43",
";X c #D56647",
":X c #B7900E",
">X c #BCA21D",
",X c #A7833A",
"<X c #D68405",
"1X c #D89809",
"2X c #CC8E11",
"3X c #E88A07",
"4X c #F38403",
"5X c #FC8304",
"6X c #F58C04",
"7X c #FE8C04",
"8X c #F3850D",
"9X c #E99806",
"0X c #FD9303",
"qX c #F89608",
"wX c #E88716",
"eX c #FB8817",
"rX c #E99719",
"tX c #F99513",
"yX c #DDA605",
"uX c #EAAA05",
"iX c #FDAE04",
"pX c #F9A709",
"aX c #FCB707",
"sX c #E7A514",
"dX c #FABA16",
"fX c #EAB114",
"gX c #CD8E28",
"hX c #E88428",
"jX c #FC8136",
"kX c #E69636",
"lX c #FF943A",
"zX c #F9B42B",
"xX c #E1B639",
"cX c #F1AB31",
"vX c #D2AE3A",
"bX c #FCC606",
"nX c #FCD705",
"mX c #FCCD14",
"MX c #E5C402",
"NX c #FFF502",
"BX c #F9E504",
"VX c #FAC63A",
"CX c #FAD12E",
"ZX c #FCEC2D",
"AX c #A89C4D",
"SX c #F1974A",
"DX c #F1A658",
"FX c #F6B46F",
"GX c #E09E61",
"HX c #F4CB48",
"JX c #F8CA6D",
"KX c #F0D85D",
"LX c #F8B78B",
"PX c #F8D18F",
"IX c #FFFEB1",
"UX c #FFEB88",
/* pixels */
"                                                                                                                                ",
"                R                                                                                                               ",
"      =.        U           H                                                                                                   ",
"a     [       J *.        t u                                                                                                   ",
"m     T       K [         0                                                                                                     ",
"b     t =X    H n $X    s 6                                                                                                     ",
"* A.  r N     Y 1 -.    , b                                                                                                     ",
"X Z.  H < =X    < B $.  y 7 U.        +.                                                                                        ",
"X b .X  9 M -.  w * B R [ @ ;.        z                                                                                         ",
"2 # -.  t , D *.} @ m M Z.+ z         g                                                                                         ",
"  e n -.;.R > F =X0 X m GXp & %.    [ d                                                                                         ",
"  ( P %.*XoXe % ,Xv.@ + AXv.O D     ) M                                                                                         ",
"    / K a -X@X# * b.i . m dXH m =.  U B                                                                                         ",
"  (   / 8 3 cXK.+ 2 G.; o :X3X@ *X%._ M =X                                                                                      ",
"  K {  X+., k nX_ O N.G.X % pX! * D.P.> *.                                                                                      ",
"  E K *.oXl.; :XaXr % uX] o f.0X< f rXq &Xp.                                                                                    ",
"    L w &.zX| ; 1X'.9 C iXI + B.Y.O x.7.M p.                                                                                    ",
"    ( G q C.tXH $ 9X).; n.0X9 % 5XK h T.9 =Xe.                                                                                  ",
"      R G , 1X0Xe h iXJ.< <XE.: g._.q 4XQ N .X                                                                                  ",
"        ^ e 5 uX7XK h pXy.e 9XJ.# 3X..B.].r =X.X                                                                                ",
"      *.  #.8 u fX6XK u ].8._ uX| k 5XX.aXY.w $X                                                                                ",
"      w N s.H.K t <X'.^ p wXy.Y iX! n.`.<XiX,.*.#X                                                                              ",
"      p < ; ` qXO.; d.5X8.H !.H.] aXU 2X_.nX0XE (.                                                                X.      O.    ",
"        _ t : ' wX0.r i H.u.W x.`.K.uX .uX].BX'.7.|.                                                      [       p     *._     ",
"          XX,.9 , l.7Xq.9 | _.8.K.`.).4XK.3X).NX4Xy.E.                                                    u     B g     M q.    ",
"            dX].O.e g 2X).~ ! 3X4X`.6X).`.(.].bXZX8.r.                                                  [ 5   kX& ..  Z )       ",
"          +.  fXBX0X! : j /.R...Q.6X`.6X6XsXVXCXCX%X:.#X                                                % U lXm t eXS.5     [   ",
"          R R z d.^.pX'.9.9 j ~.9X).).7XmXCXwXhXjX.Xe.T.                                              B % @XS ; {.F 7 eX;Xs 8.  ",
"            K 9 , < y z.wX6XL.o.~.bX4X).HXP.OXzXcXSX;X8.eX                                          Z.+ x.= @ Q.= 1 wXZ 7 ,.    ",
"              +.^ E t > @ 3 f.rX`.K.3XpXVXcXXXhXr.VXFX/ tX                                      &.F o x.- @ _.- 9 (.= O 9.      ",
"                  7X_.).G.! r 8 s.yX9X`.tXrX@XJX[.jXPX! |.                                    A.S + @.x i l.2 p x.X Y |.OX      ",
"                  A.Z.2XsX'.7XpX`.9.K.uX9X`.KXeXtXzXLX( |.                                %X{ * d ' h y k + _ ` > L.V.n a       ",
"                ( T 6 6 1 q i s.B.1X9X_.8X4XzXzX7.#XPX7.{.                            I.Y k Z V V k d 4 u ) g I J.f . _         ",
"                  H : # : , q t K Y O.<XqXiXZXdXeX+XPX$.|.                        {.v.2 A gXrX:Xk 2 4 g j ' ] u % i W.          ",
"                    a p { !.uXpX5X'._.R.H.rXCX[.Y.tXFXw.|.                      [.7.` AXHX:X' C V d d u 3 d g V N.' _           ",
"                        [ y > 2 5 g s.~.9X_.tXHX{.#XDX/ ].                    }._ D.HXxXC.l f.f.m.M.g.l 1 u g.d.l o.            ",
"                          E L H H Y Y ~ 7.J.<XpXE.eXSXK T.                  eXX.D.UXzXgXh V m.n.f.V l d C k.V.                  ",
"                            @X/.K.l.x.Q.Q.!.Y.qXiX{.FX_ Y.dX              aXy.] IXDXuX:Xs.d 2 f x f.g.M.f m x                   ",
"                              5 . > > 5 u s.!.tXdXeXUX} ../.              [.< AXDXgX4 d V N.rXj.Z Z                             ",
"                              kX^.^.] _ ] x.L.).dXE.JXV.X.wX            3X' f DXN.b 6 C :X                                      ",
"                                    C d 5 y y ! L.'.FXgXY [.}.        pXI.1 F.+X2 7 h.                                          ",
"                                    D.k d ' ) _ J.0XjXGXr x.Q.4.{.fXsX[.T c SXh.4 M.                                            ",
"                                    -Xk.l h ]  .7.).#XDXu @.M.W 3.<.9.Y a wXv.> g.                                              ",
"                                    g.c ) ' l.K._.r.%XFX} 8 N.d.P K >.y.R.Q 9 s.                                                ",
"                                    F.h.g p J ^ 8XE.8.DXC., ) x.3 e W 8.5XT.Y.aXbX                                              ",
"                                    :Xg.` 0 Y E / |..XLXhX# u h j # | T.R.0X_.6XNXaXmXNXnX                                      ",
"                                    >Xk.h ) p O.Y.T.W.GX$X8 w p i ; L 7.0.y.4XbXnXMXfXZXZXaXX.                                  ",
"                                      S.c h ] 7.tXdX{..X.X4./ H < G 6.3.t.4.<.0.7.Q H m F ) 2XKX                                ",
"                                  kX[.c.Z h.y 0.cXmXt.5.4.8./ 1 , P 3.3.>.2.2.>.>.2.Q > g.q.wXgXxX                              ",
"              {             _.zXXXXX9.I.A.w V.].].5.3.2.>.>.:.; @ Q 2.3.~ Y E w p           oX                                  ",
"            R / W.U.w.w.Y.Y._.tXR.G.G.G.E @.p.r.3.5.E.t.5.2.Q 9 > Y                                                             ",
"          K t <.;.w...X.l.G.T.E.L.J.7.9...^ <.5.3.'.bX0XE.L Q r.                                                                ",
"          T _ R. .I.@.O.@.J.~ <.,.X.X.^ X.,.r.5.T.iXBXnXI  ._.].                                                                ",
"          z i e._ L.K.c.l.| | O.q. .X.,.W :.5.5.T.`.nX9XG R.bX                                                                  ",
"            w Y y.w.j.O.@.A.g g X.U.+X{.r.r.4.6.<.H.iXQ.L ).bX                                                                  ",
"              0 q  .9.F.h.1 < 7 t 1.a.%XW.i.4.>.W q.bXG._ R.W.                                                                  ",
"                * w c.c 1 t p s 1 1 R ( 1.1.r.Q L q.iXL.' DXX.E.                                                                ",
"                      a B z a w 1 a 1 < e L ,.<.L :.pX9.x.~.c.I.tX    vX                                                        ",
"                            M *.N &.z [ { [ R   ~ P Y.uX<X~.gX+.8.  mX3X                                                        ",
"                                                  R Y bX^.!.3XV.A.yX`.OX9XS.                                                    ",
"                                                    rX].R.G.w.) yX).L.<X/.                                                      ",
"                                                kXpX).1.      <XY. .d.P.~.                                                      ",
"                                                XXJ.        rX^.                                                                ",
"                                                            Z.                                                                  "
};
