/* XPM */
static char *a473b0c1b3f746d1b0ebee69d61523187jnLVvtDWQ6QsJX5[] = {
/* columns rows colors chars-per-pixel */
"64 64 170 2 ",
"   c None",
".  c #2E3C18",
"X  c #313C1B",
"o  c #393F21",
"O  c #423F28",
"+  c #2C4318",
"@  c #34431D",
"#  c #39461E",
"$  c #36481B",
"%  c #3A491E",
"&  c #3D4A21",
"*  c #434627",
"=  c #424D23",
"-  c #47432C",
";  c #4A462D",
":  c #494A2B",
">  c #445324",
",  c #485726",
"<  c #475824",
"1  c #4A5A26",
"2  c #4B5429",
"3  c #4E5D29",
"4  c #51542D",
"5  c #535C2D",
"6  c #544C33",
"7  c #59453A",
"8  c #5D4E3B",
"9  c #545332",
"0  c #595336",
"q  c #565A31",
"w  c #5C5B35",
"e  c #5E523B",
"r  c #5E5B39",
"t  c #614E3E",
"y  c #63533D",
"u  c #68573F",
"i  c #655B3D",
"p  c #695B3F",
"a  c #4C6027",
"s  c #4F6029",
"d  c #53642B",
"f  c #59632F",
"g  c #56692C",
"h  c #5A6C2E",
"j  c #5C712F",
"k  c #5B6333",
"l  c #5D6C31",
"z  c #5E7230",
"x  c #616435",
"c  c #636D36",
"v  c #63633A",
"b  c #6A633D",
"n  c #656B39",
"m  c #6B6C3D",
"M  c #706D3F",
"N  c #617532",
"B  c #657A33",
"V  c #697E35",
"C  c #67713A",
"Z  c #6C733B",
"A  c #6C7B3A",
"S  c #73723E",
"D  c #79763F",
"F  c #747C3E",
"G  c #634D40",
"H  c #655440",
"J  c #6A5641",
"K  c #6C5C41",
"L  c #715E44",
"P  c #6F6340",
"I  c #6E6A40",
"U  c #706140",
"Y  c #736343",
"T  c #786645",
"R  c #756B42",
"E  c #7B6A46",
"W  c #7D6C48",
"Q  c #767440",
"!  c #7B7343",
"~  c #767B43",
"^  c #7E7A44",
"/  c #816E47",
"(  c #816F49",
")  c #837247",
"_  c #857249",
"`  c #8A774B",
"'  c #8C7A4C",
"]  c #917E4E",
"[  c #678034",
"{  c #698035",
"}  c #6A8036",
"|  c #6B8136",
" . c #6A8136",
".. c #6C8237",
"X. c #6C8337",
"o. c #6D8337",
"O. c #6D8437",
"+. c #6B8236",
"@. c #6D8538",
"#. c #6E8438",
"$. c #6E8638",
"%. c #6E8338",
"&. c #6F8839",
"*. c #72843A",
"=. c #78823D",
"-. c #718939",
";. c #718839",
":. c #71893A",
">. c #718A3A",
",. c #728A3A",
"<. c #738C3B",
"1. c #758D3B",
"2. c #758F3B",
"3. c #768F3C",
"4. c #738B3A",
"5. c #798F3F",
"6. c #77913C",
"7. c #77903D",
"8. c #79923D",
"9. c #79933D",
"0. c #7A933E",
"q. c #7B953F",
"w. c #7D973F",
"e. c #7A943E",
"r. c #7D993F",
"t. c #778341",
"y. c #7D8045",
"u. c #7D8E41",
"i. c #7C9141",
"p. c #7D9840",
"a. c #7E9840",
"s. c #7F9A40",
"d. c #7F9B40",
"f. c #8A8149",
"g. c #95814F",
"h. c #819643",
"j. c #809B41",
"k. c #829D41",
"l. c #819D42",
"z. c #829D42",
"x. c #829E42",
"c. c #829C42",
"v. c #968151",
"b. c #9A8252",
"n. c #85A043",
"m. c #85A144",
"M. c #86A144",
"N. c #86A244",
"B. c #87A544",
"V. c #85A243",
"C. c #89A347",
"Z. c #88A545",
"A. c #89A645",
"S. c #8BA746",
"D. c #89A446",
"F. c #8BA947",
"G. c #8DAB47",
"H. c #8CA847",
"J. c #8CAA47",
"K. c #8CA948",
"L. c #8DAB48",
"P. c #8EAB48",
"I. c #8EAD48",
"U. c #8FAD48",
"Y. c #91AF4A",
"T. c #92B14A",
"R. c #96B54C",
"E. c #97B74D",
"W. c #92B14A",
"Q. c #9EC050",
/* pixels */
"                                                                          }   g                                                 ",
"                                                              P.P.z z j z V d d                                                 ",
"                                                              :.E.j.z } d g z B h                                               ",
"                          A.    g     }   d       H.      @.B 3 e.} h B h h N N d j z                                           ",
"                            R.j.N B d j d g       A.R.6.g O.d g g = g 1 B h 3 s h d ,                                           ",
"                        } , q.F.j V j d z o.h g N z N z } &.s 1 g 2.} s z h g 3 d d 3 1 1                                       ",
"              H.I.    o.} d B g d h g N d h d N g   z h A.q.N s V H.z 3 d h g d h d 3 d                                         ",
"                P.w.g o.g 3 g 3 j d j N 3 d d g , d V :.s.z B g 6.:., g h d 1 3 d g , g g                                       ",
"                , d o.x.z 5 a d.e.d d z h d d h d , 1 h g B V h j 1 & O.:.z 3 < 1 g % & , =   &                                 ",
"                x.N n.e.B N h A.j 3 s d d d g h 1 d g 3 % = 8.| & 1 h 2.j B d > = < % % & & & & & &   &                         ",
"              H.T.@.:.N B g V &.> g B z 1 1 1 g 1 d d g h & r.w., 3 q.z a N & 1 = s = = & & % % & & % &                         ",
"      x.      H.z 1 g g B > 1 > = } j.V d 1 z j d , g o.h 3 -.-., d d 3 3 j &.d B B # d = & > * : & = &                         ",
"      H.d d d.A.  z 3 # a 2 & = = % g h B B j V d g d z N B j z B d d 3 3 j n.j g h < h > > 6 0 2 # & & &                       ",
"    x.x.1 3 } h 3 j d 3 d N w q 2 ; 1 { h d , g g d 1 3 -.S.V z M.:.h } d j } g h z h d < , f N < # & & & &                     ",
"  d B } g d 1 3 d g x.h z B * k 9 9 l h < 1 h.V 3 d g g % 1 d $.<.N j 9.<.3 d B B d j d 5 g h g 1 = X & % &                     ",
"P.B.} d :.B g d > h w.B a z s h > x U q 5 0 C.5.4 > f = > z V 3 3 g g 5 d d j h z z g d d s d > d 6.g , d >   A e g             ",
"  I.N } A.2.h q.o.g N h N h h d < f C j 5 f B 4 Y e 6 # = h M 4 N P.g g g N z d d B g > 3 g > 2 > :.Y.4.z z h l d C C           ",
"    z N l 3 j N O.1 d z B g h g g d d d > O N A b i 5 $ h g 5 5 A x.c B l g 1 3 j c h l o = > d z 3 x.j.g } g d N } d   z j     ",
"  } @.1 h :.g 3 3 h V d d B g 1 d a d 2 > 5 b A.A.N B d z h s c Q 8 1 B 5 g l r } d = j.j.N , V j d B 5 h g z N d g h N g       ",
"      & N T.%.h N g d d d B j > x c 0 6 @ h 5 B I.2.h V s d V B q w h C 0 e i k Z e - A x.@.g V s d d d z 1 N h a s d d , 1     ",
"              @.h g a 2 B l x > Q x.u.m v O.g h B d j g N h h g h l g i y 8 : & 4 y H 6 , d e.w.h 3 j A.o.3 g z h s g g 3 1 1 w ",
"              V R ^ Z m A M T p i j.n.N N B 1 g 3 d g s B d 3 a g 1 s q 6 = $ # % : 7 ~ e.B C.o.B g O.k.d g 3 g s s h d 3 d w   ",
"              }     b S m U K 0 : = a h r.O.d 1 } V.N 3 j j g 5 h s h h q u 6 & # 4 ~ I.i.h [ N B d :.z > z } z 3 , f z 4 w d   ",
"                  + $ @ > = & % . 2.O.*.A.V V 1 r.9.3 d d g d d h s d h b K y e E ) y.m e , r Z A e 3 2 1 e =...4 , w j         ",
"                        & % & @ :.T.s.6.[ j z g q.d 5 z B d > 1 g d l k k y J ! ) b H G K d u u m Y b i b 8 m     1             ",
"                            #   w.  d d h [ ~ x 5 5 9 ! @.c 4 5 m d l P K K E Y P m 8   H ,       u H y H                       ",
"                                        B j ' T w K w ` Z Y E 5 y y k K J P Y J u w       1                                     ",
"                    ,     1   d g         g b.] K 8 E ) i Y U e e y B u y y t t w h                                             ",
"                      h d 3 h z d z       h   ] p e / U K L y 8     N m           B       1                                     ",
"                  3   j.N e.h d N d       B   v.E t Y U U y y H y     k 0     G i j                                             ",
"                  3 2.V O.s.g d g }   '   z     R k Z U K e y y y e v r e y y   n N       1                                     ",
"                  r.:.1 o.3 3 } A R ! R T g     F m n n y H t       i v 2                 ,                                     ",
"                        d g k x Q Y m   m Z     L y t n v H w         h >                 1                                     ",
"                                          ~ T U K P H k v t 2 <     g g                                                         ",
"                          B               k y Y Y U e w i 8   , 3 , d                                                           ",
"                                    B   d g   y y y u C b t     1 ,   B         z                                               ",
"                                        z         ( Y c b 8           V                                                         ",
"                          z             B       g.' S n J     y       B         g                                               ",
"                          h             }       ' ) n Z H   y y         N       h                                               ",
"                          }         N   }       v.' C m t y y           B       N                                               ",
"                          z       N z   g       ` F c T u y             N z   z N                                               ",
"                            N     g     g g     c *.M L p y t             z O.B                                                 ",
"                            V @.N g       h       f.W y p t u             z N                                                   ",
"                            z N B         }       g.' K u y m B                                                                 ",
"                              z           }         ] T e u v Z                                                                 ",
"                                          B         ' / H b C v y                                                               ",
"                                                    ] ' i B Z e H y                                                             ",
"                                                    L ~ C v R U y H y                                                           ",
"                                                    l ~ m i K U K p H c                                                         ",
"                                                    n ! K u p p K p J Z Z t y                                                   ",
"                                                  t p m y p E p T 8 u m C p K K H y z                                           ",
"                                                u K L J p U ( U ( y u K n v p K U H I n G                                       ",
"                                        B Q   K Y v c p L p ` p u u y b =.M J Y K K T C P H                                     ",
"                              ] _ W Q C Y Y Y J l D ^ Z i p W u 8 p K r b u K ' U J T Z P J                                     ",
"                            ' _ H H C P G 8 t R ) T T n k K Y u K T u y 8 K ' T e t k B U K y                                   ",
"                          / T y H J l r 8 Y ) W Y H K J p b y b K E u 8 8 _ E 8 y e i y K U y y y         y                     ",
"                          K K u y 8 r K K E Y K e u y T W H e Y p K H y 8 / / K Y H   y y P u e K H y e e y                     ",
"                        E U K e 8 u U Y K E J t   8 u E i y P P K u H e 8 Y ' K Y / u   y K H   H H K y                         ",
"                      ' W K   y e T E K e ` )   y e y K / E u y K y y y y H   T K   Y e   K y         y y y y y                 ",
"                U Y W W Y     8 E W u E K   ] _   8 W _ Y K K H K   e y   L 8   K     K     y e y       y   y                   ",
"              K     K K         _ K K   Y   W )   8 _ T y y y y y   y y   u i T K     U T                                       ",
"                                K   K   T K _ U e   ' K         y       K K H   K       T                                       ",
"                                    K     E E       ` K         y                 K                                             ",
"                                            J         T         e y                                                             "
};
