/* XPM */
static char *_d1c606e32984d3be74f99f3e049af93hKviMWlFzYpXb46o[] = {
/* columns rows colors chars-per-pixel */
"64 64 163 2 ",
"   c None",
".  c #5DB6FD",
"X  c #5EB8FF",
"o  c #65B6FC",
"O  c #6CB7FC",
"+  c #64BAFF",
"@  c #6CBCFE",
"#  c #7CB6F6",
"$  c #7DB9F7",
"%  c #77B7FA",
"&  c #79B7F9",
"*  c #73BCFD",
"=  c #7CBDFB",
"-  c #74C2FF",
";  c #7BC4FE",
":  c #7EC8FF",
">  c #82BBF7",
",  c #81BEFA",
"<  c #84C3FD",
"1  c #8BC7FE",
"2  c #89C5FD",
"3  c #8AC4FB",
"4  c #81C9FF",
"5  c #81C8FF",
"6  c #82C8FF",
"7  c #83C8FF",
"8  c #83C9FF",
"9  c #84C8FE",
"0  c #84C8FF",
"q  c #85C8FF",
"w  c #84C9FF",
"e  c #85C9FF",
"r  c #85C8FE",
"t  c #87C8FF",
"y  c #86C9FE",
"u  c #85CAFF",
"i  c #85CBFF",
"p  c #86CAFF",
"a  c #86CBFF",
"s  c #87CBFF",
"d  c #87CCFF",
"f  c #84CAFF",
"g  c #8BC8FD",
"h  c #89C9FF",
"j  c #89C9FE",
"k  c #8AC9FF",
"l  c #88CBFF",
"z  c #8BCBFE",
"x  c #8ACAFF",
"c  c #8BCBFF",
"v  c #8DC9FE",
"b  c #8DC8FE",
"n  c #8EC8FE",
"m  c #8FC9FE",
"M  c #8DCBFF",
"N  c #8ECAFE",
"B  c #8ECBFF",
"V  c #88CDFF",
"C  c #89CDFF",
"Z  c #8ACCFF",
"A  c #8BCCFF",
"S  c #8CCCFF",
"D  c #8FCDFE",
"F  c #8ECCFF",
"G  c #8FCCFF",
"H  c #8ECDFF",
"J  c #8FCDFF",
"K  c #8CCEFF",
"L  c #8DCFFF",
"P  c #8FCFFF",
"I  c #8BCCFF",
"U  c #90C7FD",
"Y  c #90CAFE",
"T  c #91CAFE",
"R  c #92CBFE",
"E  c #93CBFE",
"W  c #90CCFE",
"Q  c #91CDFE",
"!  c #90CCFF",
"~  c #90CDFF",
"^  c #92CCFE",
"/  c #92CDFE",
"(  c #93CDFE",
")  c #91CEFF",
"_  c #90CFFF",
"`  c #91CFFF",
"'  c #92CEFF",
"]  c #92CFFF",
"[  c #94CDFE",
"{  c #94CDFF",
"}  c #95CEFE",
"|  c #97CEFE",
" . c #96CFFE",
".. c #93CEFF",
"X. c #99CEFD",
"o. c #8ED0FF",
"O. c #90D0FF",
"+. c #91D0FF",
"@. c #93D0FF",
"#. c #93D2FF",
"$. c #94D0FF",
"%. c #95D1FF",
"&. c #97D1FF",
"*. c #94D2FF",
"=. c #96D2FF",
"-. c #96D3FF",
";. c #94D1FF",
":. c #99D0FE",
">. c #98D0FF",
",. c #98D1FF",
"<. c #9BD1FF",
"1. c #9AD3FF",
"2. c #9BD3FF",
"3. c #9DD2FF",
"4. c #9CD3FF",
"5. c #9DD4FF",
"6. c #9CD5FF",
"7. c #9FD5FF",
"8. c #9DD6FF",
"9. c #9FD6FF",
"0. c #9FD7FF",
"q. c #9CD4FF",
"w. c #A0D7FF",
"e. c #A2D6FF",
"r. c #A3D6FF",
"t. c #A5D7FF",
"y. c #A6D7FF",
"u. c #A2D6FF",
"i. c #ABD7FF",
"p. c #A3D8FF",
"a. c #A4D8FF",
"s. c #A5D9FF",
"d. c #A8DAFF",
"f. c #AADAFF",
"g. c #ABDBFF",
"h. c #ADDAFF",
"j. c #ACDBFF",
"k. c #ADDBFF",
"l. c #AFDBFF",
"z. c #AFDCFF",
"x. c #ACDBFF",
"c. c #B1DDFF",
"v. c #B2DEFF",
"b. c #B3DEFF",
"n. c #B2DFFF",
"m. c #B5DEFF",
"M. c #B3DEFF",
"N. c #B8DFFF",
"B. c #B6E0FF",
"V. c #B8E1FF",
"C. c #BCE2FF",
"Z. c #C3E5FF",
"A. c #C9E7FF",
"S. c #C7E8FF",
"D. c #CCE9FF",
"F. c #D3EBFF",
"G. c #DAEFFF",
"H. c #DDF0FF",
"J. c #E4F3FF",
"K. c #EBF6FF",
"L. c #EFF8FF",
"P. c #F4FAFF",
"I. c #FEFFFF",
/* pixels */
"                                                                                                                                ",
"                                                                                                                                ",
"                                                                                                                                ",
"                                                  > , < < < < < 3 < , < , , = $                                                 ",
"                                            , < < < < < 3 B Y E Y Y B < < < < , = = #                                           ",
"                                      $ , , < < 3 B B | | Y B B Y Y ) | ) B B < < < , = =                                       ",
"                                    , < 3 B Y | 1.| ) B 5 ; @ + + + X @ - * ; ; ; ; * = & & $                                   ",
"                                , 3 < 3 U ) D 3 7 ; * ; ; ; < 9 ; + + X + + + + + - * @ @ % % & =                               ",
"                              < 3 < < 9 B 5 7 ; ; ; : 9 #.:.5.u.f.x.h.1.y g Q D l - @ - @ @ @ % & =                             ",
"                            3 3 = ; < D Y l ; : : d D %.#.Q g V ) y.f.b.m.u.Q A y : - @ - - @ O * % ,                           ",
"                        $ 3 < % = 5 1.) : * - 9 ) ) A 9 ; ; : V 9 5 9 6.x.c.u.V - ; < : @ @ - - @ * % =                         ",
"                      $ g < % - ) <.l - @ : %.6.1.) A y 4 V #.o.-.O.p.e.V o.s.x.1.7 - : 5 @ + - = @ * & <                       ",
"                      3 3 * ; D %.- X + 9 1.%.o.O.-.8.8.0.M.B.B.x.p.d.-.o.d V -.b.x.O.5 5 9 - + - - - * = <                     ",
"                    , 3 O * %.1.- . - %.e.O.o.o.A A o.s.S.S.x.x.x.x.d.#.1.1.#.o.o.x.b.s.%.A A - + * ; * * , <                   ",
"                  , g * @ %.<.* + 5 e.6.1.8.8.-.-.1.x.V.C.x.w.6.d.V.B.8.8.0.8.0.-.o.8.x.p.1.O.A ; + - - @ = < 3                 ",
"                # n < o l p.; @ D h.O.O.x.p.o.#.x.S.Z.V.M.s.M.M.d.V.C.x.w.0.8.-.8.1.%.8.s.6.1.| D - @ - + O = <                 ",
"                < 3 * - e.B ; O.x.D o.B.1.i o.x.B.x.x.C.S.C.C.C.M.C.V.C.M.d.d.q.8.0.8.-.0.s.-.-.%.%.@ - ; . O < <               ",
"              , 3 = @ 1.e.7 O.f.5 : p.p.o.#.B.C.x.x.x.C.C.B.A.S.Z.Z.C.V.Z.V.M.M.n.s.x.x.0.x.x.-.%.1.A + : @ o * < 3             ",
"              < , @ 7 f.| A 6.9 - -.p.-.8.V.C.x.x.m.m.Z.A.M.N.A.A.D.Z.V.A.D.Z.Z.C.B.B.B.x.8.x.B.1.%.p.- @ : + o = 3             ",
"            > 3 = - | e.D D D - #.O.8.d.C.C.x.x.B.m.C.A.Z.C.C.Z.Z.A.D.A.D.A.Z.C.B.B.x.x.V.s.-.B.b.6.f.%.o : - + O < 3           ",
"            3 < * D %.A O.1.: 4 #.o.x.Z.C.s.x.C.N.C.C.A.A.C.Z.A.Z.D.G.D.D.Z.V.V.V.B.x.z.B.x.-.-.V.x.s.b.; @ : @ o = 3           ",
"          > 3 = ; e.9 9 p.o.- o.o.0.S.S.x.B.V.V.C.C.C.D.F.A.F.G.G.D.F.D.F.D.Z.N.V.V.V.B.B.C.w.o.O.b.8.B.8.- - - o % <           ",
"          , n * g e.- D x.5 o.-.-.C.G.C.C.Z.Z.C.C.C.A.F.G.H.J.K.J.G.G.J.G.F.A.Z.V.V.V.V.B.C.x.-.o.1.d.d.B.D - - * * < 3         ",
"          3 3 ; %.O.- 1.x.o.8.8.x.D.S.C.C.C.Z.S.A.D.F.H.K.P.P.P.L.L.K.K.K.H.D.A.C.V.V.B.B.Z.M.6.o.o.d.d.s.s.5 @ - @ = 3         ",
"        > g < < e.9 : h.x.0.8.-.C.C.C.Z.N.N.V.C.D.G.J.L.P.I.P.I.P.I.P.P.P.K.G.F.A.C.N.C.C.S.C.x.1.d -.B.1.s.6.@ @ - = 3         ",
"        , U ; 3 <.9 ) m.x.#.o.s.C.B.Z.Z.N.C.Z.A.G.J.L.I.I.I.I.I.I.I.I.I.P.P.J.G.G.D.A.Z.A.F.A.B.x.-.o.x.6.1.b.- + ; = 3         ",
"        < n * l e.) %.s.s.#.#.B.B.x.Z.S.N.C.A.D.H.P.P.I.I.I.I.I.I.I.I.I.I.P.P.J.G.G.A.C.C.A.Z.B.x.d.6.B.s.e.b.; @ - = 3         ",
"        3 3 * B f.) l 1.x.-.s.B.s.B.C.S.C.Z.D.G.K.P.I.I.I.I.I.I.I.I.I.I.I.I.P.P.G.D.A.N.Z.A.C.M.x.8.6.x.V.m.h.: + : ; < 3       ",
"        3 3 * 1.f.7 9 %.b.s.x.x.s.V.Z.A.Z.Z.D.J.P.I.I.I.I.I.I.I.I.I.I.I.I.I.I.P.K.G.D.Z.C.Z.C.B.d.8.#.w.V.Z.b.A @ - ; , <       ",
"        3 < ; i.s.; 9 o.B.C.d.p.x.V.C.Z.A.Z.F.K.P.P.I.I.I.I.I.I.I.I.I.I.I.I.I.P.K.G.F.F.F.S.C.C.d.w.s.B.p.x.Z.-.@ - 7 , ,       ",
"        3 = : f.e.; 5 o.x.D.x.8.z.V.V.Z.A.A.G.L.I.I.I.I.I.I.I.I.I.I.I.I.I.I.I.P.L.G.S.D.G.D.S.C.C.x.B.s.A 8.Z.f.@ - < < 3       ",
"        3 = l y.<.7 5 O.x.C.V.B.B.V.V.C.D.G.J.L.P.I.I.I.I.I.I.I.I.I.I.I.I.I.I.I.L.G.D.Z.G.A.C.V.B.s.x.0.9 1.N.x.; - ; , 3       ",
"        3 = B e.-.y i o.x.x.x.V.C.Z.Z.Z.F.J.J.K.P.I.I.I.I.I.I.I.I.I.I.I.I.I.I.I.L.G.D.A.D.A.C.M.M.z.z.Q V 8.z.z.9 - ; $ 3       ",
"        3 % B | :.D : #.B.x.B.x.m.C.Z.Z.A.G.H.K.P.I.I.I.I.I.I.I.I.I.I.I.I.I.I.P.L.G.D.A.Z.Z.Z.N.x.x.s.o.8.Q x.z.V - ; ; 3       ",
"        g ; B | #.%.i o.s.x.s.V.V.V.N.Z.A.F.G.J.P.I.I.I.I.I.I.I.I.I.I.I.I.I.I.P.K.F.D.D.C.Z.Z.M.n.x.s.s.-.: x.d.V ; ; $ <       ",
"        3 < l | g 6.V #.-.s.x.B.b.b.N.C.A.Z.G.J.P.P.I.I.I.I.I.I.I.I.I.I.I.I.I.P.J.G.F.Z.N.C.Z.M.B.C.B.8.: 9 d.w.D ; ; $ ,       ",
"        , n n 1.9 6.D ) -.O.x.Z.C.b.V.Z.Z.C.D.J.K.P.P.I.I.I.I.I.I.I.I.I.I.I.P.L.H.H.F.Z.S.Z.S.S.S.C.0.V : V x.X.D 7 = ; >       ",
"        = 3 3 %.l 1.%.D -.d 8.B.S.Z.C.Z.Z.C.A.G.K.L.P.I.I.I.I.I.I.I.I.I.I.P.L.J.G.G.D.Z.Z.Z.Z.S.Z.s.#.V - #.d.z D 9 = =         ",
"        > 3 l | D ) e.D O.d o.8.C.D.D.A.Z.A.D.F.H.K.P.P.P.I.I.I.I.I.I.I.P.L.J.G.H.D.Z.C.C.C.C.S.C.0.o.: - s.0.9 ) l = ,         ",
"        > 3 g ) B ) p.O.o.4 o.8.x.A.A.Z.Z.C.Z.Z.F.J.K.K.P.P.P.I.P.I.P.P.K.J.F.G.D.Z.C.V.C.B.C.Z.B.-.y : 9 n.#.: ) B , ,         ",
"          , n | [ B <.1.1.d 5 o.6.C.D.S.C.C.C.C.A.F.G.J.J.J.K.K.L.K.K.J.G.F.F.D.A.Z.N.m.B.C.Z.B.d.O.: - 1.b.5 : | g = ,         ",
"          , 3 3 e.| %.%.e.O.- d -.x.C.S.C.C.C.C.Z.S.A.F.H.G.G.G.G.H.G.D.D.F.D.Z.Z.Z.C.m.B.Z.V.0.p.o.: 5 b.6.- 9 y.g ,           ",
"            < < 1.i.) D e.s.: : #.s.x.C.S.C.B.C.Z.Z.Z.A.D.F.F.D.D.A.Z.D.D.D.Z.C.Z.Z.C.m.C.C.s.-.8.o.- 6.m.5 ; 1.r.< >           ",
"            < < 3 x.y.5 O.h.6.; i s.s.s.C.A.C.C.C.C.C.C.Z.A.D.D.Z.Z.Z.D.A.C.C.C.m.C.C.C.C.s.-.-.-.: ) C.) - < y.X.$ >           ",
"            = < 3 :.C.) ; :.z.-.: -.8.q.s.C.Z.S.C.C.B.C.Z.C.C.S.D.F.F.A.N.C.C.M.m.C.S.C.s.8.L V o.6.b.6.- : | i.n >             ",
"              > < < m.N.; 9 w.z.8.8.-.o.-.s.B.D.S.C.B.M.N.C.Z.S.D.D.D.A.A.Z.B.B.M.A.Z.s.-.o.V -.B.x.e.5 ; D y.e., ,             ",
"              = ; < X.Z.w.- D q.s.x.s.o.-.8.6.C.S.C.C.C.C.Z.S.S.A.Z.Z.Z.Z.C.Z.Z.A.S.C.x.s.8.-.z.b.1.A ; < <.i.3 >               ",
"                $ < 2 u.Z.:.- o.q.x.B.8.-.s.x.V.C.Z.S.A.Z.C.C.C.C.C.V.M.M.m.C.Z.C.C.V.w.-.V o.z.e.D ; : | h.| > ,               ",
"                  = < B c.C.1.; D e.b.6.d D 6.x.B.x.B.C.C.B.x.x.x.x.d.x.B.V.V.x.8.B.8.A : 9 b.m.) : 7 ) m.X., >                 ",
"                  = = < Y f.N.e.: 9 h.Z.1.4 d f.S.8.-.s.B.B.B.s.w.8.p.x.x.x.8.#.d.s.d 5 D f.N.%.: 9 | h.X., ,                   ",
"                    = = < B <.N.b.B : y.C.p.A o.B.s.o.o.O.8.s.x.x.B.x.x.8.o.d O.p.o.5 o.s.x.O.l %.e.h.E , U >                   ",
"                      , , 3 < l i.C.f.) 6.B.x.O.o.s.#.i o.-.8.s.x.x.x.p.-.#.-.x.8.O.y.b.m.p.e.s.e.e.< , U >                     ",
"                        = < < 7 ; | c.m.f.f.C.N.x.x.C.x.6.%.O.O.o.o.o.d O.f.C.b.B.C.C.m.h.f.e.) l < , U >                       ",
"                          , < < < ; < ) f.h.f.h.B.B.C.Z.C.b.e.1.-.-.1.x.C.C.m.b.b.x.f.6.1.Y 3 9 < = , >                         ",
"                            = < < < : 7 l | <.s.s.x.f.s.m.C.Z.Z.A.D.S.Z.N.b.x.h.s.<.<.1.) l < = < , >                           ",
"                              $ , 3 < < 9 < B | :.u.s.f.x.b.b.V.V.x.x.s.s.f.y.<.e.<.| ) n 7 < 3 > #                             ",
"                                $ , < < < < 7 7 l O.| e.e.<.<.%.) %.6.y.y.y.e.<.| Y l 7 = , , $                                 ",
"                                    # , < , = < < < < < l B ) | ) | | | Y Y B < < < , = > = #                                   ",
"                                        $ = , < < = = ; = 7 < 9 l 9 < : ; 7 < = = = = > &                                       ",
"                                            > = , = ; , & * = * = = = = = % = = = $                                             ",
"                                                  = > = = = & & & & & & $ & =                                                   ",
"                                                                                                                                ",
"                                                                                                                                ",
"                                                                                                                                "
};
