/* XPM */
static char *e9af030f06ed4677c4ae3387f738fa27kTDdSvS8popqoaYK[] = {
/* columns rows colors chars-per-pixel */
"64 64 256 2 ",
"   c #050806",
".  c #160505",
"X  c #011B03",
"o  c #051707",
"O  c #141807",
"+  c #0B0216",
"@  c #020C15",
"#  c #020C1D",
"$  c #08051A",
"%  c #14031C",
"&  c #170718",
"*  c #011413",
"=  c #001C15",
"-  c #01141B",
";  c #001B1B",
":  c #0C1517",
">  c #151819",
",  c #23040A",
"<  c #270619",
"1  c #37091B",
"2  c #271A18",
"3  c #371618",
"4  c #32100D",
"5  c #00240B",
"6  c #062706",
"7  c #162907",
"8  c #063507",
"9  c #193608",
"0  c #012C1B",
"q  c #062617",
"w  c #1B2918",
"e  c #01331B",
"r  c #043816",
"t  c #183518",
"y  c #252A04",
"u  c #243706",
"i  c #252B19",
"p  c #27381A",
"a  c #343116",
"s  c #020D23",
"d  c #090B26",
"f  c #130C23",
"g  c #1B0B24",
"h  c #1C0C2B",
"j  c #180827",
"k  c #011325",
"l  c #011C23",
"z  c #02142B",
"x  c #0B142C",
"c  c #011B2C",
"v  c #0B1827",
"b  c #12122C",
"n  c #1C132B",
"m  c #181626",
"M  c #1A0C31",
"N  c #031D33",
"B  c #0B1B33",
"V  c #081835",
"C  c #181936",
"Z  c #240B24",
"A  c #240C2A",
"S  c #280827",
"D  c #350B29",
"F  c #23122C",
"G  c #2C122C",
"H  c #281725",
"J  c #361729",
"K  c #240B33",
"L  c #380D32",
"P  c #241533",
"I  c #2C1432",
"U  c #241A33",
"Y  c #2C1B35",
"T  c #281A3B",
"R  c #341434",
"E  c #331A34",
"W  c #341C3A",
"Q  c #3B1C3B",
"!  c #3B1735",
"~  c #012324",
"^  c #002B23",
"/  c #01232C",
"(  c #012B2C",
")  c #0C2928",
"_  c #152828",
"`  c #02352B",
"'  c #073927",
"]  c #183827",
"[  c #012434",
"{  c #0A2434",
"}  c #022C33",
"|  c #03253A",
" . c #0C243A",
".. c #022C3B",
"X. c #0C2B3C",
"o. c #0B2B33",
"O. c #15263B",
"+. c #023335",
"@. c #0A3434",
"#. c #033B34",
"$. c #02333C",
"%. c #0C323A",
"&. c #073C39",
"*. c #153838",
"=. c #252627",
"-. c #382528",
";. c #273925",
":. c #363C26",
">. c #2A233A",
",. c #33223D",
"<. c #3A2439",
"1. c #2F3734",
"2. c #480B19",
"3. c #4A1B1B",
"4. c #472A1B",
"5. c #460B28",
"6. c #471628",
"7. c #461938",
"8. c #541B39",
"9. c #4C1330",
"0. c #641C32",
"q. c #482727",
"w. c #54252A",
"e. c #463529",
"r. c #46243A",
"t. c #572939",
"y. c #593636",
"u. c #4A3733",
"i. c #692839",
"p. c #653438",
"a. c #6C2E30",
"s. c #631E1A",
"d. c #064819",
"f. c #16451A",
"g. c #115110",
"h. c #294819",
"j. c #304E11",
"k. c #0F7318",
"l. c #064627",
"z. c #154829",
"x. c #04582B",
"c. c #155529",
"v. c #074638",
"b. c #174839",
"n. c #175435",
"m. c #0B5837",
"M. c #284725",
"N. c #374929",
"B. c #365629",
"V. c #264833",
"C. c #374735",
"Z. c #275838",
"A. c #2F5730",
"S. c #106B33",
"D. c #286A38",
"F. c #31692F",
"G. c #46571B",
"H. c #444A15",
"J. c #4F681D",
"K. c #445A28",
"L. c #464938",
"P. c #475737",
"I. c #4F4B2E",
"U. c #6A453B",
"Y. c #4A6936",
"T. c #506F32",
"R. c #687336",
"E. c #371843",
"W. c #2D1F42",
"Q. c #0C2D42",
"!. c #042E41",
"~. c #172A44",
"^. c #033443",
"/. c #033B44",
"(. c #0C3C43",
"). c #0C3C4B",
"_. c #093747",
"`. c #133345",
"'. c #133B4B",
"]. c #173548",
"[. c #183A51",
"{. c #272845",
"}. c #3C2442",
"|. c #372845",
" X c #25344C",
".X c #303454",
"XX c #292B52",
"oX c #481B46",
"OX c #541A4A",
"+X c #462646",
"@X c #572747",
"#X c #42324A",
"$X c #573449",
"%X c #582653",
"&X c #4B3454",
"*X c #522E53",
"=X c #673746",
"-X c #783949",
";X c #683458",
":X c #6F2F50",
">X c #513763",
",X c #6F3768",
"<X c #0C434D",
"1X c #064648",
"2X c #174848",
"3X c #195547",
"4X c #0B4853",
"5X c #174856",
"6X c #095659",
"7X c #185559",
"8X c #0B5846",
"9X c #275646",
"0X c #265658",
"qX c #2D4F55",
"wX c #186950",
"eX c #266345",
"rX c #286557",
"tX c #316B4F",
"yX c #175763",
"uX c #245765",
"iX c #2F4866",
"pX c #106D6C",
"aX c #266468",
"sX c #2D6F75",
"dX c #505148",
"fX c #71484D",
"gX c #526F48",
"hX c #6E6F4A",
"jX c #554972",
"kX c #704768",
"lX c #717564",
"zX c #842A30",
"xX c #893650",
"cX c #893B67",
"vX c #8F4A52",
"bX c #904A6F",
"nX c #BA6B6F",
"mX c #9C615C",
"MX c #C26D74",
"NX c #21992E",
"BX c #718738",
"VX c #55822C",
"CX c #299156",
"ZX c #2AAB56",
"AX c #6E8F49",
"SX c #6D9F59",
"DX c #34CD5A",
"FX c #8D9152",
"GX c #8BAA59",
"HX c #98C972",
"JX c #97558F",
"KX c #CF6E8E",
"LX c #2C8787",
"PX c #25A69B",
"IX c #1D9A91",
"UX c #D097A5",
/* pixels */
"9XV.iXN ; = ~ ; ( 9Xz.X &.` *.*.n.tX9Xv.*.&./ / 1XCX_.(.^./ 4X6X^./.1Xv.1X+.Q.| ` 0 eXl.3X^ = ; ; ^ &.#.+.} { O.1.* / &.n.tXb.qX",
"9Xb.- # ~ q ) ; * ( b.b.' ` @.n.n.v.2X+.o.2X1X= 8X6Xv.2X+.( 4X7X7X} 6X1X( +.@.( @.b.eX0 z.2Xb.v.0 &.*.b.&.*./ ; ; q ; ` e l.tXn.",
"*.] ; - = = ) = * 0 tXn.l.0 l.v.8X^ q / *.( 3Xv.8X+.` 8X1X&._...&.~ 7Xv.q 3X2Xn.o l.z.e l.l.eXn.tXx.^ ; = ) 5 q = o ] ' r l.wXCX",
"X @.b.5 q e 0 5 q 9Xv.e 0 m.tX8XwX7X- l o.@.l.wX8X8XwX0Xv.( k / @.&.rX' #.v.e ' l.n.0 0 ' 6 d.S.S.d.= - - = Z.z.) q ~ ' l.m.x.S.",
"e 5 d.x.d.r x.l.eXl.e 8Xv.3X' @.^ ` b.o *.` l.CXZXpXv.~ s x c / ( 9XeXn.v.^ ^ l.eX' q 0 ^ l.8XS.S.d.* k - 0 m.r ; _ o.V.wXS.d.l.",
"D.r d.S.x.NXNXZXwXe l.q #.' = ; ~ ^ ) ' 5 l.x.ZXZXm.0 / d s k l ( l.5 n.' ' b.e r 3X5 ' n.r v.l.S.c.@ - * #.D.e ) l = b.n.r x.n.",
"D.D.x.S.k.NXDXZXk.x.' e #.o v @ * = = r d.D.x.x.eXm.q o._ v c ; 0 9Xz.D.t ' ' 5 e D.r 9Xn.8 n.l.d.n.9X` 6 eXn.l.~ @.tXf.r 6 5 M.",
"g.g.g.g.NXZXDXNXCXS.l.z.8 o _ : > q q 6 S.D.d.d.r tXq   o q ] q 5 V.5 f.V.f.z.t Z.e r n.8 r n.0 e ^ e r d.c.8 z.e l.c.d.6 6 q ;.",
"c.F.g.8 k.DXNXNXD.8 A.c.g.8 q O _ ; t z.f.8 f.z.5 t z.t 6 X   6 8 B.8 6 6 F.B.A.q 0 X l.Z.Z.V.~ *.` c.c.d.z.V.A.Y.Y.8 r t 7 M.6 ",
"j.g.z.d.g.NXNXk.g.8 f.d.f.D.5 X : w i t t 6 6 tXV.q h.Y.gXB.B.u u Y.6 t 8 T.h.7 V.) 0 t 9Xz.0 o.~ ] tXZ.5 5 t h.AXT.t ] t A.A.h.",
"F.B.5 V.j.F.g.F.e ;.] 6 X X z._ 1.o X p M.7 6 t A.q M.A.t B.R.Y.G.hXX   5 M.Y.p t C.C.gXgX0 ) * ; ] ) ] t t 6 J.SXT.j.t r 6 j.F.",
"j.j.9 f.T.VXg.j.q *.q 6 q ] 5 q p u M.t M.p i 7 B.M.A.6 t 7 u u u j.7 6 X t z.X O O h.gXB.] ] ;.t qXC.t ;.X p J.VXu 7 6 8 8 T.j.",
"SXBXg.Y.AXg.g.j.9 8 M.X 7 gXC.;.Y.R.6 7 w P.N.y Y.N.;.t z.X u y H.G.H.J.9 Y.;.X 7 G.R.J.j.N.7 N.w 1.dX9 K.7 u T.9 G.B.M.h.h.B.9 ",
"J.j.j.T.J.VXBXSXT.j.T.M.N.L.1.o hXY.9 t h.:.y P.7 O   ;.p p C.p G.R.FXJ.G.T.h.p J.hXH.j.H.j.h.7 i P.P.B.K.N.R.u u h.7 9 SXhXj.h.",
"B.g.j.J.VXBXHXHXSXVXAXVXt X     X gXN.:.y L.w p p p 7 h.gXL.7   X p BXBXBXG.7 t p j.j.J.j.u G.B.6 o ;.h.9 7 P.6 N.9 7 :.i ;.9 T.",
"B.B.T.F.j.g.g.g.J.SXAX8 6 _ ;.=.6 p gXh.O 7 t ;.t t 9 gXdX  > > : O u FXj.H.G.N.p p y R.BXGXmXu O p w O :.dX7 p p i C.w > + 7 j.",
"9 K.C.7 q q ] z.8 gXgX7 V.*.V.1.1.C.B.gX;.w t N.B.P.=.1._   m m : i y R.a u Y.7 6 p H.FXFXJ.R.G.y a 2 2 1.=.:.I.O p _ : @ # * : ",
"-.SXw _ # v { O._ ;.a u ;.V._ _ v ] t gX] ] dXgXP.C.o =.:   _ # : o . i O a I.u =.B.mXH.y y y R.J.i i u.o   O I.:.L.;.  : + * ) ",
"hXa X o.k s s z v w I.:.*.; l l v q B.M.5 5 t ;.C.a w 1.w * v - @ * o :.O O u a L.L.O   2 O o a R.y O dX  > O O I.lXw * # : q * ",
"fXe.  ;.B s s s : & hX:.m ) : _ _ > L.N.X > > dXL.u.u.> ;._ * * - *   :.  . a mXa .   o @ @   O I.e.i L.:   O i i u.=.* : > > ] ",
"w.hX4 4.> # d x > a vXe.y e.mXmXu.> :.e.2 <.y.MXy.y.fX& : ;.=.: + =.2 1.u.2 U.4.    : @ s s $   y.U.2 =.=.=.1.e.4.y.q.4.-.-.e.U.",
"3.a.U.a.q.H m : . fXy.4.4.R.UXFXfXJ fXdX<.-.u.fXzXa.fX$X> : -.u.H m =.<.-.4 4.fX3 . : $ $ d C + -.q.=.> : H 2 , q.p.4 4.q.U.mXvX",
"a.mXnXmXp.3.4 . 3 y.. 4 a.MXnXvXfXfXw.w.< 1 i.i.MXMXxX8.q.2 4 p.. w > & . . 2 -.dX2 : d m : U > 4 -.-.-.: & 3 q.3 e.4.4 s.U.U.a.",
"s.s.zXvXmXvXU.u.p.4 q.a vXvXs.vX=X6.6.3 6.5.9.0.MXKXbX1 1 p.w.p.H > : m 2 -.m & 3 -.H f J -.q.u.3 -.H Z F > $Xw.4 q.3 3.a.a.s.H.",
"xXs.s.w.zXa., , 2.s.a.w.t.< 3.$X$X, q.4 @X=X6.9.vXnXxXi.i.s.0.i.w.+ : H 2 H _ : E , E J w.xXvXw.q.<.3 H J $XxX2.2.p.fXq., . w.9.",
"a.s.w.2.2.2.6.w.vXxX=X=X2 & -.r.J r.y.i.2.1 <.J cXxXxXi.vXi.xXi.7.2 & H 2 : $ C u.H < 3 fXvXmXi.3 J 1 t.3 1 i.bXxXp.r., & G J @X",
"r.7.-X=X1 3 1 -XzXxX5.6.& @ E G D =X=Xw.5.5.& G :X0.2.2.2.-XfXt.r.Y & -.2 + f T Y J 9.t.w.3.t.J <.< < J & < @XmX-Xt.> + < ! 8.@X",
"|.D 0.a.8.r.t.-X-X0.D W ,.: <.$X9.0.-X5.8.-XG G 0.,XvX:X5.2.6.5.J D r.$X-.& j j Z <.@X=X4 < Z & F <.! 7.-.r.vX:X6.J Z > J 7.7.S ",
"m ! xXzXxX5.i.2.J < A |.|.% G kXbXcX:X9.OX@XD 9.i.bX@XQ J L =X5.9.D 5.7.7.r.Z I E -.Q L R E A g I R OX9.7.+X=XJ r.r.! 1 r.t.5.9.",
"& D xXxXcX:X,Xt.J J $ b |.F < 5.zXKXbX:XOX:X7.:X:X8.< A L 7.8.:XcXcX;X;XR +X+XG Z Z Q g g A I G W S ,X8.< G S r.>.H ! @X$X9.D 8.",
"J D cXvX8.E.S R J 7.& & <.& S :XcX,X:X8.2.:X@XL cX;XL ! %X9.%X8.:XbX%X7.R +X7.Q Z & Y Y g g W G R J $XJ H & j G n d Z +X& & ! r.",
"@X1 :X8.S M h A r.! J & H H J 9.5.5.:XoXD +XQ S S 5.$X;X%X%X7.7.7.D kX@XK I R E <.>.G ,.Y I E r.D 6.r.< U % S Q n n #X,.n f F < ",
"L @Xr.G n f $ % >.F g Y #X#Xf Z A G +X+XA g n % g % F ,.I I D +XG % S kX+XG g f m W *X+X! }.A % 9.8.Q % n #X+X,XW #X|.b n >.g F ",
"+Xr.W g % f n U Y + g n ,.+Xn $ d + W |.h n $ m n $ % Y P I D I g m % S +Xg + f m g Z J ! Q Z + D ;XR ,.h M R L R +X  m f ,.h ,.",
"Y & F G n H I <.r.A E.Y W <.F n U F ,.=.n ,.n + g F W |.#XR Q E $ m % % 7.L G S Z <.Y J +X@XD S 9.7.% % f j L Q E G + + j K E.T ",
"b f Y Y |..X|.E.oX}.Z % I G g g Y U b $ % Y +X<.|.}.Q R *X7.I <.+ > g G L ! 7.S W & & F G D oX:X;XD W W A }.E.Q +X< + % S +XR S ",
"x f U n >.f + A W +XW + G ! D +XZ g f f g P r.+XS A D S +X! S W E <.g F % g G G g + + & j L E.%X;X*XE.}.L oXL R D 7.OXoX%XoXL OX",
"m C F Y |.,.U I +XA W F &X*X%X,XQ Y n d g Y E.*X+XQ 7.L 7.7.j % $Xr.H m f g I <.A + f $ j E.oXL OXE.S K ! oX< Z oX,X! E.7.%X%X,X",
"g Y ! *X,.g Z ,.+XW F >.,.% W A &X<.>.Y ,.F % A E.Q Q G < S A Z G G >.>.>.F W R @XG + + h oXOX,X,XOXM d <.}.% Y W R W.M oX%X,XcX",
"R R & R F ,.|.U }.g h $ + P n g Z E F G ,.T F % Z I E *X&X+XA % % >.>.>.>.n K L +XE.I K W *X,XJXcXJX&X{.h |.b b Y j M K E.%XJXUX",
"Q <.G g f >.dXC f f f Y F <.|.% h + R &X}.T I h A |.}.j f |.I }.E U >.C V d W.M E.|.T K E.OX%X,XJXOXK {.}.|.{.m A I M M R OXJXJX",
"G Q f % @ s U .XU $ n T A +X>.f d + + }.&XT U P W.I h x $ # Y U ,.g C >.d M XXW.M W.M M E.E.,XJX,XOXM j W E n C n h j M K %X,X%X",
"Y % $ v m # U ,.M |.M j K U x k v + $ >.+XW.W |.T j M s x v d U F K {.W.W.W.XXE.E.|.}.E.E.oXJX,XOXM d h h K >.x C T C M j W.W.M ",
"$ b m C v b b |.W.W.|.M h C s z k $ $ |.{.P T C d d x z C v k m P W.W.h E.>XkX>X>X|.E.W.M E.JX>X{.M b b U U |.O.{.{.M j M M d z ",
"- k x x c O.x b C M ~.XX.XXXC V k s x C U C M C C C x x s # # x C B {.C M >X>X&XW.d C C M E.>XoXM j d d O.f b O.d ~.V C W.d d x ",
"B s { z k z B x M V V XX>XjXC d B $ O.s d O.C {.C .XC C x k x z ~.C ~.C C ~.XXC M V V  .C W.E.oXM d x C x x C C d M V ~.M M b $ ",
"o.O.z s z B N ~.~.V V iXXXjX>Xd b b C B V B ~.V ~.~. XC C {.x C C # s z ~.~.M C V V d  .~.V M XXC s d s z V V C V V ~.XXC d s s ",
"z x x x  X]. .N ~.V ~.XXiXiX.X~.O.{.z s N [.~.~.~.s z C C B  XC {.# z N |  . .V d V V  .V !.V V B k O.{ V  .V V ~.V N C  Xx $ k ",
"k k ~.]. .k N {  .B V [.[.iXV V z z z  .`.`. .O.C x O.V s z  X~.V s z ~.!.V [.[.`.B V x z  .B z O.{ { O.[ c c N | N Q.N ]. X~.z ",
"s N O.c s s | [.[.N Q.`.~.N s Q.[ z z  .~.].c  .z # x B  .N ].Q.].`.Q.V V V 4X!.z x B s z c { | [ k  XX.k k / [ | [ [ '.~.~.~.z ",
"c B B s  .Q.Q. .V qXQ._._.5XV [ %.z k B B ].{ { s x s s ].....].| N ~.z  .[.[.V Q.N  . .`.[ ^...c z  .`.[ ..| yX5X[.Q.z z Q. .V ",
" . .s s  .'.`.[ | [.N c ).).4X/.^.].~.z k `.%.X.s z z z $...%.X.{ c ~.V V Q._._.4X_.[ z ^._.5X..[ X.k  .N !./.aXyX_...Q.| !.~.z ",
"1X'.].O.X.X.../ Q.z k !.4X6XpX_.[ 5X .l ..'.[.Q.s s z k <X2X} { k [ X.'.!.!.pX6XpX4X..!.).).<X| [ `.Q.N | 5XsXLX7X4X5X| V 5XN z ",
"5X2X`.O.z l $.^.`.c Q.[ 4XsXLX4X5X2X{ | | !._.N Q.N Q.`.'._.X.c { z [ uXuX6XpXpXIXLXsX5X!..._.!._.].Q.V N _.4XyXyX<X[ z z ^.[.`.",
"z { c  .c c &.(...X.$./.4XpX4XyX5X&./.5X[ N [.5X5X5X[.[.].v { { X.k [ <XsX6XIXPXPXIX6X/...| Q.Q._.).!.!.!._.!././.!.'.| ..(.5X| ",
"B { - c { |  .`.'.} 4X1XaX..[ ).1X1X$.)._.!.!.yXiX5X[.[.{ s ].{ v O.[ ../.$.6XPXPXpX6X/.|  .Q._.5X).^.].].!.4X^.z 5X[ | 0X(.^.<X",
"l l %.- l  Xx k  X&.(.uX/ k v l } <X$.1X_...!.V !.5X[.!.N z z z { k z ..[ } 1XpXLXpX1X[ # | `.'.uX4X<X| !.).4X_.c 5X| 0X`.( _./ ",
"aX1X} %./ l { l `.(.1X%.# O.v # 5X$.4XsX<X^.!.N uX5XyXz z '.[ $ s @ ....c ..4X/.6XpX#.} / X.c '.sX0X_.[ _.5X<X7X0X'.X.5X/ %.; / ",
"*.qX'.; ( ~ - ( aXsX5X; k # k / } 0X..# uX'.| '.sX_.5Xz # ).!.| l [ <X..N ..<X1X$.1X(.%.{ %.].%.'./ k / ).7X1X<X0X(.2X/ { o.l ) ",
"*.v +.&.- ( 7X&.8XwX* l @ # l +.(.2Xl %.`.5X'.'.!.sX/...<X<X<XyX7XaXaX7X5X).<X7X(.1X@.) @.l / %.%.l l / <X$.$.(.- _.2Xl ( ) @ - ",
"2X2Xv.v.7XrXrX#.1X&.` ~ ; ~ ~ ; ( 2X} 2X[.%./ (.[.N 1XLXsX4XuX/.6X7X6X6XuX<XyXaX<X2X2X2X*./ ; - / ) l ~ 0X$.&.(.} o.2X0 2X*.o @ ",
"*.#.3XaX2X; ; *.b.0X@.~ ( 2X*.@.+.2X2X&./ - ( ~ ).^.yX6X/ / 5X/.4X1X} +.7X<X1X+.} * ` ` ` 0 o.v ) o.~ +.2X( ( ~ o.o.( 1X^ @.~ ) ",
"@.3XrX~ ; ) ; = *.0X` * @.o.*.*.0XrX3X1X@.@.; ; 6XsX/.&./.| 4X4X$.1X<X1X<X$.} #.( 0 2X#.wX0 * * ; ) @.&.^ ~ o.*.*.l q &.v.3X9X_ ",
"aX*.- - v v _ - * #.0X3X^ %.1.2X3X1X3Xv.` 2Xo.= 1XwX1X4X$.^.1XaX5X$.5X<X..$.} ~ @.b.rX` v.b.*._ ; o.b.+.2X*.; l _ @ ^ ^ ` 8X3XdX"
};
