/* XPM */
static char *_4cb9e34b7174f1fa28fc585849c8b5eTKu04xnZjCFgcSTt[] = {
/* columns rows colors chars-per-pixel */
"64 64 248 2 ",
"   c #000D03",
".  c #001206",
"X  c #01150B",
"o  c #011C0C",
"O  c #001B05",
"+  c #011C12",
"@  c #031C17",
"#  c #01230D",
"$  c #002A0E",
"%  c #012313",
"&  c #012B14",
"*  c #01241B",
"=  c #022C1B",
"-  c #092716",
";  c #013315",
":  c #013916",
">  c #01341C",
",  c #023B1C",
"<  c #093319",
"1  c #012C23",
"2  c #072A24",
"3  c #023324",
"4  c #013B24",
"5  c #02352A",
"6  c #023B2C",
"7  c #0A3628",
"8  c #013D33",
"9  c #043B34",
"0  c #01431E",
"q  c #004B1F",
"w  c #014324",
"e  c #014B24",
"r  c #02432B",
"t  c #014B2C",
"y  c #09462A",
"u  c #015326",
"i  c #02542C",
"p  c #025A2C",
"a  c #0A5B2D",
"s  c #024333",
"d  c #014B33",
"f  c #01443B",
"g  c #024C3C",
"h  c #094836",
"j  c #025334",
"k  c #035C33",
"l  c #02543B",
"z  c #025B3C",
"x  c #0A5C3B",
"c  c #095935",
"v  c #19432F",
"b  c #056234",
"n  c #0B6334",
"m  c #0C653A",
"M  c #0B6B3B",
"N  c #066839",
"B  c #126B3C",
"V  c #0D723D",
"C  c #096A36",
"Z  c #024C42",
"A  c #054944",
"S  c #025343",
"D  c #025C43",
"F  c #02554A",
"G  c #025C4C",
"H  c #085949",
"J  c #035D52",
"K  c #075D56",
"L  c #15564D",
"P  c #026243",
"I  c #0A6444",
"U  c #03634B",
"Y  c #056B4C",
"T  c #0A6D4A",
"R  c #086846",
"E  c #0A724B",
"W  c #0D7B4B",
"Q  c #0A7447",
"!  c #147545",
"~  c #137B4B",
"^  c #147A48",
"/  c #026454",
"(  c #036B53",
")  c #0A6E53",
"_  c #036B5B",
"`  c #086758",
"'  c #057354",
"]  c #0B7353",
"[  c #03735B",
"{  c #0A745B",
"}  c #0B7C5C",
"|  c #0A7B56",
" . c #127A56",
".. c #136B4C",
"X. c #006C65",
"o. c #047463",
"O. c #047B64",
"+. c #0B7B63",
"@. c #057B6B",
"#. c #0B7D6C",
"$. c #097565",
"%. c #147A65",
"&. c #047D74",
"*. c #207862",
"=. c #14824B",
"-. c #1A844C",
";. c #0D835B",
":. c #0A8557",
">. c #138354",
",. c #1C8B53",
"<. c #148B5D",
"1. c #188659",
"2. c #1D9359",
"3. c #0E804D",
"4. c #21844E",
"5. c #228B55",
"6. c #24945A",
"7. c #25955A",
"8. c #0D8464",
"9. c #0B836C",
"0. c #098668",
"q. c #138A65",
"w. c #138C6B",
"e. c #138565",
"r. c #1A9365",
"t. c #15946D",
"y. c #1E9C6C",
"u. c #1B9668",
"i. c #0B8572",
"p. c #0C8B74",
"a. c #0C8B79",
"s. c #078978",
"d. c #138C73",
"f. c #138A77",
"g. c #0C927C",
"h. c #149374",
"j. c #1A9573",
"k. c #1B9C74",
"l. c #14947C",
"z. c #179A7A",
"x. c #269B62",
"c. c #229B6C",
"v. c #289963",
"b. c #289E6F",
"n. c #1AA37B",
"m. c #2CA265",
"M. c #24A26E",
"N. c #2CA76B",
"B. c #33A96C",
"V. c #23A47B",
"C. c #27A776",
"Z. c #2CB37C",
"A. c #39B678",
"S. c #35AF74",
"D. c #0D8E86",
"F. c #0D9787",
"G. c #149A83",
"H. c #169B88",
"J. c #169F98",
"K. c #259A84",
"L. c #14A38C",
"P. c #1BA48C",
"I. c #1CA688",
"U. c #1CAB94",
"Y. c #18A897",
"T. c #1BB59A",
"R. c #23AA87",
"E. c #2AB688",
"W. c #36BB87",
"Q. c #22AD97",
"!. c #23B49C",
"~. c #29BA97",
"^. c #36BE92",
"/. c #1CB5A3",
"(. c #1DBBA7",
"). c #1CB6AD",
"_. c #23BCA3",
"`. c #24B9A8",
"'. c #20BCB1",
"]. c #3AC28B",
"[. c #2AC399",
"{. c #36C797",
"}. c #1FCAB3",
"|. c #1DC2A8",
" X c #24C3AC",
".X c #28C7A9",
"XX c #35CDA7",
"oX c #3CD4A3",
"OX c #38D7AA",
"+X c #2BCAB3",
"@X c #25C9B7",
"#X c #2CD3BC",
"$X c #29D5BD",
"%X c #33D7BB",
"&X c #2FCDB4",
"*X c #3CE6BC",
"=X c #46C786",
"-X c #54DA94",
";X c #49D392",
":X c #43D7A6",
">X c #52D9A1",
",X c #48E3AE",
"<X c #47E6B7",
"1X c #52EBBB",
"2X c #53ECB6",
"3X c #64EFA5",
"4X c #5CE59D",
"5X c #2BDAC5",
"6X c #33DBC3",
"7X c #34DCC9",
"8X c #34E3CB",
"9X c #3AE5C9",
"0X c #39EAD5",
"qX c #3CF2D8",
"wX c #2DE4CE",
"eX c #39F5E3",
"rX c #44EBC6",
"tX c #4AF3C7",
"yX c #56F7C8",
"uX c #41EFDB",
"iX c #42F3DB",
"pX c #48F6DA",
"aX c #57FCD8",
"sX c #58ECCB",
"dX c #63FCDE",
"fX c #46FCE2",
"gX c #4BFCEC",
"hX c #47F7E6",
"jX c #57FCEA",
"kX c #4BFFF4",
"lX c #53FDF4",
"zX c #5CFEF4",
"xX c #5CFEFA",
"cX c #54FEF9",
"vX c #43EFE2",
"bX c #66FDE9",
"nX c #73FDEB",
"mX c #63FFFB",
"MX c #67FFF7",
"NX c #73FEFC",
"BX c #7BFFFD",
"VX c #75FAF3",
"CX c #84FDFD",
"ZX c #8BFEFE",
"AX c #89FCF5",
"SX c #92FEFE",
"DX c #9BFFFF",
"FX c #A4FEFD",
/* pixels */
"6 d S ( 8.O.[ 0.w.h.z.j.+.+./ S 9 1 * * @ 1 2 1 1 5 9 5 5 5 5 9 3 3 4 4 4 > 4 w 4 , , < $ ; < $ ; , 0 q a a e e t q , , > > & & ",
"> t D ( #.d.0.d.w.p.p.z.w.9.[ Z 5 1 @ @ + + 1 1 5 1 1 5 5 1 1 1 = = = = 4 y r e , , 4 , ; ; : : : e u p n n a i t e e w , > & & ",
"3 c ..` [ 8.8.w.t.z.z.R.R.z.9.G 9 1 2 2 @ @ @ 1 1 2 2 1 5 5 2 @ - + o & > 4 w w w 0 , 0 0 : : : q a c a C B C p p k i w , > > & ",
"> r l D U [ } } w.k.n.[.oXXXR._ g 9 5 7 2 1 2 1 5 * @ 2 5 1 1 @ @ + + + = > , 4 , 0 0 0 w q q e C M C C C V -.V M M c e > , > > ",
"4 4 s l / { } +.w.R.E.:X<X<XOXg.( g s 6 5 3 5 6 5 * @ @ 1 1 @ X X o + o % & > 7 ; w y w w q p n C C C C C V -.=.=.^ m i w , , > ",
"w 4 r S ' [ [ e.n.^.XX:XXXOXOX~.e./ l h 6 6 8 s 1 @ @ @ 2 1 1 + + + o % % & > < > w e q u a k M B n B B V V ,.7.1.~ m i e , , 4 ",
"t r r z e.z.j.V.^.[.[.E.I.[.~.R.8.U S 9 5 6 8 6 * @ + @ 1 2 1 @ + % % & & = > > > , , 0 u B Q p b p n a u a V 4.^ ! N i e w w e ",
"t i h S } h.n.E.oXoX:X{.V.E.z.w.( z g r 5 9 s 8 * * * 1 @ @ @ + + + * = & & & > < , 4 w i ! ! b p u u u q q u a k b k p i e e w ",
"j l l ..%.) k.{.oX1X,XoXn.n.k.0.{ U D f s 8 6 5 1 5 1 1 = * * % + X o & & & & , w t e j m k k p u a a q 0 0 q e u i u u 0 y e k ",
"j l l I *.Y w.E.<X1X,XoXy.t.t.t.} ( H d 5 6 6 6 5 7 1 * * * * * + o o % > ; > w l x n c k i i i u q q : : : : : e 0 0 , , w y j ",
"j j z D H z ' R.<X<XoX{.V.V.k.q.} ( G l s 6 5 1 3 1 = @ * * = = % o o & , > , t z b b p p k k a a u 0 0 : : < 0 q , ; < ; , w t ",
"t j z l D l D j.,X1X,X{.Z.n.t.0.O.' ' I l r 1 1 1 1 * * 1 = = = & # % ; , 0 e b W M Q M b m a i q 0 0 0 < ; : : , : < ; ; 0 w y ",
"r r j j l l z 1.:XyX,X].V.j.8.t.h.8.] U g s 5 3 5 5 1 1 7 3 > > ; = < 0 e e k ^ v.2.7.5.! B u e 0 ; ; : ; $ ; $ : : & ; 0 u c t ",
"4 4 r d d l z  .W.,XoXE.E.j.8.e.w.| Y D d d s 8 9 9 5 9 6 5 3 4 w > > 0 e u N >.m.v.m.6.V p e q : : : < : ; ; ; : $ ; ; w x x j ",
"3 4 4 t r j z Y u.{.:XE.V.e.[ +.{ P l d s h s s A 9 9 9 6 5 7 6 e 0 , q u p M ,.N.A.A.m.^ p u e , ; : : : ; : : < $ ; ; w t j z ",
"7 3 3 y 4 t z Y ;.C.E.E.n.w.} { { z s 4 4 s s f Z Z 9 9 6 5 4 r i w 0 e k B ^ v.A.-X-X=XB.,.V a e q 0 : ; < ; $ - $ ; , , , t z ",
"w 4 4 r d j z x | q.V.R.j.;.Y D l d 5 5 6 9 6 9 F S Z f 7 3 > > t w w p b ^ v.N.-X3X3X-X=XA.7.V b p e 0 : < ; ; $ ; , , 4 y t z ",
"r > 3 y h t r t Y ;.V.V.8.Y D l d 6 4 5 6 6 9 s Z F Z Z 8 > > & > , e n V 5.A.=X4X3X-X-X=XA.m.5.-.M a w , : & $ $ $ > w 4 r t j ",
"3 = = 4 y r 4 r d D  .q.} Y l d 6 3 4 6 5 s f d A S F S s = & & & 4 e k ! 7.=X;X-X=XA.B.A.m.7.7.,.^ b p , ; $ $ # $ > 4 4 4 r t ",
"< = & = 3 6 w 4 4 r z ] | Y z d 4 4 6 y 6 s f s A A S F s 3 = & = 4 w p N 2.A.=XA.B.m.m.7.7.7.7.=.=.! n q : ; $ # # & , > > 3 3 ",
"= % # - > y 6 , 4 w z ] ( N d t r 6 6 s 6 6 h 8 9 Z Z Z f 4 < = > r i N W r.N.N.m.7.B.m.7.,.5.,.4.4.-.B u 0 , - # o # = = & = = ",
"% o o % > 4 4 r w t l I D g s 6 r r s r 6 s f s 9 g Z S g 6 5 > w c m T 1.2.6.1.-.-.m.m.7.=.=.=.-.4.4.C a q , ; # # # % % & = = ",
"= - % % % % % = > > 4 d d h 6 7 s s s 6 8 d g f A Z S F S d d r t c l m E  .>.3.=.=.7.B.m.2.,.-.-.-.-.^ b e , ; % # + o # % = - ",
"# & - + O o o o X O & 3 4 4 6 6 8 h h 6 s g Z Z Z D G ` U z l j q t w t b R Q 3.V =.x.m.B.B.7.4.x.7.2.2.^ n , $ & % - X o % * + ",
"+ + + + X X X + + X = 3 r s s d r l g g g S S F H G G U I S y r > , w t t x m Y 3.W ^ 5.5.m.m.m.S.6.^ ^ -.! i , , 3 > > % % % = ",
"= - + X X X X X X * = = 3 5 h l s l S S S F F D F F F D S t 4 w 4 4 w w t l b Q ^  .>.^ M ,.m.B.B.,.V M R k t t y w 4 3 3 1 = = ",
"= + X X X X X X + 3 3 3 2 * h g s g H F Z F D F S F F D l w w r w r t t t c j R I Q 4.1.W W -.,.6.^ n m k i e k j r , 3 1 = = = ",
"* = * % + + + + 3 6 4 3 1 1 8 s 9 f S S g g S Z g F K F h w y h w t j j j z b E ~ Q  .1.1.W N M ^ V k k j i t i k t 4 = * % % * ",
"= 1 3 2 = = % * 6 6 6 5 6 s 9 9 9 s g g f f Z Z F G D Z d t t t r j z N N R Q 1.v.>.:.r.x.~ m m V N k t t i j j z c r 3 1 1 3 = ",
"> 3 3 3 7 3 3 3 r 6 h A S F 9 5 9 9 f f g g F F G / / F g d t r w j Y E '  .>.<.r.c.C.M.c.>.R m N b k z j j c l j t 6 5 r h 6 3 ",
"7 5 3 4 3 4 3 3 6 s 9 A Z Z f 9 9 f g S F G / / ( ` $.( P l t s r j R ] >.r.<.r.q.M.Z.y.u.;.>.~ E W W E I I z j r 4 3 4 s r 5 3 ",
"1 1 3 5 5 6 6 6 y h 9 9 9 9 f f Z S F U ` $._ o._ [ $.$.( z d j s k N E ;.c.c.c.x.S.W.M.C.M.C.C.y.C.M.;.] ~ I e 7 = * 7 6 3 1 2 ",
"* 1 5 6 s s s g L h 3 1 7 9 s g S F G { 9.o.o._ _ @.9.@.[ ( D j j D  .] ;.M.c.M.N.].].M.Z.].^.M.y.y.c.<.:.| z r 4 5 3 8 6 1 7 2 ",
"1 3 5 g S d s s 1 3 5 6 6 s g D U ( [ 9.p.#.@.o.@.i.f.l.j.8.P l I R  .:.M.W.Z.N.E.>X].x.M.Z.C.y.u.y.C.r.;.] l r 6 r 8 l g 8 5 5 ",
"9 3 d U R l s 6 3 6 s h s Z ( %.O.i.p.l.l.d.w.w.a.a.g.z.I.t.;.' ' :.u.y.W.].Z.Z.].;XM.c.x.c.u.V.u.c.M.1.T I s w r r d H ` D g s ",
"g g D ] ( S d s g d g S Z U +.p.g.l.G.l.z.z.I.I.P.I.g.n.I.n.t.j.y.C.E.E.{.].Z.W.:XE.u.r.1.;.<.r.<.r.q.' c t w e d l U { +.{ G D ",
"U [ 8.%.( U G S H S D ` / o.p.G.I.U.P.Q.~.[.XX.XQ.R.I.I.~.~.R.n.E.W.].W.].E.C.W.{.Z.r. .Y Y 1.}  .| E z w w t j z U } 8.O.O.` / ",
"O.l.G.w.#.} [ _ ( ( ( $.o.9.G.U.U.~..XOX%XrXrX9X.X~.[.XX<X<X:X{.[.{.[.{.].Z.C.W.E.V.q.Y P z Y ] T E R j r w t j P ] 8.8.0.8.%.{ ",
"i.P.Q.I.I.p.@.#.@.0.O.$.@.s.H.`.|..X%XiXaXjXbXaXrX&XXX%X<XtXtX<X{.oX:X:X{.Z.M.V.V.u.} ) P k N Y R I z d r 6 t t P ] 1.w.d.j.R.9.",
"a.R.T.!. XL.i.f.G.l.s.s.a.H.U.&X%XrXpXjXMXNXBXAXjXtX<XtX*XrXyXyX<X<X2X:X{.n.t.t.r.;.]  .z R  .I z z i t t t t d l D ] w.w.z.R.p.",
"I.I.!.!.U.L.G.d.F.H.F.G.H.Y.'.#X%X9XiXjXNXCXDXFXSXAXbXbXaXaXaXdXyXyXtX2X^.R.Z.<.} { ) U P Y I j j j i t r r 6 t l U } 8.d.l.z.G.",
"I.F.F.P.L.P.L.L.H.Y.Y.Y.Y./.`.5X%X9XiXjXBXZXFXFXSXSXDXDXAXVXbXbXyX1XtX1X:XE.k.} ' ( U D P z z t j t t r r 4 r s l E 8.h.z.z.h.h.",
"U.n.L.Q._. X@X}./.'.'.'.@X'.}.}.8XqXjXmXNXZXFXFXZXSXDXFXSXCXNXMXnXaXaXyX,X~.h.+.U G D D P D j t y r w 4 w 4 6 d U { w.j.V.h.9.p.",
"U.U.T.+X%X8X8X9XrX7X#X5X@X}.5X5XqXlXmXMXxXNXSXFXZXZXCXCXCXBXBXNXNXnXdXyX<X[.j.+.Y P S D ) R l j r w w r w 6 r d Y } 8.0.d.8.O.p.",
"U.T..X$X8XiXpXzXzXvX5X5XwX8XeXhXkXxXmXxXlXxXNXZXZXCXBXNXMXnXMXVXVXBXnXdX1X{.V.8.' P l G ] Y z l r w w w 6 r r d U ( [ [ #.O.O.j.",
"U._.}.5XqXgXMXMXlXgXvXgXcXgXgXkXxXcXcXcXlXxXzXzXMXMXjXjXjXpXaXaXVXCXBXnX1XE.c.;.] G l D Y Y z g r r r 4 4 4 r d S U ( ( $.{ @.f.",
"I.(. X6XiXhXjXzXxXcXlXxXxXlXkXkXmXcXgXgXgXjXgXiXfXiX6X6X9X%X9XtXaXnXVXbXOXt.:.[ U D D D U U z d r r 4 4 3 > 3 8 d S G U _ o.9.p.",
"U. X+X%XrXqXiXkXlXxXxXmXxXlXgXkXxXlXfXfXvXfXiX9X9XrX+X.X[.T.OXrX*XyXnXsX[.y.| ( P D H G S z l r r 4 4 4 3 = = 1 6 g Z S J $.i.l.",
"U./. X#X6X9XiXpXgXlXxXmXhX0XeXgXvXeX7X7X7X6X8X%X$X%X|.T.P.U.T.XX.X[.<X<XE.0.+.' P P P D z j r 4 4 4 3 = = * * = 5 4 6 g F / i.G.",
"G.L._.@X6X8XiXfXmXmXmXxXvXwX0XeXwX5X@X5X#X X+X(.(._.T.G.H.P.I.Q.~..XXXXXI.8.| U l D D D l s 6 4 w 4 > = % % = 1 1 5 8 A F _ 9.F.",
"a.H./.@X6X9XiXfXzXzXzXjXeX0X0XeX5X5X@X#X#X X XU.J.Q.Q.g.a.l.d.D.I.~.~.~.I.e. .z l g g d s r r 6 r 4 = % + % * = 1 5 d g F ` @.i.",
"a.P. X6X0XqXqXfXfXhXuX0X0X0X0XwX5X@X@X#X%X+X XY.Y.Y.Q.s.i.f.#.0.p.I.R.I.n.q.) l x h r w 6 6 4 7 4 > = * % + + * 1 5 8 g S J X.#.",
"F.T.&X0XpXiXqXiXwXwX5XwXwXqX0X5X'.'.).'. X X+X X+X_.L.a.f.K.i.i.p.l.R.I.z.0.R l h r 4 4 7 = & = > = & % % + + % 1 5 6 9 f S / @.",
"L. X9X0XpXiX9X8X5X5X'.7XvXfX0X5X/.J.D.D.F.Y.`.+X$X XF.@.$.f.i.G.p.p.R.R.k.q.P t s 4 4 2 = % o = % # + + + + % - * 1 3 5 8 Z J #.",
"Y..X#X8XqXiX8X#X5X'.'.7X0XeX7X'.D.&.X.X.X.o.a.P..X XU.a.$.#.a.H.g.9.z.z.k.;.z r 6 > & & & # % = + o X X o + + % * = * 1 9 g J #.",
"H.Q._.@X9XiX8X5X5X'.'.5X@X}.).J.&.X.` K J J / o.s.H.H.i.&.o.#.l.G.l.#.8.q.] j w > & % % % - % o o X X O o X + + * * + * 1 9 J #.",
"9.P._.&X7X8X6X5X6X'.).Y.).Y.J.D.X.K J A A F F K J G o.#.$.$.$.h.l.+._ } 1.Y d 4 < % % % % % # % -   X . X X . X + % + + 1 5 Z ` ",
"o.G._.#X8X7X&X@X`.).Y.J.D.F.D.&.K F A 9 9 A g Z 9 A H { 9.0.o.o.i.{ ' { ' N r 4 = & % # % < - o .   X X . X X X % * + * * 5 s S ",
"/ 9.`.6X7X@X(./.H.D.F.D.&.D.&.K A f 9 9 A g g s 8 9 f Z ( o.[ ` O._ ( ] Y z w 4 > & & % % % % o o X     X X X   + + + * 3 5 s g ",
"G @.Q.+X@X/.Y.J.J.D.D.s.&.a.&.K 9 9 9 g S F g 9 5 5 s d F U J / 8.' P Y T x r & = & # % o o o # O - @ + + X X X X o % < 7 6 s g ",
"G $.L.T.T.Y.Y.H.H.!.a.&.X.&.$.F A 9 A Z Z g 9 9 5 5 r s s A D / 8.( D P I x w = & & < # O # # O o O + o # - O o O % & = 4 4 8 d ",
"G _ 9.F.F.H.G.G.P.`.g.o.#.$.X.K F g f f f 8 8 8 2 1 3 5 9 h D ( I l d t j i y w < & - % o O O O < # # # 7 v - # % = & > > 3 4 s ",
"S G ( $.9.9.9.9.P.Q.D.o.#.X.X.*.Z f 5 5 5 8 9 f * * 1 8 f A g l s 6 4 4 w t t y y > $ < - O O # # # # # < > & ; & > > & & = 3 r ",
"d l D _ $.o.[ +.s.U.R.f.#.X.K L f 5 1 2 3 9 s f 5 1 5 6 d s 5 2 5 7 3 3 , 4 4 4 e , : < - # # $ $ < < $ , , 0 4 4 , ; & & = 3 4 "
};
