/* XPM */
static char *_281b01b8acd48b08737acb64e5ca842AZEHus4rIGuuX4uz[] = {
/* columns rows colors chars-per-pixel */
"64 60 134 2 ",
"   c None",
".  c #050504",
"X  c #080807",
"o  c #0C0C0B",
"O  c #0F100E",
"+  c #10110E",
"@  c #141412",
"#  c #191715",
"$  c #171814",
"%  c #181917",
"&  c #1C1D1C",
"*  c #1F211D",
"=  c #21211E",
"-  c #2A261F",
";  c #1E1E21",
":  c #242423",
">  c #292624",
",  c #272825",
"<  c #2A2926",
"1  c #27272A",
"2  c #2C2C2B",
"3  c #312A24",
"4  c #312E2D",
"5  c #3C2E2E",
"6  c #2E302E",
"7  c #33312E",
"8  c #3A322E",
"9  c #2E2E30",
"0  c #302F30",
"q  c #2F3030",
"w  c #343232",
"e  c #3B3533",
"r  c #373837",
"t  c #3C3936",
"y  c #363639",
"u  c #393739",
"i  c #37383B",
"p  c #3C3B3B",
"a  c #413633",
"s  c #413A36",
"d  c #4B3B36",
"f  c #423D3C",
"g  c #4E3F3A",
"h  c #45413E",
"j  c #4C433E",
"k  c #3E3E41",
"l  c #413F42",
"z  c #444243",
"x  c #4A4544",
"c  c #4C4846",
"v  c #464548",
"b  c #494749",
"n  c #4C4A4C",
"m  c #524644",
"M  c #594742",
"N  c #544B45",
"B  c #5A4B46",
"V  c #534D4C",
"C  c #5B4E4A",
"Z  c #5B5047",
"A  c #55504F",
"S  c #5A524F",
"D  c #4E4F56",
"F  c #534F51",
"G  c #555152",
"H  c #5A5454",
"J  c #5D5658",
"K  c #5E5B5A",
"L  c #65534C",
"P  c #6C564D",
"I  c #635651",
"U  c #655952",
"Y  c #695C54",
"T  c #625B5B",
"R  c #695E5C",
"E  c #745E54",
"W  c #61605E",
"Q  c #6D615E",
"!  c #71615C",
"~  c #7F665E",
"^  c #625D60",
"/  c #676462",
"(  c #6E6564",
")  c #6C6966",
"_  c #6C6769",
"`  c #6D6C6C",
"'  c #766867",
"]  c #736B69",
"[  c #786C6A",
"{  c #77756F",
"}  c #79706D",
"|  c #777373",
" . c #7C7373",
".. c #7D7A76",
"X. c #7C7C7B",
"o. c #80655A",
"O. c #827574",
"+. c #887C70",
"@. c #847D7B",
"#. c #8F7F79",
"$. c #85837D",
"%. c #8B8483",
"&. c #8E8788",
"*. c #918684",
"=. c #938A86",
"-. c #9B9696",
";. c #9C9C9A",
":. c #9B9A9F",
">. c #A28C82",
",. c #A2A09C",
"<. c #A0A1A2",
"1. c #A5A4A3",
"2. c #AAA7A4",
"3. c #B2B1AE",
"4. c #B2AEB3",
"5. c #B6B3B3",
"6. c #B6B6B2",
"7. c #B4B3B4",
"8. c #BDBBB9",
"9. c gray74",
"0. c #BABCBB",
"q. c #C2BFBF",
"w. c #C0BEC0",
"e. c #C5C3C2",
"r. c #C3C2C6",
"t. c #C9C9C8",
"y. c #CCCCCE",
"u. c #CECECE",
"i. c #CFCED0",
"p. c #CED0D0",
"a. c gray82",
"s. c #D2D2D2",
"d. c #D2D3D2",
"f. c #DFDFDE",
/* pixels */
"                                                                                                                                ",
"                                                                                                                                ",
"                                                                ..%.%.'                                                         ",
"                                                              Q O.=.@.T T                                                       ",
"                                                              Q &.&.[ G K                                                       ",
"                                                              J ' ] R G T                                                       ",
"                                                              f H ( H K G                                                       ",
"                                                                G O.K D z                                                       ",
"                                                                x S V l z h                                                     ",
"                                                                  f V b z 7                                                     ",
"                                                                  2 c K e I Q Z h Y }                         2.                ",
"                                                                  x v _ c ! $.A h >.*.                        3.q.;.            ",
"                                                               .V N v Q K i ! [ V Q +.}                 z :.e.0.$.6.,.          ",
"                                                            | ) H S h / W G x ..Q $ a Y @.              ` q.] K ..9.            ",
"                                                            A H -.H V G A K z N ( N   7 j )           N p.2 = :                 ",
"                                                          W 7 <.K T A c Q H A V j N p 1 < 8 _       N s { 4.3 t                 ",
"                                                    K a.u.r.a.7.K G G l W K c v c B e f 2 & j L V N s w f f x v                 ",
"                                                    w t.i.y.$.7.W x l F x G n n j x < z z > 3 - B Z f e f f 4 B                 ",
"                                                  x @ z a.  f.) 1.r p F 7 n t v h I > h h e < = l g e a s l e V                 ",
"                                                T v + & X.  & 7 $ $ p z $ N A p t t t p p p 7 > 5 5 a B f v t N                 ",
"                                              J c k @ 2   ` 0.: O @ 2 k z , K T e > s % e e 2 , 5 a a Y n e 7 f                 ",
"                                              h f ; & v   ; O o $ % $ v z o p v Z h t e & 9 1 2 5 d f x T 0 t                   ",
"                                              f 1 = y   & . ; O : : $ q l o : 7 V j < 7 2 & 2 s 4 d f K L 4 3                   ",
"                                              p : 0   % X & ; @ 1 , * p p o = h j j < , ; ; 2 t a d D I g 4 >                   ",
"                                            4 i >   & @ @ 2 & @ , 2 4 t z = & 2 l e < $ : @ w x k l T E e 8                     ",
"                                            p < 0   4 . : : ; ; 2 w e u f 2 2 2 , 2 < * % ; y f l J o.P 4 7                     ",
"    w f z t                               y 4 1 w @ o X 1 : ; 2 w f h 7 s p p z e , 2 ; @ & p z n ( o.M 8 7                     ",
"    < : : < <                         v u a 5 0 & & . @ w 1 ; 9 p z c 2 l z G w p t w & @ @ t v F L L a s a                     ",
"          z t h                     p p e 2 f 2 = . . : z 1 ; 2 s x S e i b n y z z 8 : @ @ w m l a j 8 a s                     ",
"          p 6 f                   l w x > t x : o . & f z 2 ; 2 f x G s k v b v i p 7 2 O o $ H < 5 g 4 j e                     ",
"            w 7 s e             p : = 4 f I l 1 . & : m r 2 9 1 j x G j i m x b w w w w + o & 7 8 8 a 8 a 4 1                   ",
"              p 2 w <     p x e & 2 f G R H l O & : l V p w y > l m A H p z z p 1 e y : ; X % : 7 4 4 5 < 7 2                   ",
"                  2 t p > 0 & > w f S ' T V 2 o w 0 x l n 0 i 1 z v c H p f z y 2 t w = < X @ : 2 C e 8 < 2 2 2                 ",
"                      0   9 5 m I '  .H w 2 @ 2 2 f V n b 9 y 2 f l z N t s h w 6 e e 1 = & O : w h e : < 4 4 <                 ",
"                        w x A T O.] h :   @ O 2 w v v C b 1 w 9 x l f x f e h f 7 7 f 2 $ , + : < 7 f < 7 1 < 2 1               ",
"                    f l l A T [ ( l :     o & 2 p z l V b : 9 y z z x f x e h e 4 e p 2 : : = = 2 w f = w < 2 2 ,               ",
"                p p p u e m J T A e         : w z x N V v 2 w k z n x p h 4 f j w s s 1 7 : < * 2 , s > < 2 = < :               ",
"                    4 2 4 V F l v         : < r h x S V z i w i z D z t j 4 a x 4 f j w 2 : , 1 1 2 4 e = 2 1 < :               ",
"                        l G n x         : = 7 w m f S V y k w p c A z t f e 4 x 2 z h y 6 9 : q < 2 1 f w 2 w 1 ,               ",
"                    V z l n           : = 7 7 h j l v n q k w z b F v y e 7 > h 2 t p e 2 2 : w w @ 2 y e = w 2 <               ",
"                            i w 1 2 : = 2 w t j x c b v q y 0 i z b l 6 : 2 : t 2 e w 6 = . & w t , 2 6 7 7 , > ,               ",
"                        y e     w 4 < 2 w w h j f   k z k u 2 2 p l 7 < * , : e 2 2 7 < o . . e y 6 7 2 4 7 & > 2 w             ",
"                                      w 4 w h c k   v k k w     y 6 7 6 : = = 7 < 2 r 6 1 o . % z z t 2 7 <   6 p p             ",
"                                          e z v k v k k z     o r * , < : 1 : 4 < < y 7 & : . + & 6 i 1 e y     p f <           ",
"                                          f k k k D i k ,     O $ & : 1 : 2 , y < 7 7 w 2 : o o & : y : 7 t   %   y   * 1       ",
"                                              p n n k y       @ O 2 : : : 2 < y 7 2 y p < , @ o @ + 7 & = a             =       ",
"                                              p z z z 7         @ : : : : < < w 2 2 y e 6 1 : O @ @ 2 w z j               :     ",
"                                              1 l l p r         + w : : & : 2 6 2 , y = 9 2 w   @ +   : 7 e                     ",
"                                            p : p z p           + < : , & : 6 2 1 : i e 2 w     @ @   1 2                       ",
"                                            q w v p               1 : : : : 6 1 2 < v y 2 2     % *   : 1                       ",
"                                          y = h                   6 , < : 2 2 : > & 0 &   2           < :                       ",
"                                        p y                         : , : < w * < @ & :   p r         2 =                       ",
"                                        h                         n < < : 2 6       =     z p         2 ,                       ",
"                                                                  t 2 , * <         :                 1 2                       ",
"                                                                p 7 < , = <                           :                         ",
"                                                                e 7 : :                               :                         ",
"                                                              e 6 2 <                                                           ",
"                                                              v p                                                               ",
"                                                              p                                                                 ",
"                                                                                                                                "
};
