/* XPM */
static char *cde3553fc4244f73badc105d916a6209tQLKTJ3MQOkjvi94[] = {
/* columns rows colors chars-per-pixel */
"64 64 205 2 ",
"   c None",
".  c black",
"X  c #010101",
"o  c #010103",
"O  c #010202",
"+  c #010303",
"@  c #020202",
"#  c #020203",
"$  c #020303",
"%  c gray1",
"&  c #020304",
"*  c #030304",
"=  c #030305",
"-  c #030404",
";  c #030405",
":  c #040405",
">  c #040406",
",  c #040506",
"<  c #050506",
"1  c #040407",
"2  c #050507",
"3  c #040607",
"4  c #050607",
"5  c #060607",
"6  c #050508",
"7  c #050608",
"8  c #050708",
"9  c #060608",
"0  c #060708",
"q  c #060609",
"w  c #060709",
"e  c #070709",
"r  c #06070A",
"t  c #07070A",
"y  c #07070B",
"u  c #060809",
"i  c #06080A",
"p  c #07080A",
"a  c #07080B",
"s  c #07090B",
"d  c #08080B",
"f  c #08090B",
"g  c #09090B",
"h  c #08080C",
"j  c #08090C",
"k  c #09090C",
"l  c #08080D",
"z  c #09090D",
"x  c #090B0C",
"c  c #080A0D",
"v  c #090A0D",
"b  c #090B0D",
"n  c #0A0A0D",
"m  c #090A0E",
"M  c #090B0E",
"N  c #090B0F",
"B  c #0A0A0E",
"V  c #0A0B0E",
"C  c #0B0B0E",
"Z  c #0A0A0F",
"A  c #0A0B0F",
"S  c #0B0B0F",
"D  c #0A0C0F",
"F  c #0B0C0F",
"G  c #0C0C0F",
"H  c #0B0B10",
"J  c #0B0C10",
"K  c #0B0D10",
"L  c #0B0D11",
"P  c #0C0C10",
"I  c #0C0D10",
"U  c #0D0D10",
"Y  c #0C0C11",
"T  c #0C0D11",
"R  c #0C0C12",
"E  c #0C0D12",
"W  c #0D0D12",
"Q  c #0D0D13",
"!  c #0C0E12",
"~  c #0D0E12",
"^  c #0D0F12",
"/  c #0C0E13",
"(  c #0D0E13",
")  c #0D0F13",
"_  c #0E0E13",
"`  c #0E0F13",
"'  c #0D0F14",
"]  c #0E0F14",
"[  c #0F0F14",
"{  c #0E0F15",
"}  c #0F0F15",
"|  c #0E1014",
" . c #0F1014",
".. c #0E1015",
"X. c #0F1015",
"o. c #0F1115",
"O. c #0F1116",
"+. c #0F1118",
"@. c #101116",
"#. c #101017",
"$. c #101117",
"%. c #111117",
"&. c #101217",
"*. c #111217",
"=. c #111118",
"-. c #101218",
";. c #111218",
":. c #111219",
">. c #111319",
",. c #121319",
"<. c #11131A",
"1. c #12131A",
"2. c #12131B",
"3. c #12141A",
"4. c #13141A",
"5. c #12141B",
"6. c #13141B",
"7. c #13151B",
"8. c #13151C",
"9. c #14151C",
"0. c #14151D",
"q. c #14161D",
"w. c #15161D",
"e. c #14161E",
"r. c #15161E",
"t. c #14171E",
"y. c #15171E",
"u. c #16171F",
"i. c #16181F",
"p. c #161720",
"a. c #161820",
"s. c #171820",
"d. c #171821",
"f. c #171921",
"g. c #171A21",
"h. c #171922",
"j. c #181921",
"k. c #181922",
"l. c #191923",
"z. c #181A22",
"x. c #181A23",
"c. c #191A23",
"v. c #191B23",
"b. c #1C1C23",
"n. c #191B24",
"m. c #191B25",
"M. c #1A1B24",
"N. c #1A1C25",
"B. c #1B1C25",
"V. c #1A1C26",
"C. c #1B1C26",
"Z. c #1B1D26",
"A. c #1B1D27",
"S. c #1D1F24",
"D. c #1C1D27",
"F. c #1C1E27",
"G. c #1B1D28",
"H. c #1C1E28",
"J. c #1D1E28",
"K. c #1D1F28",
"L. c #1D1E29",
"P. c #1D1F29",
"I. c #1E1F29",
"U. c #1D1F2A",
"Y. c #1E1F2A",
"T. c #1D202A",
"R. c #1E202A",
"E. c #1E202B",
"W. c #1F202B",
"Q. c #1E212B",
"!. c #1F212B",
"~. c #1F212C",
"^. c #1F222C",
"/. c #1F222D",
"(. c #20222A",
"). c #20222C",
"_. c #21222C",
"`. c #20222D",
"'. c #20222E",
"]. c #20232E",
"[. c #21232E",
"{. c #21232F",
"}. c #21242F",
"|. c #22242F",
" X c #222430",
".X c #222531",
"XX c #242631",
"oX c #242632",
"OX c #252732",
"+X c #252733",
"@X c #262831",
"#X c #262834",
"$X c #262935",
"%X c #282A35",
"&X c #2B2D3B",
"*X c #2C2F3A",
"=X c #2C2E3B",
"-X c #2E303C",
";X c #30323E",
":X c #323542",
">X c #323443",
",X c #393C4A",
"<X c #3B3E4D",
"1X c #3C3E4E",
"2X c #424555",
/* pixels */
"                                                                                                                                ",
"                                                                                                                                ",
"                                                                                                                                ",
"                                                                                                                                ",
"                                                                                                                                ",
"                                                  F.;XoX                                                                        ",
"                                                b.2X<X=XF.                                                                      ",
"                                                ;X,X%XK. Xz.                                                                    ",
"                                                :X=X X).}.n.                                                                    ",
"                                                ).oX).).}.A.                                                                    ",
"                                                ( F.}.F.T.A.                                                                    ",
"                                                * :.}.A.A.8.                                                                    ",
"                                                * d 7.@.K (                                                                     ",
"                                      (.<X%X    2 2 2 X X y                                                                     ",
"                                      *X:X+X$Xz.2 y 2 2 j F   p.T.                                                              ",
"                                    ( oXoXn.(.@.j F ( ( j :.T.~. Xy.                                                            ",
"                                  @.d.~.T.K.K.O.:.( #.@.( _ Y. XK.n.                                                            ",
"                              s.d.K.d.~.~.T.A.8.y.] 7.7.4.@.K. XA.~.y.                                                          ",
"                            (.oXK.d.d.).K.Y.K.z.y.8.K.n.z.4.n.).z.K.K.                                                          ",
"                      :.A.). XK.d.d.T.}.~.~.K.K.p.K. XG.F.u.K.).n.n. XK.                                                        ",
"                d @.F.).C.z.n.C.n.F.}.T.K.~.~.~.K.~.~.~.~.~.~.~.K.d.~.Y.G.                                                      ",
"            y H ( ( i.(.4.y.z.s.K.).}.A.n.~.~.~.~.~.~.~.~.~. X~.K.K.~.G.K.~.(                                                   ",
"        y j y > y d S y.y.y.y.p.z.A.A.y.A.~.).~.~.~.~.~.~.).~.).~. X~.K.n.n.~.z.j                                               ",
"      X d 2 y       j S u.4.z.y.y.y.8.d.G. X).~.~.~.~.~. X).~. X~.).G.d.).n.K.).).y.                                            ",
"    X X             i ( z.z.8.n.F.A.A.K.).).).~.~. X~.~.~.~.~.~.~. XA.( y.y.F.A.F. XK.(                                         ",
"                    ( j :.K.z.d.z.F.K.).T.~.). X~.).~.~.Y.~.'.~.K.~.K.i j ( :.y.y.A.T.y.( j                                     ",
"                    ( 2 :.n.G.K.G.K.K.n.A.~.~.~.Y. X). X~.K. X~.G.).).H 2 2 S @.:.y.d.y.( t j 2                                 ",
"                    j d ] @.A.).K.).).K.~.~.~. XY.).~.~.~.K.~.~.A.~. X8.( 2 2 ( ( | 4.:.( S d 2 X                               ",
"                    2 G j ( i.K.n.Y.F.F.T.).n.).G.~.~.).~.K. X~.G.~.).G.z.y 2 j i t G F K 4.    *                               ",
"                    ( @.t j 7.i.p.G.z.A.Y.).8.K.G.~. X).~.Y.~.~.G. X).~.).y.( ( 2 d d y j z.:.                                  ",
"                  j y.j 2 d @.@.:.d.z.A.K.~.:.K.K.~.~.).~.G.~.'.K.~.~.~.).).F.d.2 S ( j y z.i.i X 2                             ",
"                    8.j * j ( ( #.y.z.F.K.Y.p.~.T.Y.T.). XK.Y. X~.). X).).).K.F.@.( y.:.y @.d.j 2 ( H :.n.                      ",
"                    | j 2 d t d S :.z.z.v.T.d.T.(.T.F.T.~.~.Y.).).).~.~.).~.K.d.4.@.z.y.4.S :.S * 2 t ( | @.j j i.              ",
"                      ( i 2 2 i 2 H 7.z.z.v.z.A.K.G.K.T.~.~. X~.).).~.~.). X'.Y.y.#.y.F.C.7.#.y.j S j j j G G K y.i.            ",
"                      | 2 2 2 y 2 d @.7.i.i.d.A.n.p.G.A.~.~.Y. X X).~.~.'.~.~.~.F.7.j y.z.C.( 4.@.t t 5 d 2 d ( F j 4.8.        ",
"                      F 2 2 y d y 2 ( #.y.:.i.A.z.8.A.d.G.~.K.).~.~.~.K.~.~.K.T.i.:.@.d @.y.( S ( t j j 2 y i d                 ",
"                      y 2 2 i j K X 2 j @.@.4.d.n.4.n.y.z.(.A.n.).T.).z.~.T.K.K.A.F O.4.G @.| d t 2 y y.    ( j K               ",
"                      2 2 2 2 ] y.y % 2 i F O.4.d.] :.y.7.z.K.n.p.A.~.z.G.T.G.n.A.i.i |   :.( y y * % d #.        :.            ",
"                    O.y 2 X y     ( i 2 > y S @.@.#.H 7.7.4.i.T.y.y.z.z.d.).A.A.v.d.( 2       @.t t 2 * * 2 (                   ",
"                    ( 2 y           ( O.y 2 2 j ( @.j ( :.@.( i.F.:.d.d.:.z.A.z.A.d.4.d y         j 2 * y S 2 G                 ",
"                    O.j d c             K j y y j d F i K ( F d :.y.@.z.u.@.y.y.z.i.7.#.d d       @.j y y   2 j                 ",
"                    y.+.y h               O.d X i 5 y 5 i F d i y j _ ( 7.7._ ( @.y.@.( ( F j j       ( 2 @.2 ( ]               ",
"                        j j H               d % 2 5 j 2 y F i y t 2 t d j _ ( F t S @.( j G F F d d j   j j (   ]               ",
"                            ]                 > 2 2 d d K 2 y 2 2 2 5 2 y i j F j d d S G d j G ( j F       ( :.i.K             ",
"                              4.                2 c i d i.y 2 X * * 2 y 2 2 2 5 d j i 2 5 i d j j d 2 j                         ",
"                                                    y 2 @.  2 % * 2 2 y - 2 2 2 * 2 5 X % 2 2 d F j y 2 y @.                    ",
"                                                    (         y 2 j G j 2 2 > X 2 2 y 2 d 2 2 2 y 2 2 y X 2 (                   ",
"                                        i j         K         t d :.y.O.( % > > t y O.( i @.( 2 % 2 2 * 2 2 y j                 ",
"                                        > % 2 ] @.j t                   F i 2 2 j 2 d   ( i   :.2 2 - 2 > 2 2 d F               ",
"                                              2 K j                         d 5     y j 4.:.    ( | d 2 2 2 2 2 2 %             ",
"                                                                            2 2     | S j (       :.  y 2 2 2 * X > i           ",
"                                                                            d           @.              2 j ( @.2 2 i           ",
"                                                                                        4.              d ( @.    d 2 i         ",
"                                                                                                          H @.        ( i       ",
"                                                                                                            j                   ",
"                                                                                                                                ",
"                                                                                                                                ",
"                                                                                                                                ",
"                                                                                                                                ",
"                                                                                                                                ",
"                                                                                                                                ",
"                                                                                                                                ",
"                                                                                                                                ",
"                                                                                                                                "
};
