/* XPM */
static char *_a1eb3a1a5864c7be140f94ef562b629yGvafqzDHQTlLrs2[] = {
/* columns rows colors chars-per-pixel */
"64 64 256 2 ",
"   c #001C04",
".  c #001B09",
"X  c #001F10",
"o  c #00240C",
"O  c #002B0C",
"+  c #002304",
"@  c #00340D",
"#  c #002D14",
"$  c #012A19",
"%  c #003314",
"&  c #003B15",
"*  c #01341B",
"=  c #003B1C",
"-  c #0A3A1C",
";  c #013C23",
":  c #083825",
">  c #10392B",
",  c #00431D",
"<  c #00481A",
"1  c #00521F",
"2  c #014423",
"3  c #014B24",
"4  c #02442B",
"5  c #0B452A",
"6  c #024B2B",
"7  c #0B4829",
"8  c #14482B",
"9  c #01532C",
"0  c #005A2D",
"q  c #065229",
"w  c #024C33",
"e  c #0B4B33",
"r  c #134C33",
"t  c #174936",
"y  c #025333",
"u  c #0C5434",
"i  c #025C34",
"p  c #0C5A34",
"a  c #0C553A",
"s  c #025C3B",
"d  c #0B5B3B",
"f  c #02543B",
"g  c #135B35",
"h  c #1A543B",
"j  c #135C3B",
"k  c #1A5C3C",
"l  c #145435",
"z  c #13572F",
"x  c #21553B",
"c  c #026334",
"v  c #02643C",
"b  c #0B633C",
"n  c #05683A",
"m  c #14623B",
"M  c #17683E",
"N  c #06743C",
"B  c #0D6A35",
"V  c #25673C",
"C  c #085C43",
"Z  c #185B44",
"A  c #275B46",
"S  c #3D5D50",
"D  c #0D6343",
"F  c #036C44",
"G  c #0C6C44",
"H  c #0C6B4B",
"J  c #046647",
"K  c #136443",
"L  c #1B6444",
"P  c #136C44",
"I  c #1C644B",
"U  c #146C4A",
"Y  c #1B6C4B",
"T  c #176847",
"R  c #097548",
"E  c #127345",
"W  c #14744C",
"Q  c #1B734C",
"!  c #1A7B4C",
"~  c #157847",
"^  c #086D53",
"/  c #0A7955",
"(  c #157453",
")  c #1B7453",
"_  c #147C52",
"`  c #1C7B54",
"'  c #1B795A",
"]  c #176A52",
"[  c #246C4C",
"{  c #266748",
"}  c #22724C",
"|  c #27764B",
" . c #276C54",
".. c #386C56",
"X. c #237452",
"o. c #2B7353",
"O. c #247A54",
"+. c #2B755A",
"@. c #247B5B",
"#. c #2B7C5B",
"$. c #287757",
"%. c #337C5D",
"&. c #367758",
"*. c #336F4B",
"=. c #157B61",
"-. c #277C63",
";. c #377D62",
":. c #446D5B",
">. c #0B854D",
",. c #14834D",
"<. c #0B8757",
"1. c #1C8455",
"2. c #14835B",
"3. c #1B835B",
"4. c #1C8C5C",
"5. c #168857",
"6. c #16955B",
"7. c #06924E",
"8. c #23835C",
"9. c #2B835C",
"0. c #238B5C",
"q. c #2B8B5D",
"w. c #278654",
"e. c #33835D",
"r. c #38895A",
"t. c #24955A",
"y. c #2C8F57",
"u. c #1D8B62",
"i. c #188966",
"p. c #1B9364",
"a. c #199968",
"s. c #199B74",
"d. c #0E9468",
"f. c #248562",
"g. c #2B8563",
"h. c #248B63",
"j. c #2B8B64",
"k. c #298969",
"l. c #328563",
"z. c #3B8464",
"x. c #348B63",
"c. c #348C6A",
"v. c #3B8E6B",
"b. c #3A8767",
"n. c #239365",
"m. c #2C9364",
"M. c #2B936B",
"N. c #2C9B6B",
"B. c #249969",
"V. c #339364",
"C. c #33936B",
"Z. c #3B936B",
"A. c #349B6C",
"S. c #3B9C6C",
"D. c #369965",
"F. c #2A8B72",
"G. c #398D76",
"H. c #2A9974",
"J. c #349472",
"K. c #3B9572",
"L. c #349D74",
"P. c #3B9B73",
"I. c #349C7B",
"U. c #3B997B",
"Y. c #1BA567",
"T. c #1BA678",
"R. c #14AA77",
"E. c #28A56C",
"W. c #36A66D",
"Q. c #28A676",
"!. c #34A474",
"~. c #3CA37B",
"^. c #3CAB7B",
"/. c #37A778",
"(. c #2AB479",
"). c #3AB57B",
"_. c #41865D",
"`. c #45886A",
"'. c #44956C",
"]. c #478A73",
"[. c #439B75",
"{. c #489777",
"}. c #55987B",
"|. c #518F71",
" X c #43A37B",
".X c #4BA37B",
"XX c #46A979",
"oX c #45B67C",
"OX c #4FA578",
"+X c #35C07C",
"@X c #3A9F84",
"#X c #2AAA83",
"$X c #39A984",
"%X c #2CB787",
"&X c #3AB282",
"*X c #38B788",
"=X c #36B894",
"-X c #1DAC82",
";X c #549C82",
":X c #499A84",
">X c #44AB83",
",X c #49A986",
"<X c #54AC82",
"1X c #57A888",
"2X c #42B384",
"3X c #4BB48B",
"4X c #48B789",
"5X c #54B38C",
"6X c #57B688",
"7X c #49B895",
"8X c #58B995",
"9X c #54AB93",
"0X c #65AB8C",
"qX c #65B68B",
"wX c #67AD93",
"eX c #68B896",
"rX c #75B699",
"tX c #79B9A1",
"yX c #5BB39B",
"uX c #36C589",
"iX c #3BC694",
"pX c #35D094",
"aX c #3DCBA3",
"sX c #49C698",
"dX c #58C598",
"fX c #47D49D",
"gX c #52C991",
"hX c #66C79A",
"jX c #6CCD9A",
"kX c #47C8A3",
"lX c #58CAA4",
"zX c #4BD8A7",
"xX c #55D5A7",
"cX c #57D7B1",
"vX c #67C9A5",
"bX c #76C7A8",
"nX c #67D7AA",
"mX c #78D8AC",
"MX c #75CCB2",
"NX c #69D8B4",
"BX c #79D9B6",
"VX c #62C8B0",
"CX c #67E4B6",
"ZX c #78E5B8",
"AX c #6CECB6",
"SX c #78E8C3",
"DX c #6DEDC7",
"FX c #78DAC1",
"GX c #87D8B5",
"HX c #89D3B0",
"JX c #85E5BC",
"KX c #81E9AE",
"LX c #88E9C6",
"PX c #91F1CD",
"IX c #A3E4CE",
"UX c #84BEA6",
/* pixels */
"S h Z.0 ~ | | + 8 8 ; I -.S.W.t._._.V @ q 5XE.7.E.oXjXoX<XU 6 P.c 1 OXbXhXjXjX`.< c W Y k k '.wXrX}.X.0 >.>.>.gX3XK ;.}.h x 8 S ",
"t : 9.t.OXOX_.O 8 8 4 6 d ! D.oXOX|.< q d v E.).gXKXKXKXP., s M.W.E 0.5XmXKX5XD.0.c n E z.e.O.) Z j W 1.4.>.6.lXBXGXbX4 6 o.`.z ",
"h { h.^.mXHXg o.&.2 6 b P P '.KXqX8 O q 8Xc 9 B _.|.'.OXP.R >.a.B.6.,.' Q d 7XAXsXN d.<.1. X7X>X% $.u.5.B.5.5.&XCXJXHXO ) 3.1.0.",
"Z X.M.vXPXOX9 x.w.0 9 b Q O.%.*.= - 2 9 ^.,.c z z   { r.4.a.Q.<.>.a.<.vX;.* cXDXCX6.Q.Y.<.h.4X@X  ) $X>./ i.p.).nXZX%.- v B.2.R ",
"6 K v.c.s s H.=XB.,.q.w.0.Q   $ * 5 - 0 N N V.w.&.+ = g 9 B.n.E E.B.B.nXe X =.sX^.R %X(.R k.eX= b 6 3Xh.i./ =XcXdX XP P.M.v ( k.",
"~ b O 4 ^ s.-Xs.E.W.t.D.dXb.. A : Z P q.N E.6XqX| 1 q g ,.N q.E ~ N.$XH $ I C H.G N oXE.).L.f C ` 0.6 ^ F.H.=X7XF & 8.8.8X~.C w ",
"W.hX< j kX=X-Xd.p.5.!.gX<XL # t h L w.W.gXgXhX1Xp HX<X< 0 ~  X6XhXqX[ % 8.>X/ y n OXqX6X[.9 c 0.5.Q./.D H ] f w 3 v c N.LXNXlX,X",
"jX6X@ 8 i.#Xi.^ / F C.mX'.u '.w % 2 Q w.XXjX8Xb 0 hXXX0 1 0 y x.w.q 3 b.ZX&X/ i.N b 3 { | c ,.B.d.Q.n.>X1XA ; :XXXH.H.5.7XlXDXPX",
"HX| % `.C H ] C ] +.;X'.= V.).p.R = ; = r p 0 n w.N B N E 9  .: , , , M gX(.>.p.E.7Xo.u nXY.7.W.#X#X<.P.rX;.+ eXsXQ.B.a.M.dXBXBX",
"_.& [ d o.e 4 = ; Z Z : X.~.uXuXQ. Xl % o o.7Xi.B.7.N ).>.' GXC { '.3 ~ (.Y.<.a.uXCXf = fX(.7.+X(.<.5.L.eX9 b i Q.d./ F.F.C.ZXN.",
"@ x. X_ U m.w.c *   ; A j ` Q.pX(.(.v Y + a L.(.).+X+X+X6.m.8X: ; 1X` A.).T.d.=XyX^ H.i.F &X(.).*Xs._ 1.i ! ,.F ^ >X>XFXK.` O.< ",
"; ) !.5.1.1.1.D.|.o : h ; 6 F #X(.E.^.W U ( u.v N (.Y.E.N.5X( s d f G L.!.#XiXDXi.^ DX#Xk.R E.uXlX3XH W E _ E.NX!.-.:Xb.J i N 0.",
"A Z C i c w.y.oXe.* * - r 4 4 2.B.sX6Xi 2XB.N & 0 O.W. X}.d p.DXsX8.D O.E w.H.=Xi.=XkX=XF.X.c E D f D ,Xh.F Q.fXlXtXtX; s H./.s.",
"e 4 3 6 z ~ W.M < OX[ 3 * e ; o.L.E.c 4.iXd.!.~ < z g d 6 % s.CX/.4.W T [ % @XkXs.=X=XT.J #.Q hXZ 7 K s F.i.T.%X=XMXHX. ( 2X%X<.",
"3 9 g { { *.[ 1 t.xXsX^.W 2 : r z y a.(.pXuXE.E.P 7   I H.T.Y.Y.N >.,.V.0X  H xXd.iX-Xd./ 1.0..XO ; C F.%Xs.R.-XsXNX#.2 f f.zXR.",
"P.0 @ 7 5 - z q.(.zXfXE.&X` x   r @.(.pXpXfX(.5.E o.o w =XuXsXE.~ ~ y.XXk z H Q.kXDXfXY.>.m.0., Y d H SXkXaX=X%XI.f.U v.{.H d.-X",
"dX!.n L * : h 9.*X=XAX(.T.2.].% 5 Y s.(.pXfXuXT.M.6 k.` J ~.4X^.y.O.e.e.2 eXC.F !.dXxXBX,X-.6 i.vXB.` ' @XNXCX@X; C jXE.<XvXh.( ",
"d.p.j.`.* * 2 y F.i.a.E.*XI.C Z ;.= R %XuXpXfXNX-.w >X' i W ! ~ x.qXo.* 4 } _ 4.N 0 ` z.f C VX#XY.<.n././.I.w -.[ ] R >.).ZXLXFX",
">.5.m h : ..= M Y D 0.W  .[ w u  X( v F _ ( U ) = l.U.2._ c c 9 , - - & 6 } H _ c.9. .o $ l.PXzXY.Y.Q.zXCX7X*  .' 5.<.6.#XSXVXSX",
"$X/ 2 ; Z l = * 4 w p q 4 :  .y v !.~.v 6 % +.;XC H ~.H.2./ 1.qX+ - 8 3 m m E 8.3.v.0Xo 4 Y /.+XuXY.(.xXcXM.$ a ( N.H.xXcXcX7X@X",
"C 6 9 Y H k.X.2 2 h = 8 5 e 3 '.&X*XM.C.z.  }.JX@.; 6 (.d.>.9.`.O & 3 3 < 0 E h.H.U.Z > 7 3 N 6.(.6.sXlXf.J Z.P W ,X=.7XDXaXF.C ",
"o ;X1X) ( ~.C.@ L 1Xl { `.z 3 6X&Xa.n.<X%.8 d O.2 [.8X^.E.1.'.q *.p 1 q.9.r.}  XlX/ $ ;.&.< w.oXgXE.*Xi.H g.,XjX[.H =.yX=X^ J k.",
"X }. .C U J n.2Xm.1.9 3 r.8 7 M 5.Q.L.'.> *.o.2 a [ ,X3Xq.OXq , P c.P M { | e.c.H.H.y c. XXX1.! M b /.<./ L.^.).4XXX9XC C =.i./ ",
"$ t &.; y U E L.2Xn R 0.0 2 & k ! 1.E M L 2 4 { 6 , a a k 7 [ | 0.m.V.9.L 7 * .X/.L.u.N.1.~.'.'.m T CX*X/ n.p.p.2XdXGX$ Z @X#X-X",
" . .Z : e A : * j D ,.0.!.9 , , % 2 b ~ c 6 u L O.P h # $ % g S.,X3.f.M.c.+.O eXp < N.N _ j.@X:Xe ; $X).n.n.>.R E.gXZ.& 2 l.lX-X",
"K -.+.w { 8 $ > j n R n.XXV.'.{   8 [.A.W.1.m K f.U.].  - r |  X>XM.Q.I.9XD = { bX'.,.N.G 3.@X-.w D v sX4.!.dX7X2XL.3 '.eX6 =.#X",
"@.( =X7X9X; $ ].2XQ.d.a.gX4XZ.o.o   z 9.&Xp.0 E $X8Xd [ * l OXvX<.=XlX7XF / BX< | r.W.lX3X>XF.^ yXi.( i w.<XHXbX9.3 _ 2XLXMX' =.",
"] J s.#X:Xe X -.7XfXsX/.<.u. Xj t 8 % O.1.4.v g.SXB.i JXb.3 c 0.$XMX7XC F lXZXS.m & n ,.h.i.=.kXaX/ n.>XC.x.2 o.G n.d.Y.DXLXIXHX",
"u.^ C -.I : F.w j.3X7X@Xh.j.) 9 g o.q @ p l L d D F /.NX4XS.P q r w H p.zXzXzXgXZ.#.| 2 i.NXaX=X-X^ d.*X4XvXO 0X9X#X-X-X7XBXMXFX",
"vX8Xw C : ' @X@X& 2 C H H y f ' P <XOX[.u 7 o h k.4XfX#Xs./.Z.z.A 5 MXdXkXaXiX).H.] ;.w -.DXzX%Xs.#X=Xd.$XU.o ;.kX=X-Xi.@X7XyX-.",
"Z I > : J.H.$X$X Xa $ $ d J.8X/ W dX4X4X.Xo.O 0XlXsXlXa.E.Q.0.9.A . } ,XZXCX(.sXkXU.].Z ; ' fX(.E.NX7X/ f.U ;Xf ^ yX=XkX@X@X-. .",
"a # t ;.I.Q.CXSX1X6 z.; K PXBXF & ! gX).P.L 2 I 3XlXdXi.H.4Xm.'.: A 2 w.XXN 4.ZXNXlXw  .:Xy u.N.4XvX$X' D ,XJ.$X=.^ F.=XF.C C MX",
"1X* ; `.#.3.BXMX6 q [.6 3 ' mXM.P 8.oXN.&.a BXJ.s C.O.O.eX6X9.= 2  .l.y 9 w.D.x.0.W 9 c.5Xj.O.} %.a 8.3X3XM./ 1.P.1XbXf ' =XxXkX",
"Z., w y P ) f.f K #.0 9 wXY v W } e.V.! d I ,X7Xu.G [ g { L x.,X] {.O.9..Xb.& | XX4XsX!.m.L.9.+.A * ,X~.5.<.m._ ` K.wX* f 7X=X*X",
"b Q $Xy s ) t e [ u , o.l.%.[ 6 g & c C.1.F >X~.~.j.e.l & [.4XNXt.W.m./.8X5X= o.2XQ./.u.u.L.M.g.{ + j.dX(.6.L.O.` {.Z ..Z Z :Xu.",
"[.P.).s.k.c.A o ; o.@.! y q z.%.`.% $.BXQ.4XW < m.! z.L # b.!.2.~ y.t./.4Xk.a u 3.#X/.J.f.f.,X].k {.y /.sXQ. Xl.@.Y e rXtXZ ] ' ",
"c.3XB.*XcX3X;.o r X.&XsXE.dXdXg.&.$ = [.lX/.x.| q.D.&.; `.A -.Y M y.jX6X,Xy 9Xf.w  .] ) z.{.|.Z ;.{.g.y h.~.eX|.Z j g.,XPXMXF.F.",
"a y N N.lX7XZ . 7 l.4.cX2XW./.3Xg `.wX* ' v < V y.D.p 9.+. .Z y w.'.D.` Y ' 3X@X .Z f 4 4 t ; a K.Z.Z.l.[.[.5 *.;.l.i.Q.$X9XVXLX",
"x - 6 i J.g.; 4 = & 3 K 7 7 j T 6 [ dXyXP % O 8 B E n.vXJ.@.-.@._.< F 3XdXM./.@XU.k.G.I $ l p W.~._ 8.w.[.`.  ..'.n.i.H.=X@XVXG.",
"$ > * # : C l.K.8X XW 6 - : r #.b.v sXkXvX`., O $.5XnXsX>Xk.h.9XHXe U 3XL.BXJ.f.9X,XG.L $ o.OXZX X0.N.C.x.u t 5 ' H.i.I.VX,XF.w ",
"x $ . > ;.' B.sXkXsX2XO.= : Z.~.2Xn.*X*X^.`  .  a c./.N.O.x.[.BX{.] J f.^.XXj.} [.BX;X4 +.f '.[.V.P.,XeX9.d 1XwX{ ;.wXwX .Z Z :X",
"&.*.$ : T y sXDX(.a.N.q.u + y 1.0.~ c E.oXj.C l.U U H.m.Q |.BX Xf 1XK.s R ! 1X&.[.eXY G.:X^ C +.$.OXhXP.H >XY '.1X].;.;. .I  .:X",
"u v.w Z e L L.xXH.4.j.! v g.4 6 #.B < r.r.C =.FXG.y b M r.}.}.m , j.~.~.W b h 5 m v mXSX-X=.-.=.Z & ~.2X^.8.U g.f.].].$  .].-.-.",
"0 , H 9XK f U ] y d Q 0 3X$XD g z & & { l w G.vX,X) L [ z *.`.M w.D.N.n.9.|.{ O Y XXsXsXkXcXyX@X}.@ L.8X1.,X#.{.U.' t t t :XG.] ",
", H Q.#X7X^ 2 4 ; ; & q. Xn.h.4X Xc % k &.2 6 +.#.j.Z.qX&.8 &.m y.,.E.m.q.eX .# P j./.p.kXSX@X9X;.4 w b.[.,X1XwX1X+.e wX].Z :X:.",
"o.Y *XsX*Xu.A ..$ { a ` ( v i.p.y..XO 5 z.6 j m ~ XXhXqXm L % q r.V./.5XbX{.O `.y n L./ ,XVX,XY a b.Z d U.tXtXwXf 4 ] U.MX]. .A ",
"+.6 g.) J C Z ..# K 8X3.n P.0.h..XQ K L # k e.V.r.hXmXc ^.hXq h L { {.qX'.; 6 U.U.U D -.] %.w.b 5Xc.[.[.$.Z t t C ] k.I.VX=X9X=.",
"8  .L 4 w ; : : Y m.0 2.b p Y ,Xe.j }.b.g < 0 B | w.i 2.NX&XZ.'.g u , l `.z.s U.F.J.U.c.# `.<X! 3.M.M.j.<X+.X ..].c.F.=.F.-.=XF.",
"$ * 4 %.;.> $ 8 Z.4X9., % & ; $.$.y X.K Z.V.M m + 8 _ ^.sXN.~ '. X X* &.l.P ' k.3X~.MXBX# b.Z.0 _ J.I.H.c.l.6 d ;XwX0Xo.$.l.H U ",
"t * 6 4 * $ t e i 0 w.9 o.&.o |.+., D @.! m.x.[ O 5 1.n.E N w.W.nX1.3 m | K 3X3.H.NXLX8.K.D O.i g.vX9XP.@.D K.9.$.eXHX`.[ a a ) ",
"y D h.d o ..m 2 6 y g.g.OX&.+ { p M P r.1.~.<Xg { M m O.! w.| qXOX1.4XN d T O.` @.J.` V.vXh.9 6 ;XIXrXX.w #.` eX,X;.h : I j @.3X",
"' ( H i % o..Xx.Y 6 ) O.l., z g } ! P B i x.o.% } '.M E 9 g &.`.S.jX).4.q.D p 9 Q Z.8X8XoX^.r.| A t ;.].1X#.5XPXg.%.A   &.%.9X,X",
"{.C = % x.{.G 8.( U a 4 a $.p w.B V z < h { j 9.D.!.t.oXV.3 o ; dXoXt.W.E..Xz.@ M [.mX/.,.t.W.r.;.  ;.HX0X;.vXnX#.[ r t r 1XIX5X",
"5 ; {.b., 1.$X2.' H 3 = x.{.w.V.w.y.r.< % h * P t.t.+XjX<X3 * k q.).,.gX2X<X}.O , 3 / XXt.XX[.OXZ { Z ;XbXrXHXg.P y { z.+.L 1XbX",
"# % 8XE & F.zXd.p.s c j.P 9 t.W.t.y.rX-   5 & E <.6.).jXD., [ 3 ~ N t.mXGX0X| }.k , 6 n w.oXbX{.K {.c.b.].;.{ a D K.U.$.f.~.}.) ",
"+ 7 O./ ( I.#XQ.1.3 0 R E F R u.XXgX_.q z.< , M q.A.dXoX| r.m.! ! M W.D.e.z.jXC.b l.9.3 q | M 9 >XU.BX1Xv.{.# {.MXZX[.( 3.U.'.Y ",
"x.w.c v D ] u.J * 2 L.4.n n 0 y E 0.@ S.ZXQ.c 3 z M 0 ! gXjXW.oX).q.6 * U L.B.F i.$XB.g.* * 9.1./.8X3Xm.5Xc.2 z.GXdX'.g.' L.'.Z ",
"0.0.L.P.U 4 a X.[ d E M.M.C.L 6 ' 0.` 0.(.(.m.r.&.  &.M Y.6.+X+XE.dXK = ! 5./ d.T.H.h.q.a u w.5XvXhXf.j.j.9 {.x.w.bXMXHXvX<XT ;.",
"c 4.p.dX1X6 % L lXQ.J D i 9.{.& K.J.0 R Y.7.w.<X`.M B w.W.6.t.XXKX[.s I.F 3.u./ B.$X` U 8XP.b eXGXUX%.D 9 8.j.j.8.O.z.%.8XP.g.' ",
"F / F G M { 8 , p.Q.J.6 2 X.O.! s v v c ,.,.W.V.Z.6XN c Y.t.D.6X1XZ.L.NX8Xj.' H M.k.C.XX/ 7XZ.o...> [ $.C.M. XC. XeXo.# wX XJ.f.",
"^ ( H l.8 z , u d 2 I w = y n.xX&XQ.F 0 ! 1.h.0.P.0 4.Q.!.! & *.9.5XnXdXN.0.C.H O +.4Xh.n 5XgX'.*.* z.bXmXgX<X<XhXJX{ o #.eXeXwX",
"1X+.2 j 2 2 l M #.'.o.= K ( gXQ.Q.4X! w.@ y hX Xy 3 5.&XmX}.  & 3 9._ v ( k.8Xa O p  XA.G hXjX<Xo.d T .XLXLXGXGXhX) h  .D v.rXHX",
":.X e O.3.2.w.y 0.jXe.O K.3.F ( O.c 9.<Xy 2 $.Y 2 P ^.2XBXO.;.2 u g | r.1XGXx.P OXb m V '.GXGXD.v ~. XA.0.[.}.%.D ` '.O.f.#.A > ",
"S > * @.i / } E N ,.q m v 3.^ J P B e.g.v.U.4 * l Q m.dX9.y J.c.9 z V &.e.P r.Q V.OXV z z r.| M >Xp.u.mX[.L o h 9.8X,XM.f.$.A S "
};
