/* XPM */
static char *_cf5c23649fb4a2e943def189aaf5d13OSuS63NorVIzX2Wi[] = {
/* columns rows colors chars-per-pixel */
"96 64 245 2 ",
"   c None",
".  c #030202",
"X  c #0A0506",
"o  c #0A0709",
"O  c #0D0A0B",
"+  c #0B0707",
"@  c #130C0B",
"#  c #1B0E0C",
"$  c #110708",
"%  c #1C110D",
"&  c #16120F",
"*  c #120E11",
"=  c #190F15",
"-  c #151115",
";  c #1B1314",
":  c #1A151A",
">  c #1D191D",
",  c #161419",
"<  c #0E0E11",
"1  c #220C0D",
"2  c #2A0F0E",
"3  c #23130D",
"4  c #2B120D",
"5  c #291A0E",
"6  c #36180D",
"7  c #2C0F10",
"8  c #250E11",
"9  c #330F11",
"0  c #3B0F13",
"q  c #231413",
"w  c #251A13",
"e  c #2B1B13",
"r  c #231B1D",
"t  c #2A1918",
"y  c #331113",
"u  c #3C1115",
"i  c #361C18",
"p  c #2A231C",
"a  c #372519",
"s  c #3B230F",
"d  c #1D1B22",
"f  c #1C1722",
"g  c #221E24",
"h  c #291A23",
"j  c #341E2A",
"k  c #25222B",
"l  c #2A2428",
"z  c #362928",
"x  c #2C2933",
"c  c #2B2833",
"v  c #332E3A",
"b  c #342C35",
"n  c #36313B",
"m  c #383031",
"M  c #4C0F16",
"N  c #570D17",
"B  c #441215",
"V  c #4B1116",
"C  c #491D16",
"Z  c #571418",
"A  c #431B0C",
"S  c #6D0D19",
"D  c #670C17",
"F  c #710F19",
"G  c #710F17",
"H  c #661419",
"J  c #74121A",
"K  c #7C131D",
"L  c #7B191C",
"P  c #56260E",
"I  c #472717",
"U  c #572A14",
"Y  c #512D13",
"T  c #693216",
"R  c #773A1A",
"E  c #6F281A",
"W  c #4D1D29",
"Q  c #7D1521",
"!  c #6A1C24",
"~  c #432724",
"^  c #582826",
"/  c #49352A",
"(  c #593829",
")  c #463836",
"_  c #583D36",
"`  c #4C2D3A",
"'  c #643C2A",
"]  c #6F2A2D",
"[  c #79411B",
"{  c #574437",
"}  c #5B442C",
"|  c #674638",
" . c #714E34",
".. c #7B663A",
"X. c #3B3542",
"o. c #3D3946",
"O. c #433C4A",
"+. c #463946",
"@. c #723641",
"#. c #47434E",
"$. c #564847",
"%. c #4C4454",
"&. c #484757",
"*. c #534C5B",
"=. c #554A55",
"-. c #654B45",
";. c #6B5547",
":. c #765648",
">. c #6D5353",
",. c #766458",
"<. c #5C5363",
"1. c #595566",
"2. c #524F62",
"3. c #655B6A",
"4. c #6C5D6D",
"5. c #5D6174",
"6. c #7B6863",
"7. c #6A6478",
"8. c #75687A",
"9. c #83151E",
"0. c #8A181F",
"q. c #87381E",
"w. c #841622",
"e. c #8D1923",
"r. c #891825",
"t. c #931A25",
"y. c #941B2A",
"u. c #9C1C2B",
"i. c #9A1C25",
"p. c #A31D2C",
"a. c #A91E2B",
"s. c #A81F31",
"d. c #B21F2D",
"f. c #882528",
"g. c #982729",
"h. c #982733",
"j. c #8E3430",
"k. c #AC2333",
"l. c #A72938",
"z. c #BB2233",
"x. c #B72737",
"c. c #AB3537",
"v. c #B8353B",
"b. c #AC282E",
"n. c #C72539",
"m. c #D4253C",
"M. c #D8273E",
"N. c #C9343F",
"B. c #85451E",
"V. c #8A4A22",
"C. c #934D22",
"Z. c #955325",
"A. c #904E31",
"S. c #B2483B",
"D. c #B27033",
"F. c #BC2D41",
"G. c #B62C42",
"H. c #B93644",
"J. c #943944",
"K. c #C82D43",
"L. c #DC2B42",
"P. c #D32C42",
"I. c #C43345",
"U. c #CC3244",
"Y. c #CC334B",
"T. c #C8394A",
"R. c #D4344C",
"E. c #D93548",
"W. c #D83B53",
"Q. c #C93C52",
"!. c #E32D45",
"~. c #E92E47",
"^. c #E53349",
"/. c #EA354B",
"(. c #EC3A4E",
"). c #E33649",
"_. c #ED3D52",
"`. c #E43C54",
"'. c #875B47",
"]. c #95514D",
"[. c #B7494C",
"{. c #876857",
"}. c #976958",
"|. c #8F6D51",
" X c #AB6E5A",
".X c #846D64",
"XX c #937767",
"oX c #947B73",
"OX c #AB7864",
"+X c #B4786C",
"@X c #935762",
"#X c #D44354",
"$X c #DD4759",
"%X c #CF494E",
"&X c #ED4255",
"*X c #ED455A",
"=X c #ED4A5C",
"-X c #E44858",
";X c #EB545D",
":X c #E5444D",
">X c #D46B50",
",X c #EB4C61",
"<X c #EE5365",
"1X c #EE5469",
"2X c #EE5B6C",
"3X c #E45664",
"4X c #F05C6C",
"5X c #ED6973",
"6X c #F06876",
"7X c #ED787B",
"8X c #F1757E",
"9X c #F17B79",
"0X c #EB686A",
"qX c #E5665D",
"wX c #D78F3D",
"eX c #988577",
"rX c #B58673",
"tX c #BF824C",
"yX c #D4904C",
"uX c #F4A84E",
"iX c #C48C7A",
"pX c #EDAB69",
"aX c #E9915B",
"sX c #757387",
"dX c #837588",
"fX c #F17984",
"gX c #798096",
"hX c #918694",
"jX c #AB8E8A",
"kX c #9390A5",
"lX c #B2A3A4",
"zX c #CD9889",
"xX c #F38B8D",
"cX c #EF8182",
"vX c #D9A793",
"bX c #E9AA8E",
"nX c #C5B7B5",
"mX c #EABEB1",
"MX c #E8B1A3",
"NX c #F5CBB0",
"BX c #CEC5BE",
"VX c #D5C4C5",
"CX c #F8D5CB",
"ZX c #F4D0C7",
"AX c #FCE2D9",
/* pixels */
"                                                                                                                                                                                                ",
"                                                eX,.{ { ,.;.} 6.                                                                                                                                ",
"                                            lX|.{ } { m z m 5 5 6.                                                                                                                              ",
"                                          lXeX} / { p p & & & 3 a                                                                                                                               ",
"                                        nXeX;.{ r z a & & + + % a {.                                                                                                                            ",
"                                        eXXX| { p w + + + & % & I :.                                                                                                                            ",
"                                      nX6.| -.m & . @ O % @ % 5 } ,.z d &.x o.gXsX                                                                                                              ",
"                                      lXeX{ w & & @ % & @ @ % s  .:.z . d 2.5.x v                                                                                                               ",
"                                      eX;.{ { % & 3 % $ 5 e i / ;.;.w . , k v 2.n 1.                                                                                                            ",
"                                      {.eX/ 5 % & 3 & @ e e / / ;.{ & . . < x &.. 2.X.                                                                                                          ",
"                                    nX.X/ a e % 3 5 5 q 3 e C _ :.| . . . - k *.. <.k J.                                                        $X-X-X$X$X                                      ",
"                                      eX(  .' ( Y a 5 ' ' }  .:.|.vX, . . * > %.g : +.l.] G.T.                                      ,X,X,X,X`.`.`.`.`.R.R.W.3X                                  ",
"                                        hXXX'.}.'.} ' '.jXNXZXXXvX>XX . . : X X.2., @.! G.h.-XG.%X    NXNX                2X1X1X,X`.*X`.`.`.`.`.W.P.R.R.R.K.T.%X3X                              ",
"                                        >.eX|  XrX'.| |.zXNXZXNXbXoX. . . d X #.O.+.f.# H.H.I.=Xl.G.OXbXNXNX  %X#X3X1X1X1X1X,X,X,X`.R.R.R.R.W.W.W.W.R.R.Y.I.I.T.0X0X                            ",
"                                      ,.z .X.X'. X'.-.,.vXmXCXAXZX_ X . . > : n X.h 1 9 W @.].=XW.F.g.E u.y.G.Y.$XQ.G.G.W.`.,X`.$X,X,XW.Y.Y.Y.W.Y.K.Y.Y.Q.K.H.%X5X0X                            ",
"                                    jX# > =.+X+XiXrX}.iX}.mXCXAXZX# * . O g #.n , 1 7 C n o.sXdX-XF.>XH.Z w.w.h.H.Y.W.#XQ.G.G.R.,XQ.W.W.W.W.Y.Y.Y.Y.Y.I.F.Y.H.3X7XfX                            ",
"                                    m g : = jXOXzXmX+X XbXZXAXCX{.. : . X b n @ 9 Z y , = v 4.kX[.3X<XS.] J.J Z J r.t.h.#XW.Y.x.Y.-XK.W.W.Q.Y.Y.I.F.F.I.F.T.%X3XfXfXfX                          ",
"                                  &.m < , * _ iXzXMXOXzXmXZXNX{.8 . r o , m - 9 7 @ : c g X.4.kX7.%X<X>X#XZ 0 Z y M h.Q.Q.I.k.k.s.F.#XY.R.$XW.R.Y.K.F.F.F.T.#X3X7XfXfX                          ",
"                                  eX>.d < O < OXrXiXzXvXmXCXjX1 @ o * * l : $ B @ ~ & - d O.3.kXhX* [.>X#Xf.W Z x.7 1 B p.K.K.P.K.F.n.z.x.x.H.I.H.I.F.F.T.Y.#X;X2XfXaX                          ",
"                                  ` d c c @ o h J.f. XzXmXjX4 1 # , . r , @ N $ q . e < X.O.5.hXsXp ] A.3XH.H.B V x.9 1 9 w.z.n.n.n.K.!.n.l.Q.U.N.K.T.I.I.H.T.#X3X6XfX                          ",
"                                #.t : , , X O X +X XrXMXoX. . . . . - > @ B 1 9 , @ q p n O.7.hXsXj qXE 4X-XH.t G.r.u.u 1 8 J p.n.z.z.m.^.P.r.!.n.^.).m.M.N.%XR.3X5X8X9X                        ",
"                                x +.f = * * < . + | }.) - O X . . - : . 0 M X 9 o , 8 a , 1.7.hX8.U.wXe.<X<XH.[.h.M B y.M 1 8 F p.p.z.n.!.^.y.z.!.m.n./.m.).n.n.-X3X5X8X                        ",
"                                z o.d , * O o . . $ 3 . O * , , : @ e 9 V 1 9 1 * , * a x &.4.sX].aXb.%X$X$X$Xh.] # ! 7 r.Z 7 B d.d.i.a.m.L.i.n.L.!./.m.L.!.&Xx.z.&X&X0X                        ",
"                              ;.* v o.v k : O . + $ I . . . O @ @ ; q 1 u X B 1 O O & m v o.4.4.qX>XT :XS.S.j.Z Z 1 Q.8 7 y.N 0 a.z.a.u.s.n.n.L.L.M.!._.^.m.L.&Xm.!.=X=X5X                      ",
"                              _ o.c c g n v @ .   1 1 4 . . . . % s y u 7 o 9 1 - < , / r k x .XuXc.c.x.! 7 . . f.y ,XQ 1 u Q V n.s.z.d.z.z.n.m.M.!.L.!.(.&X!.M./.&X*X4X4X4X                    ",
"                            <.1.&.o.X.v x b : =   j # 4 C # # Y U @ y u 8 X . = * - O z O +.p  Xx.y.K.c.R . . B W ! <Xt.H H 7 H z.d.s.d.z.z.n.n.M.m.M.!.~.(.&X(./.(.*X<X<X4X4X                  ",
"                            sX5.&.o.1.O.X.O.,       8 1 2 B y t 7 $ 7 y # X X * - * O 5 - - <.N.p.p.E I H.X 1 Z . G.1Xh.u.M B y F p.k.u.k.p.s.n.n.m.m.M.L./.~.(.(.*X&X*X<X4X6X4X                ",
"                            sXgX1.*.<.*.*.O.b         kX7.=.z z y # 1 8 $ $ # < O O + & n k 8.w.] z T 7 V + + . 9 -X<X-XN z.y.7 0 F u.u.s.u.y.p.x.m.P.P.L.)./.~.&X&X<X=X=X4X1X6X6X6X            ",
"                          4.sX5.X.c v v c h           kXsX5.k k x + s V.V i Y - = o r b h O.<.v 2.<.*.= + + . + F.-X*X*XV P.n.9 9 M Q e.t.t.u.u.e.p.x.P.E.^.E.~._.&X*X1X=X<X<X4X6X6X6X          ",
"                          8.2.c k %.*.%.n           kXsX5.&.c o x . . . . + @ @ * o a c O.*.+.O.O.3.3.O.. X # w.v.E.E.*Xh.P.L.N 7 y N w.e.e.t.i.r.u.y.s.U.E.E.E.(._.=X=X1X1X=X8X6X6XfX6X        ",
"                          b , O * k d g             kX7.2., X.o > . . . . . O o o X = f O.3.+.+.O.2.5.*._ 7 ~ C w.P.E.E.).m.!.t.u y 0 F e.9.0.t.t.e.y.e.u.Y.U.P.).&X*X=X=X1X=XfXfX4X8X5X8X      ",
"                        g + O , , : X -   . #.o @ ; , : , < , . - . . . . o O . < $ 1 O c sX+.O.<.sXsX! % a ~ ^ H e.R._._.z.~.p.D 9 0 M K 0.0.e.y.r.u.Q w.x.E.U.k.P._._.=X=X1X6XxX8X4X6X6XfXfX  ",
"                        O O < - : : O * . . . , p z @ , o O @ , : . . . . . . O + + & - - <.+.%.<.7.sX].h ~ / | j.D x.&X&XN.(.n.9.N 0 u N K r.w.e.t.t.F w.y.K.^.s.y.^.`._.,X1X4XfXfXfX6X6X=XfXcX",
"                        > - * ; r r   . . . . O w l x , o . O d > k k O > o o o . p l o.x x v =.3.7.*..Xa ^ _ | nXQ e.E.`.L./.P.u.S M y M N w.w.t.t.w.F y.w.s.^.y.r.R.`.).&X<X1XfXfXfXfX5X=X0X0X",
"                      b l & @ + - m : 1 4 . O m l $.$.O . . < h > < ^ + ~ + + W l / b f %.l &.2.1.7.] >._ -.-.:.  a Q x.*X`.!.^.n.w.D B B D D J w.e.w.w.e.K w.R.y.w.k.W.P.E.=X;X4XfXfX8X9X;X0X  ",
"                      > + r @ # ; ) P R U . g m d =.n . . . * : , & ......|.3 l l n f h +.x X.*.8.5.@X>.oX:.      t I t.`.*X!.(.^.p.9.D M N M D K 9.w.y.F w.N s.y.u.y.s.K.N.&X=X;X8XfXxX9X9X    ",
"                    k l ; m . . & , A.].> & m > - x m . . < = < - c o.O.#.o.> 3.k c c v g n *.1.3.+..X:.          3 5 H x.;X_.(._.m.e.K D N N N D K t.t.9.S M J u.s.e.r.y.k.T.#X;X<XfXxXxXaX    ",
"                    p O 3 U U P + / {.{.& $.l & , m d & < * < < k X.o.X.%.x O.1.c v : 2.: v <.3.<.^ %.            3 % 4 g.-X=X_.&X_.p.r.w.F N N M w.u.t.9.N M Q u.u.Q w.y.u.s.:X#X-X4XfXxX      ",
"                    3 I E ].S.A.. ) {.: ; l &.< p , , - < * O , f f O.v v %.%.%.%.3.f d f v c O.3.@.sX            w $ 4 A %X;X/.&X&XL.e.e.9.D N N 9.t.e.F B M r.u.r.Q w.r.y.u.R.I.:X;X6XxX      ",
"                4 P R }.+XA. .{.+ ,         .X-. .O , - < < O o . . * g O.<.%.&.2.%., = * g  .zXOX: , $ /         % # 1 4 j.-X/._.=X/.a.0.t.9.N D e.e.K N 0 N w.y.K K w.y.Q Q K.x.%XT.-X8X      ",
"          t 6 U V.zXoX].|.{.z ; l         >..X_ e 3 , , - O o . . . . m     X.d d - < < O :.jXjXjX; ; ; 3 @ $ z   ; # 4 4 A :XE.&X&X*Xm.i.t.e.F F r.K K N 0 M K r.K S r.u.D w.k.I.v.v.%X        ",
"      y 6 P A.VX+X}.@X,.  > r k           ;.-.a % a Y ; O O o o . . O         : , * < *  .| eXnXlX/ , , % 6 . z =.# @ 4 6 A R ;X_.&X&X/.i.a.e.u.9.K K Q D 0 M K w.D D y.r.S Q l.c.v.j.          ",
"  e 6 P A.ZXrXq.'.XX                        4.4 # # = y z I p o * l           -.| } I  .y ~ 6.VXBXXX, @ ..I @ X I % @ 1 6 A P ;X/.=X*X~.d.t.i.u.u.r.Q F D 0 V G K S N u.J F f.g.f.S.            ",
"  / '.jX Xq.j.A.                            / q q # 8 = , z r ) 4.              $.m @ & 8 i _ nXnXrX# a |.'.# . X % # 4 6 6 P C./.*X&X(.z.t.e.z.i.e.t.t.F N N N D F M S r.w.t.f.j.              ",
"        ` '.                                -.a # # , f n t r                     3.t # 1 e _ jXdX'.}.'.Y  .. . % # # 6 6 P P q.L.&X&X(.n.i.t.d.d.u.w.u.e.G M N D D V G 9.9.f.f.                ",
"                                              4.r : q <.` ; )                       =.q # t ^ dXjX' U U [ % + . # % 3 s A P T [ m._.&X&Xm.0.0.p.d.p.y.w.N.0.G B M Q G G H L Z                   ",
"                                              .X3.6.4.r ; r                           l q y ' '. .' I } % X . @ $ 6 s P P T R B.n.&X&X&X~.0.0.p.p.p.u.e.p.v.9.N M N K N P Z                     ",
"                                              .Xl t t ; q                               c h ( _ ] | 4.) % @ . + . Y Y P P R [ q.d._.&X&X/.a.K i.d.p.t.y.g.S.L 9.M M H C ^                       ",
"                                              ) l ; % # z                                 lXlX          $ + X + X U U T [ [ B.B.d.~.&X&X(.z.K 0.d.n.0.e.b.c.g.9.Z B B                           ",
"                                              z r @ @ q                                                 - + @ + + [ [ T T B.B.q.a.~._.&X(.M.K 9.p.x.t.e.c.c.S.q.E ^                             ",
"                                              l t @ =                                                   z - + X & B.B.B.[ C.C.E a.!.(.&X_.!.0.G p.N.e.g.g.c.g.%X                                ",
"                                              ) z r                                                     / @ + @ % C.Z.Z.B.C.C.D a.~./._.*X~.t.G e.N.g.g.c.[.R                                   ",
"                                                                                                        { q @ ; % C.C.Z.V.Z.Z.N a.~.^.&X&X(.i.G t.a.i.g.[.A.                                    ",
"                                                                                                        $.l z ; @ B.B.B.V.Z.R V z.^.^./.&X&Xd.D i.i.f.A.                                        ",
"                                                                                                        .X>.m % % [ B.Z.Z.C.P N d././.(.:X&XN.t.G g.^                                           ",
"                                                                                                        -.m z = $ [ C.Z.C.C.9 G z.)./.&X).;Xv.b.]                                               ",
"                                                                                                          ) z 3 % D.D.Z.V.E u L b.).:X:X:X:X>X                                                  ",
"                                                                                                          / 5 3     uXD.[ A u 9.n.).&X:X:X>X                                                    ",
"                                                                                                                    uXyXT u u r.N.N.:X:XqX                                                      ",
"                                                                                                                    pX[ u N u e.N.N.%X                                                          ",
"                                                                                                                  uXpX[ B V V i.N.[.                                                            ",
"                                                                                                                  yXyXS.B M i j.                                                                ",
"                                                                                                                  pXyXA.                                                                        ",
"                                                                                                                    Z.                                                                          "
};
