/* XPM */
static char *_118c098537a46c6f3c4e0ad5277b0bewrGdBu4WZwXJvxZq[] = {
/* columns rows colors chars-per-pixel */
"64 64 200 2 ",
"   c None",
".  c #030405",
"X  c #060609",
"o  c #0A0A0C",
"O  c #010515",
"+  c #030A14",
"@  c #0D0D11",
"#  c #020718",
"$  c #030B1B",
"%  c #090E1C",
"&  c #07101F",
"*  c #0B121D",
"=  c #0F1015",
"-  c #131214",
";  c #15151C",
":  c #191719",
">  c #1C1B1D",
",  c #030F20",
"<  c #041323",
"1  c #0A1422",
"2  c #051827",
"3  c #0D1A27",
"4  c #061C2A",
"5  c #0A1B2B",
"6  c #121521",
"7  c #131A24",
"8  c #1D1D23",
"9  c #141D2B",
"0  c #1B1D29",
"q  c #181721",
"w  c #221D22",
"e  c #2C1F25",
"r  c #281F29",
"t  c #07202E",
"y  c #09212F",
"u  c #1C242E",
"i  c #16212F",
"p  c #0C2532",
"a  c #0F2835",
"s  c #112433",
"d  c #1B2532",
"f  c #112937",
"g  c #1C2936",
"h  c #152C3A",
"j  c #1A2E3C",
"k  c #1A303E",
"l  c #252325",
"z  c #2C2226",
"x  c #23252B",
"c  c #2B252A",
"v  c #2C2A2D",
"b  c #332227",
"n  c #342529",
"m  c #3B262B",
"M  c #312C2E",
"N  c #232B35",
"B  c #2D2D32",
"V  c #252C38",
"C  c #312E32",
"Z  c #382F31",
"A  c #25313C",
"S  c #2B323C",
"D  c #2F3137",
"F  c #353134",
"G  c #3C3334",
"H  c #34363C",
"J  c #3B363A",
"K  c #3C393C",
"L  c #48292C",
"P  c #452C31",
"I  c #522D30",
"U  c #423334",
"Y  c #453C3D",
"T  c #453438",
"R  c #5C363A",
"E  c #61363A",
"W  c #6D3B3F",
"Q  c #1C3342",
"!  c #223645",
"~  c #293643",
"^  c #203847",
"/  c #2C3A46",
"(  c #243B4B",
")  c #293E4D",
"_  c #343943",
"`  c #3A3B42",
"'  c #343E49",
"]  c #383E48",
"[  c #433E42",
"{  c #663E42",
"}  c #35414D",
"|  c #3C424D",
" . c #2B4353",
".. c #324554",
"X. c #3C4552",
"o. c #344C5B",
"O. c #394E5D",
"+. c #324857",
"@. c #384F60",
"#. c #3C5363",
"$. c #464244",
"%. c #4C4344",
"&. c #44454C",
"*. c #46484F",
"=. c #544A4B",
"-. c #544948",
";. c #454A54",
":. c #4C4D55",
">. c #454B56",
",. c #544E52",
"<. c #584E54",
"1. c #48515C",
"2. c #5E5151",
"3. c #53545C",
"4. c #5A555B",
"5. c #535157",
"6. c #6E4246",
"7. c #754D51",
"8. c #645353",
"9. c #68595A",
"0. c #755055",
"q. c #73575A",
"w. c #70464A",
"e. c #425666",
"r. c #445A6A",
"t. c #485C6C",
"y. c #5C5D64",
"u. c #525F6C",
"i. c #735E60",
"p. c #695F65",
"a. c #4C6272",
"s. c #556B7B",
"d. c #5E6D7B",
"f. c #586774",
"g. c #676266",
"h. c #6B6265",
"j. c #67646C",
"k. c #7C6466",
"l. c #7A6669",
"z. c #7E696C",
"x. c #736468",
"c. c #6E717A",
"v. c #6F6C76",
"b. c #874548",
"n. c #836E71",
"m. c #817274",
"M. c #8B797C",
"N. c #927A7C",
"B. c #826B6C",
"V. c #5E7383",
"C. c #657A8A",
"Z. c #687B8A",
"A. c #787C82",
"S. c #8C7D81",
"D. c #977F81",
"F. c #7D838D",
"G. c #6E8494",
"H. c #768998",
"J. c #968285",
"K. c #9D8689",
"L. c #9B888B",
"P. c #808E9B",
"I. c #928C93",
"U. c #88939F",
"Y. c #908A91",
"T. c #AA8E90",
"R. c #AB9499",
"E. c #A99498",
"W. c #B19B9F",
"Q. c #B0979B",
"!. c #A2888C",
"~. c #8599A8",
"^. c #9C9FA7",
"/. c #A79CA3",
"(. c #B19CA1",
"). c #8FA1AF",
"_. c #9CA0A9",
"`. c #8EA1B0",
"'. c #99A8B6",
"]. c #BBA4A9",
"[. c #BDA8AD",
"{. c #B6A4AA",
"}. c #B1ABB1",
"|. c #C3ACB2",
" X c #C7B2B7",
".X c #CBB5BC",
"XX c #CEB8BF",
"oX c #ABB7C4",
"OX c #B8B8C1",
"+X c #D3BDC4",
"@X c #D9C4CA",
"#X c #D1D1D7",
"$X c #C6C6CE",
"%X c #E1CBD1",
"&X c #E9D6DA",
"*X c #E4D4D9",
"=X c #EDDCE0",
"-X c #E4DDE1",
";X c #F1E1E4",
":X c #F1F0F3",
/* pixels */
"                                                                                                                                ",
"                                                                                                                                ",
"                                                                                                                                ",
"                                                                                                                                ",
"                                                                                        M.m.$.%.                                ",
"                                                                                    C > c Y Y w ; F                             ",
"                                                                                  7 > - : l - o . = H                           ",
"                                                                                  v o @ > : - o @ @ -.,.                        ",
"                                                                    , %     1.1   6 . - z l o - l : l 9.                        ",
"                                                              ~ 5 , # # :., , $ 3 # Y 8.T : G l c o = -.                        ",
"                                                            f p / , # % ] , , q ; [ N.T.B.8.Y M v o - 2.                        ",
"                                                        Q Q 1.s 1 # # , :., # T 6 q.N.Q.R.E.N.k.9.G G =.                        ",
"                                                    s 5  .Q #.+.9 < $ 1 _ # # [ %.8.%.|.%X%X@X@XXXK.$.%.                        ",
"                                                  < , a s 2 ..! 5 , $ # 6 # # M %.8.J F  X&X;X;X&X%X=.                          ",
"                                                < , p , $ s ^.W.3 # $ N O O # C Y i.k.q.-.].W.@X%X=X}.                          ",
"                                                , 5 < $ < d C [ , $ 1 <.q # ` c P n.].N.E.J.f.h.K.OX                            ",
"                                              1 , y , $ # :.M 7 $ $ 7 I.E.# 4.8 n B.(.B.%X X+X+X@X2 f                           ",
"                                              , 2 $ # # # B x 6 % 1 u z.Y.# y.r c 2.P i.&X.X(.|.& 2 a O.                        ",
"                                              , , # # $ O % C v 2.1 D e 7 9 6 ` q T w D.+X.X+X4.& y h  .                        ",
"                                            5 $ # $ # $ O O % Z R.|.M.e O S 6 ` 7 =.q.!.(.(.i.w 7 p Q #.                        ",
"                          9             9 1 5 $ $ $ $ $ O O # $ $.S.l.b O D q 0 9 9.|.+X[.R m { s h Q o.G.                      ",
"                    5 $ $ , , , $ $ $ $ $ * 2 # # $ , $ O O O $ 2 A n m , N 3 , d #X/.-X{ E P R p a Q #.$X                      ",
"                  , $ $ , $ , # $ $ $ # # $ < # # $ 2 $ O O O # < ;.m m b Z.3 9.H J y.7.E c b.c p p k O.'.                      ",
"                , $ $ # # # # # $ $ # O # # $ # # $ 2 $ O O # $ 2 N r L e V w }.:.A 0.7.` w.R 2 4 y Q #.s.                      ",
"                $ # # # O # O O # # # # O O $ # # $ < $ $ # # < p 0 r L % $ v j p { 0.f.0.w.p < 4 h Q O.s.                      ",
"                # # # # # # # O # $ # # O O $ # # # < $ , 1 # $ J 1 8 m , 2 4 5 T 7.v.+XD.3.Q Q h Q Q  .r.                      ",
"                  # O # # # # $ # # $ # # # $ # # # $ $ , < $ 1 %.# r q < 2 2 T 6.4.F.:XG.+.Q p y Q Q #.s.                      ",
"                  $ # O # # # $ $ $ $ # $ $ $ # # # $ $ $ , 9 [ F # r $ 2 2 b E U ' e.G.#.) a t p Q +.t.~.                      ",
"                  1 $ # # $ $ $ $ $ $ $ $ $ $ # $ O $ # $ , < z.6 O $ , 2 m L 8 5 f ' @.Q f t t h Q r.V.                        ",
"                    $ $ , $ $ $ $ $ $ $ $ $ # $ # O $ # $ # $ g # O # $ < 6 , $ , 2 e.Q a t t y Q  .#.'.                        ",
"                      , < , $ , < , $ , $ ( $ # # O # # # $ # , O O # # # , # < (.] / y t t t Q ( @.V.`.                        ",
"                      5 < , < , < < < < a.$ O O # # O # $ $ $ # % # # # # # # _ [ N %X< 4 t t Q  .#.G.oX                        ",
"                        4 < < , , < < o.# O O # # + # # # $ $ # $ # # # # # O D ; H =Xv.* 5 y Q o.s.H.                          ",
"                        4 t 2 2 < < +.O # # $ $ # # # # $ # # # % # # # O O % w S.{.@X#X$ t h Q o.a.'.                          ",
"                      h < 2 < < <  .# O # & 2 < O # # # # # # O $ # # # # O 7 N Y g.L.4.1 2 p h Q #.~.                          ",
"                        4 2 2 2 Q % # $ $ 2 p p 2 $ # # # # # $ # # # # O # 1 c | j.z.1 4 t t h  .@.H.oX                        ",
"                          2 ( ! < O # # 2 p Q ( h < 2 O O O O O # $ # # # O # % F $.3.+ p p k Q  . .@.C.                        ",
"                          r.3 5 O # $ , y h  .+.( y 4 # X + $ O $ $ $ # O # # % + X + $ p p Q  . .A | #.                        ",
"                        r.# O O O # $ 2 p Q o.o. .y y & S 6 n # < # # # O O # % % + + & t p Q Q  .h / X.                        ",
"                  X.  ( Q X O O O # , 4 f  .O.@.p j # i K ( k Q Q h $ # O O O # l + + < y t Q ( Q a ^ } 1.                      ",
"                    h Q < O # # O # , t Q  .@.Q Q * + &.} ..      ( Q 5 O O # # e 1 % 1 p t p Q Q a h ' X.X.                    ",
"                2 2 $ 2 < $ # # # $ 2 a Q ) 9 5 s X < *.u             Q , O O , e e $ 1 p t t a h f h / | :.                    ",
"              1 , # # $ , 2 < < , < 4 p k     9 * o + + A               h O # # z w + 2 p p p h a h Q ! X.;.:.                  ",
"            < # # X O % f       5 2 4       v * + A B N O.Z.'.          Q # # # b = + 2 a a a h a Q Q ^ ( ;.>.:.                ",
"          s O O O # $ j                 5.c l . + y O.P.3.u.H.H.~.    3 # O # # e + + 4 y f f h h Q Q ( ( ) 3.4.1.              ",
"          1 # 3 & $ f                   > C @ X X i d.d.&.m.    C.  :.# O O # # z + + 4 p p a h h Q Q )  . . .3.9.              ",
"            , N u f +.                B o . . X i ( U.c 4.      f.  1 # O O O # r % + t p p f k Q Q )  . . . . .h.x.            ",
"              A >.                    c - . o . - : o M 4.      c.  g # O O # # b & + 2 y p a Q Q (  . .o. .o.o.#.f.n.h.        ",
"                                      w 8 . . . : X - > g.        _.V O # # $ 2 z * + $ t p f ^ (  . .o.@.@.#.s.V.C.s.z.x.      ",
"                                      v @ . . o o : w Z   F.        ~ # $ # < ..v ; & X 2 p f  . .+.@.#.#.a.V.~.                ",
"                                    &.: - . o . . : w &.              # $ $ k     b w O + a f                                   ",
"                                    F u - . . . X w K ,.            5 < < p } I.  8 L + O + f                                   ",
"                                      H - X . - > l &.g.            2 $  .A |       I m + X <                                   ",
"                                        S v l l > =.                $ < s h ;.        R # X O                                   ",
"                                            4.                      $ $ < f y.          b * +                                   ",
"                                                                    $ 5 5 ~ A.                                                  ",
"                                                                      g _ y.                                                    ",
"                                                                                                                                ",
"                                                                                                                                ",
"                                                                                                                                ",
"                                                                                                                                ",
"                                                                                                                                ",
"                                                                                                                                ",
"                                                                                                                                "
};
