/* XPM */
static char *_06e4b0a18704fcb8f59214d9fe11f7dCblC6JqiBnAHuYij[] = {
/* columns rows colors chars-per-pixel */
"64 64 247 2 ",
"   c None",
".  c #390504",
"X  c #251305",
"o  c #2E0901",
"O  c #480804",
"+  c #530302",
"@  c #580A07",
"#  c #4B1809",
"$  c #581705",
"%  c #590812",
"&  c #581D16",
"*  c #640C02",
"=  c #6B0E03",
"-  c #660605",
";  c #760805",
":  c #651504",
">  c #621B04",
",  c #681B07",
"<  c #731404",
"1  c #741C02",
"2  c #7A1C03",
"3  c #76150A",
"4  c #671813",
"5  c #781A11",
"6  c #462709",
"7  c #5B2403",
"8  c #582A06",
"9  c #572615",
"0  c #59391C",
"q  c #622204",
"w  c #6A2203",
"e  c #672B0A",
"r  c #742203",
"t  c #7A2404",
"y  c #732D04",
"u  c #792906",
"i  c #643507",
"p  c #783707",
"a  c #7A2516",
"s  c #763513",
"d  c #6C3C11",
"f  c #541922",
"g  c #583930",
"h  c #6D3525",
"j  c #713028",
"k  c #794608",
"l  c #714812",
"z  c #734F27",
"x  c #754B44",
"c  c #890803",
"v  c #930203",
"b  c #9D0103",
"n  c #821A02",
"m  c #871802",
"M  c #951906",
"N  c #8C1B14",
"B  c #941A16",
"V  c #A40A04",
"C  c #A80403",
"Z  c #BA0602",
"A  c #A71806",
"S  c #B51D04",
"D  c #B81807",
"F  c #AE1816",
"G  c #8C2303",
"H  c #832B05",
"J  c #892608",
"K  c #982607",
"L  c #843405",
"P  c #8B3C04",
"I  c #853808",
"U  c #963706",
"Y  c #872B13",
"T  c #9A2317",
"R  c #853D14",
"E  c #9F3F18",
"W  c #AA2C03",
"Q  c #A52606",
"!  c #BB2E04",
"~  c #B82906",
"^  c #A63506",
"/  c #BA3607",
"(  c #A73717",
")  c #AC2F19",
"_  c #863B37",
"`  c #91322B",
"'  c #BE3D2D",
"]  c #CA0201",
"[  c #DB0204",
"{  c #D60202",
"}  c #C91806",
"|  c #D81707",
" . c #C11914",
".. c #E60302",
"X. c #F50101",
"o. c #FE0401",
"O. c #F90B03",
"+. c #E91604",
"@. c #F71603",
"#. c #C72A06",
"$. c #D92807",
"%. c #C33C04",
"&. c #C83B09",
"*. c #D53404",
"=. c #D73C06",
"-. c #C93D10",
";. c #D43812",
":. c #E7270A",
">. c #F72904",
",. c #E63807",
"<. c #F73804",
"1. c #EC3F18",
"2. c #DD382C",
"3. c #E4393B",
"4. c #864604",
"5. c #974808",
"6. c #8B5808",
"7. c #96590A",
"8. c #8A4A16",
"9. c #9A4818",
"0. c #8B5715",
"q. c #975A17",
"w. c #AD4204",
"e. c #A54605",
"r. c #B84705",
"t. c #A95608",
"y. c #BC5404",
"u. c #B75B0A",
"i. c #A74B1B",
"p. c #BC4511",
"a. c #A85418",
"s. c #BE531A",
"d. c #966407",
"f. c #91611A",
"g. c #AC6609",
"h. c #BA6706",
"j. c #AA7606",
"k. c #B67404",
"l. c #AD6A19",
"z. c #B76D19",
"x. c #B27D1B",
"c. c #95452C",
"v. c #8E592F",
"b. c #A54523",
"n. c #A95829",
"m. c #B24D2C",
"M. c #956D33",
"N. c #907334",
"B. c #A67426",
"V. c #B66834",
"C. c #AE682A",
"Z. c #C84607",
"A. c #D64707",
"S. c #CE5204",
"D. c #CD5C03",
"F. c #C25409",
"G. c #D45503",
"H. c #DB5C04",
"J. c #D65808",
"K. c #D44618",
"L. c #D85516",
"P. c #C35015",
"I. c #E74904",
"U. c #F44803",
"Y. c #E65A05",
"T. c #F55706",
"R. c #E8521A",
"E. c #F4521E",
"W. c #C76905",
"Q. c #D86904",
"!. c #CA760A",
"~. c #DA7906",
"^. c #D47919",
"/. c #D76919",
"(. c #EB6C03",
"). c #E76805",
"_. c #FB6908",
"`. c #ED7404",
"'. c #EA7C06",
"]. c #E47A06",
"[. c #F77809",
"{. c #E86815",
"}. c #F26814",
"|. c #EB7913",
" X c #F77515",
".X c #C95628",
"XX c #EB4D2F",
"oX c #C37525",
"OX c #DC7724",
"+X c #C76E32",
"@X c #E66920",
"#X c #E66633",
"$X c #F57630",
"%X c #E07E52",
"&X c #B98814",
"*X c #BCA21D",
"=X c #CD8C09",
"-X c #D98409",
";X c #D8960B",
":X c #C58315",
">X c #D4951C",
",X c #EC8403",
"<X c #E88A0A",
"1X c #F78605",
"2X c #EA9406",
"3X c #F89607",
"4X c #E48415",
"5X c #F88515",
"6X c #F69412",
"7X c #DDA205",
"8X c #EBA904",
"9X c #FBA907",
"0X c #FDB808",
"qX c #E5A814",
"wX c #F5A916",
"eX c #F9BA15",
"rX c #E2B40D",
"tX c #DE8628",
"yX c #E4872B",
"uX c #F68D29",
"iX c #EB8B33",
"pX c #F98639",
"aX c #E79738",
"sX c #F5982F",
"dX c #D2AE37",
"fX c #F6A22B",
"gX c #F4B229",
"hX c #E1B33D",
"jX c #F1AC32",
"kX c #FDC806",
"lX c #FBD705",
"zX c #FBCA17",
"xX c #F0CE0C",
"cX c #FFF301",
"vX c #F9E104",
"bX c #F3C332",
"nX c #F9EC30",
"mX c #EE9455",
"MX c #D3A852",
"NX c #E9AA5C",
"BX c #F4B250",
"VX c #D7AC67",
"CX c #F7B66D",
"ZX c #F88E70",
"AX c #F7E257",
"SX c #FAD672",
"DX c #F6B589",
/* pixels */
"                                                                                                                                ",
"                                                                                                                                ",
"                                                                                                                                ",
"                                                                                                                                ",
"                                                                                                                                ",
"                                                                                                                                ",
"                                                                                                                                ",
"                                                                                                                                ",
"                                                                                                                                ",
"z.f `                                                                                                                           ",
"X &Xh.4 z P.@ _                                                                                                                 ",
"r.o X j.1X; 6 g.%.N ` 2.                                                                                                        ",
"# =XW.1 . k y.Z.M r (.&.Q N m.#X                                                                                                ",
").m i j.,Xr.G : 4.W.S.Z.y.8X'.L.~ / ^.                                                                                          ",
"p -X~.W - e.F.].Q.W U U j.~.].[.8XlX9X(.U.}.                                                                                    ",
"w.n 5.t.2XY.&.! / ^ W.W.8Xh.W.F.Q.].].9XzXuX$.                                                                                  ",
"=X3XD.^ n G K F.Z.G.G.W.).Q.(.`.`.`.<XgXjXfX$X2.,.                                                                              ",
"* L h.~.|.G.).*.*.$.#.*.G.`.].,X,X1XzXgXtXtXfXuXmX#.                                                                            ",
"w.W W K : G 2 M M M ! ~ H.S.~.(.`.`.|.bXjXtXaXyX$XCX~                                                                           ",
"$ P h.!.G.Z.`.G.W.S.P.Q.w.W.!.=X2X~.3X2X6X<XBXsX<XsXDX;.                                                                        ",
"; = 3 3 * K 2 L , H ^ m F.y.!.~.W.;X~.2X2X,X1XgXgX{.pXmX}.                                                                      ",
"  .XA.D.D.!.,XD.'.Q.!.u.u L 2 U ~.W.~.'.~.2X9XzXwX}. XBXK. X                                                                    ",
"      tXrX=XW.t.H t O r W Z.1Xh.6.^ M Z.(.Y.).(.5XjX}.5XaXD  X                            {.-.p.Y R R ( Y c.g x c.h a           ",
"    ) T a 1 + ; c W Y.~.2Xe.= < G Q.].e.4.w./ %.H.4X3X6XpXV.*.wX                      {.-.( n.l.N.N.B.f.d 8 0 # # s L s n a     ",
"      M ; ; A %.[./.B.l @ + < !.k.q : m Q w.W.t.t.G.3X0X5XSXi.! 4X                <XF.( V.VXSXbXdXMX&X=X&Xk k u H l 6 6 0 v.    ",
"                .X` f O O J ^ : ; m w.F.r $ > u e.y.Z.Q.[.uXNXs./ |.          wX|.e.s v.MXCXjXqX&Xd.4.6.6.k 8 8 q , r u U q # h ",
"                F N - - a   T V P.OXy 7 t.u.I e $ 1 3 K A.3XpXMX; F.W.+._.qXqX).T , v.+XoXn.8.6.j.p k k k k 8 # $ $ q w 7 k k 9.",
"                                      yX    M.f.p y U W #.[.$XNX4 ( k.V O.} &.N 4 <X.X9.e 9 9 i i 4.i k d.d.k 7 w r t w G 2 y $ ",
"                                            7.e H P w.S._.$.{.CXR - u.5.C c { >.T.Z - R e 6.8.q.j.j.z.i l 6.6.5.w , H H t I L p ",
"                                            C.0.1 n m S 5XT.:.ZXz.O G u.$ ; V $.[.U.I.0XeX            z.l k k k y $ q H r Q 2 L ",
"                                            x.9.P * M V A [.XXDXiX. > u 1 O Q U.T.3X(.,XcX0XkXcXkX      v.z 7.k i $ q i y > ^ P ",
"                                            *Xf.y H 2 W I.U.E.ZX#X- * 1 ; . v #.=.I.'.kXvXxXrXnXnXeX~         t.l l I 6.I k $ 8 ",
"                                              M.R y K #.6XeX XXXR.| } ; - c ..X.>.+.+.=.#.Z c g x t :XAX        0.0 0.l.5.t.I K ",
"                                          aX{.9.z 8.= ,.fXzX>.>.+.| D + + b X.X.{ o.o.{ { o.Z # t.*.yX>XhX          0 q.a.P U Y ",
"                      T             _.gXOX{.-.J.n.- z. X[.@.O.o.[ [ ] O . ] o.O.A B V : 3           .X                0         ",
"                    B D E.K.;.-.I.I._.6XH.Z.Z.Z.A ) p.:.O.@.U.>.@.O.Z - . M                                                     ",
"                  c ; | ) -.! ~ P.-.U.T.I.A.#.Z.~ D +.@.O.1X0X3XT.v Z :.                                                        ",
"                  N M Y.Q J.^ / ^ A.Q } D ! ~ A S } :.O.<.9XvXlXm W _._.                                                        ",
"                  5 4 $.K Q.S.i.p.S Q ~ *.A ~ } C { +.@.U.'.lX2X; T.kX                                                          ",
"                    * T $.&.i.) E a.e , ! L.{.{.:.:.+...| I.0XQ.v (.kX                                                          ",
"                      @ = W / V.8.@ % % ; F 3.#XE.1.@.{ C &.kX%.M {.R.                                                          ",
"                        . : n.s + < 5 3 % % B F }  .:.Z v *.9XS.G hXS _.                                                        ",
"                              4 j Y 4 4 * 4 - % ; c } | v Z 9X&.u.&XE R.6X    dX                                                ",
"                                    j j j j N Y T Y B   F b G.9X-X!.>XT $.  zX1X                                                ",
"                                                          F M kX~.Q.,Xl.c.8X~.+X2XM.                                            ",
"                                                            2X XY.A.-.G 7X(.G.<X^.                                              ",
"                                                        aXwXY.#.      -XI.Q 9.F.!.                                              ",
"                                                        OXA.        qXQ.                                                        ",
"                                                                    c.                                                          ",
"                                                                                                                                ",
"                                                                                                                                ",
"                                                                                                                                ",
"                                                                                                                                ",
"                                                                                                                                ",
"                                                                                                                                ",
"                                                                                                                                ",
"                                                                                                                                ",
"                                                                                                                                ",
"                                                                                                                                ",
"                                                                                                                                ",
"                                                                                                                                ",
"                                                                                                                                ",
"                                                                                                                                ",
"                                                                                                                                "
};
