/* XPM */
static char *faa4a9f8ae8e4b0ca29a142160e298ddU47uXappz1TQZsTX[] = {
/* columns rows colors chars-per-pixel */
"64 64 204 2 ",
"   c None",
".  c #241C4B",
"X  c #252257",
"o  c #26235B",
"O  c #28245D",
"+  c #272462",
"@  c #2A2563",
"#  c #2B2965",
"$  c #2B256C",
"%  c #2E2B6C",
"&  c #27246A",
"*  c #32266B",
"=  c #312B6E",
"-  c #312361",
";  c #2F306D",
":  c #30316F",
">  c #2D2573",
",  c #2F2B71",
"<  c #2E257A",
"1  c #2F287A",
"2  c #302675",
"3  c #322C73",
"4  c #392C72",
"5  c #31267D",
"6  c #352D7A",
"7  c #3B2F7D",
"8  c #323174",
"9  c #35337B",
"0  c #39357D",
"q  c #373878",
"w  c #3A397F",
"e  c #332785",
"r  c #332A84",
"t  c #3A2F83",
"y  c #352788",
"u  c #36298B",
"i  c #39298E",
"p  c #373281",
"a  c #3A3484",
"s  c #373981",
"d  c #3B3A85",
"f  c #3D358B",
"g  c #3E3A8B",
"h  c #362990",
"j  c #3B2B95",
"k  c #3E2C9B",
"l  c #3F3592",
"z  c #3E3B91",
"x  c #3E2DA0",
"c  c #423282",
"v  c #413D85",
"b  c #41358C",
"n  c #413C8C",
"m  c #4B388D",
"M  c #402F9B",
"N  c #413693",
"B  c #423B94",
"V  c #453C9B",
"C  c #493E9D",
"Z  c #4D3692",
"A  c #503F94",
"S  c #533B9E",
"D  c #432EA5",
"F  c #452EAC",
"G  c #493EA3",
"H  c #4731AF",
"J  c #4830AF",
"K  c #4C3FA8",
"L  c #563DA5",
"P  c #5B3FAC",
"I  c #4A31B4",
"U  c #4C33BA",
"Y  c #503DB9",
"T  c #5033BD",
"R  c #3F4089",
"E  c #44428D",
"W  c #49458E",
"Q  c #454294",
"!  c #494495",
"~  c #46429B",
"^  c #4A449C",
"/  c #4D4B9D",
"(  c #494B96",
")  c #514C93",
"_  c #50469D",
"`  c #504899",
"'  c #594C9E",
"]  c #4641A3",
"[  c #4B43A3",
"{  c #4D49A2",
"}  c #4E44AB",
"|  c #4D49A9",
" . c #5945A6",
".. c #524CA4",
"X. c #5144AD",
"o. c #5C47AC",
"O. c #534CAB",
"+. c #5A4DAB",
"@. c #5B57A6",
"#. c #5C58A0",
"$. c #5753AC",
"%. c #5B54AD",
"&. c #5756A9",
"*. c #5246B2",
"=. c #5E44B4",
"-. c #554BB3",
";. c #5C4BB7",
":. c #5747B9",
">. c #574BBB",
",. c #5A4DBD",
"<. c #5B52B4",
"1. c #5F5FB2",
"2. c #5C52BB",
"3. c #5D5ABF",
"4. c #5652B5",
"5. c #614BB3",
"6. c #6244BB",
"7. c #624ABA",
"8. c #6B4FBA",
"9. c #655AB4",
"0. c #6156B9",
"q. c #6952BF",
"w. c #645CBA",
"e. c #6E55B6",
"r. c #7358BA",
"t. c #6B62B9",
"y. c #756EB8",
"u. c #7269B2",
"i. c #4F33C1",
"p. c #5134C5",
"a. c #5436CB",
"s. c #563BCE",
"d. c #5836D2",
"f. c #5638D1",
"g. c #5A39D5",
"h. c #5D3ADB",
"j. c #603DDF",
"k. c #613DE3",
"l. c #643DE9",
"z. c #5B4EC4",
"x. c #5D51C4",
"c. c #5E52CA",
"v. c #6547C3",
"b. c #674AC2",
"n. c #6A4AC4",
"m. c #6A4ACE",
"M. c #6254C1",
"N. c #6355C4",
"B. c #6B52C3",
"V. c #6355CC",
"C. c #6C55CE",
"Z. c #665ACD",
"A. c #655BCB",
"S. c #6A5ECD",
"D. c #7758CD",
"F. c #7455C7",
"G. c #6D4CD3",
"H. c #6B49DD",
"J. c #704DDC",
"K. c #6557D0",
"L. c #675AD2",
"P. c #6A5DD1",
"I. c #6C5FD5",
"U. c #6B5DDA",
"Y. c #7150D6",
"T. c #765AD3",
"R. c #7453DA",
"E. c #7B5ADB",
"W. c #7067C3",
"Q. c #7065CD",
"!. c #756BCF",
"~. c #736BC4",
"^. c #7B72CB",
"/. c #6A60D8",
"(. c #7465D4",
"). c #7062DC",
"_. c #786BD4",
"`. c #6C46E7",
"'. c #6F4AE5",
"]. c #6642EB",
"[. c #6B45ED",
"{. c #6F49EE",
"}. c #724FEE",
"|. c #724EE2",
" X c #7452E3",
".X c #7755EB",
"XX c #6B44F1",
"oX c #6F4AF2",
"OX c #764FF6",
"+X c #7A55F5",
"@X c #7366E3",
"#X c #7668E2",
"$X c #7669E9",
"%X c #7B6DE1",
"&X c #7D6FF5",
"*X c #867BCD",
"=X c #8060D6",
"-X c #8567DD",
";X c #815FE6",
":X c #8765E9",
">X c #8361E6",
",X c #8375E7",
"<X c #917FE5",
"1X c #8874F0",
/* pixels */
"                                                                                                                                ",
"                                                                                                                                ",
"                                                                                                                                ",
"                                                                                                                                ",
"                                                                                                                                ",
"                                                                                                                                ",
"                                                                                                                                ",
"                                                                                                                                ",
"                                                                                                                                ",
"                                                                                                                                ",
"                                                                                                                                ",
"                                                      ^ n V B n Q d B ^                                                         ",
"                                                >.^ z } N N ~ <.! g a d V -./.                                                  ",
"                                            x.c.c.1.[ 2.V } Q.<X!.^ g d g ^ *.2.n                                               ",
"                                        O.Z.z.>.L.} x.x.O.+.+.N.[ s Q N ..O.N.;.g d a                                           ",
"                                      / N c.>.z.x.4.z.).Z.,.C :.X.f 9 ~ ~ B [ :.V O.! 8                                         ",
"                                    V g d z.z.I.P.] } c.>.z.(.:.z.f f g z z -.Q.z ~ Q 0 0 :                                     ",
"                                  n g 9 ^ L.$XP.2.C V K.K Z.V.K *.p n ^ C ..-.Z.R ] +.| b q :                                   ",
"                                -.^ g n ^ *.&XS.} B L.*.B V *.V C f p _ ~ %.V } } ] | Q d w W t.                                ",
"                              x.#Xc.] B ] B 1X%Xc.X.N.*.C B V K V ^ N C n V V B V [ S.Q 9 0 : !                                 ",
"                            ~ V.I.U.*.G } } @X,X/.P.2.N %.B +.!.[ V G N t V N o.} z.-.{ &.n 0 w d                               ",
"                            +.,.>.V.z.z.c.C x.@Xz.M.f b b B 7 ` a [ f f f N V.$XU.z.>.^.%.0 ! b f n                             ",
"                          %.^ g *.z.V.,.K ^ V z.X.N.[ B n 4 $ @ * C t 6 Q N.K.z.z.c.2.d u.v d N a ..                            ",
"                          / s n w.S.S.N.N ^ ^ V G [ -.f 6 % + X @ a 3 8 a *.} V :.K.G 4 a W a V N O.B                           ",
"                        Q g g 3.O.*XQ.[ 6 , 9 6 9 8 ~ $ - > > o @ 6 $ % 6 G } N C ,.N 6 a d 9 n V G -.                          ",
"                        3.] R | %.b V [ n 4 6 9 6 o 3 $ o & & $ $ r O + N X.p * 6 N 7 d V f B ! N 2.1.E                         ",
"                        4.$.$.B V 8 b d 3 3 3 % o X + > $ < y i e e > l f f 2 $ 6 b 6 3 ..! p b V O.2.g                         ",
"                      [ -.| | d ^ a 8 3 3 % O o + + > e M D F J F D k j 5 2 7 7 t 2 p 9 a ..^ G N B ~ 0                         ",
"                      ~ -.^.Q p 0 a 6 0 3 # $ o $ e j F p.g.k.j.k.g.p.I i e 2 * 4 6 p 6 6 p f 3.*.] V q                         ",
"                      z [ O.V d 9 4 p d p 2 t 3 e k T j.{.:XG.R.G.'.[.d.J j 2 $ 2 6 3 t 4 t V } Z.W.g n                         ",
"                      V ~ V 0.n Q / d 6 7 3 = 1 j U h.'.E.n.n.D.F.n.J.}.h.F y $ + + % 2 6 f C *.3.f a a q                       ",
"                      ^ | ] -.~ b Q 8 % # $ > 5 D h.+X X-XC.6.7.P P E.|.l.p.j > o @ , 2 3 a C 2.^ f 9 q W                       ",
"                      g V ] ] z f p % % @ + 2 i I l.|.=XT.=.S L 5.=.8.n.{.h.J y $ # 2 6 6 d N 2.f 6 6 ) )                       ",
"                      g z V } } N d , 8 # O 1 j a.{.>X6.n.o. . . .e.8.6..Xl.T M y 2 4 , t N C._.w.3 q q 8                       ",
"                      } f Q ] ~ V f % @ O o > k g.XX;X6.q.+.A 4 c Z S 6.|.XXs.Y l 2 # % 2 N K X.M.d 8 %                         ",
"                      / z w.&.p K f 6 % O X & u p.XXG.B.5.b m - * m r.6. Xk.U M 2 $ 3 $ , l *.*.~ 6 6 q                         ",
"                      q s ~./ 8 b l 0 % O X $ u J ].J.T.L c * - 0 5.B.b.+Xh.F e + @ , 8 9 f G G p 3 9 {                         ",
"                        s R ( 9 9 3 % % O o @ 1 k f.{.Y.L 7 O . 4 o.5.m.[.i.j 5 $ o % 3 p a f s R g f [                         ",
"                        / 1.s 0 8 3 # # o o o > h U l.OXR.o.' = c 7.R.{.g.D e $ o + # 0 Q ( s d 8 q d <.                        ",
"                        &.R 9 q # 9 # # o o O + 5 k a.].oX Xv.v.G.H.].d.F u $ @ + # # g 9 d Q % # 8 s                           ",
"                          E ( ; q 8 # # O o O o + 5 M U a.k.[.].[.g.i.H i > + o X o 3 b , 8 9 , % 8 w                           ",
"                          s R R / s d % % # # # @ $ 5 i x F I I I H k e > + X o @ # % , 8 6 f 9 d {                             ",
"                            q g Q % q q # O o # # X + & < e e u u y e > 2 2 + + # = % q q a n $.B ~                             ",
"                            ~ s / 9 3 3 : # o # @ @ % & $ > > $ & > , , 6 0 3 8 # 8 8 8 d 6 ^ f <.                              ",
"                              Q s g q : 8 ; % , a 6 t 6 3 $ > 3 1 1 > a t 6 % # # # # E 8 #.(.|                                 ",
"                                9 a 8 8 = q g ] C N V t 2 3 6 t 6 6 6 6 3 8 6 Q E 8 ; W ~.y.-.%.                                ",
"                                  8 E q 8 6 8 [ -.V a = 2 d f t f f t t 6 f ^ 9 8 ; % g d a q                                   ",
"                                    q R d 8 9 ! [ 6 t 0 6 a N 6 n l f t l M.G 0 8 ; s R q 8                                     ",
"                                      g g g 6 a 9 a B V ! E 9.` Q +.| g n g 0 0 9 q d q                                         ",
"                                        g Q q g &.g g d g O.w.E s 4.^ 3.E 8 n / | / s                                           ",
"                                            t.g g g a 8 = 8 = 8 8 d Q { d g { (.}                                               ",
"                                                9 f B d n n 8 6 p f a Q Q z B                                                   ",
"                                                        g g d p d a d                                                           ",
"                                                                                                                                ",
"                                                                                                                                ",
"                                                                                                                                ",
"                                                                                                                                ",
"                                                                                                                                ",
"                                                                                                                                ",
"                                                                                                                                ",
"                                                                                                                                ",
"                                                                                                                                ",
"                                                                                                                                ",
"                                                                                                                                "
};
