/* XPM */
static char *_aff1a522a6146d2d8043ba45cb1a0f0sCY7NmB65Llg0T3y[] = {
/* columns rows colors chars-per-pixel */
"64 40 206 2 ",
"   c None",
".  c #0B0807",
"X  c #130D0B",
"o  c #16100E",
"O  c #1C1411",
"+  c #1A1513",
"@  c #201613",
"#  c #231A16",
"$  c #251C19",
"%  c #2A1E1B",
"&  c #2C221D",
"*  c #39291F",
"=  c #33241B",
"-  c #2D2621",
";  c #322622",
":  c #3A2720",
">  c #352B24",
",  c #3A2B24",
"<  c #3D2F2B",
"1  c #3E332B",
"2  c #3B3027",
"3  c #4B311F",
"4  c #50311E",
"5  c #402D24",
"6  c #453126",
"7  c #4A3525",
"8  c #44352B",
"9  c #4B362C",
"0  c #4B3A2D",
"q  c #4D3826",
"w  c #543C2B",
"e  c #5A3E2B",
"r  c #553A28",
"t  c #453A30",
"y  c #4A3B31",
"u  c #533F32",
"i  c #603D2E",
"p  c #5C412D",
"a  c #58442F",
"s  c #534134",
"d  c #5B4C3A",
"f  c #574338",
"g  c #5D513E",
"h  c #64442D",
"j  c #6C452C",
"k  c #6B4A2C",
"l  c #744C2C",
"z  c #7A4D2C",
"x  c #78432B",
"c  c #654732",
"v  c #684B36",
"b  c #744C34",
"n  c #6A563D",
"m  c #695337",
"M  c #745334",
"N  c #7B5133",
"B  c #77573A",
"V  c #79522B",
"C  c #7B603D",
"Z  c #4F4843",
"A  c #635341",
"S  c #6C5444",
"D  c #6A5949",
"F  c #7B5B41",
"G  c #6B5E55",
"H  c #786B59",
"J  c #716455",
"K  c #6D6D6D",
"L  c #834C29",
"P  c #834527",
"I  c #85532D",
"U  c #895A2C",
"Y  c #8E5A27",
"T  c #945B2B",
"R  c #9A5B2A",
"E  c #865B33",
"W  c #895834",
"Q  c #955A33",
"!  c #974F2E",
"~  c #A25733",
"^  c #A35B2E",
"/  c #83633C",
"(  c #8B6136",
")  c #9A6036",
"_  c #AE6B2A",
"`  c #A9652C",
"'  c #BB662E",
"]  c #AF702F",
"[  c #A66537",
"{  c #B36733",
"}  c #AD743E",
"|  c #C6732B",
" . c #C86F3C",
".. c #806342",
"X. c #83725A",
"o. c #9D6D4B",
"O. c #AA7149",
"+. c #D07B42",
"@. c #DF933F",
"#. c #D68638",
"$. c #E18633",
"%. c #EDA335",
"&. c #B98341",
"*. c #998776",
"=. c #938069",
"-. c #AA8F6F",
";. c #DF8E48",
":. c #DF9443",
">. c #DD9857",
",. c #C58E4C",
"<. c #D4A15A",
"1. c #E1AD5D",
"2. c #F3B35A",
"3. c #EBB264",
"4. c #F8CF7F",
"5. c #FBD375",
"6. c #797F83",
"7. c #7B8184",
"8. c #7E8588",
"9. c #838A8D",
"0. c #898E93",
"q. c #8E9295",
"w. c #8B9396",
"e. c #959A9E",
"r. c #999897",
"t. c #A69A8F",
"y. c #979CA0",
"u. c #9DA2A5",
"i. c #9BA6AA",
"p. c #A4AAAD",
"a. c #A5A6A7",
"s. c #B1ACA9",
"d. c #A6ACB0",
"f. c #AAAFB2",
"g. c #AEB3B4",
"h. c #ADB6B9",
"j. c #B3B5B6",
"k. c #BAB6B3",
"l. c #BDB9B6",
"z. c #B2B6B9",
"x. c #B5B9BC",
"c. c #BBBDBE",
"v. c #B8B3AE",
"b. c #C0B5AE",
"n. c #C2BEBC",
"m. c #C9BFB8",
"M. c #C6C2BE",
"N. c #CCC4BC",
"B. c #D0C4BE",
"V. c #BABDC0",
"C. c #BEC2C4",
"Z. c #BFC5C9",
"A. c #C3C4C4",
"S. c #CAC6C2",
"D. c #CDC9C6",
"F. c #C3C6C9",
"G. c #C5CACD",
"H. c #CCCCCB",
"J. c #C4C8C6",
"K. c #D2CBC5",
"L. c #D2CECA",
"P. c #D8CFC8",
"I. c #D6CAC3",
"U. c #D5D1CD",
"Y. c #DAD2CC",
"T. c #DFD8CE",
"R. c #CBCED1",
"E. c #C6CCD0",
"W. c #CDD2D4",
"Q. c #CFD9DB",
"!. c #D4D3D3",
"~. c #DAD6D3",
"^. c #DDD9D6",
"/. c #D1D6D9",
"(. c #D5DADC",
"). c #DCDBDB",
"_. c #D6D8D6",
"`. c #E1DCD6",
"'. c #E1DDDA",
"]. c #E2DFDC",
"[. c #E1DDDA",
"{. c #E0D6D4",
"}. c #E4E0DD",
"|. c #E6E2DF",
" X c #E6E1DE",
".X c #E4E1DE",
"XX c #E9E4DF",
"oX c #F9EBD6",
"OX c #DBDEE1",
"+X c #D7DEE0",
"@X c #DCE1E3",
"#X c #E7E3E0",
"$X c #E6E4E1",
"%X c #E9E4E1",
"&X c #E9E5E2",
"*X c #EAE6E3",
"=X c #EBE7E4",
"-X c #EBE6E2",
";X c #EDE9E6",
":X c #EBE9E5",
">X c #ECEAE9",
",X c #F1EEEC",
"<X c #F2E9E2",
"1X c #F3F1EF",
"2X c #FEFEFC",
"3X c #F7F5F3",
/* pixels */
"                                                                                v.^.L.Y.k.s.'.!.].D.                            ",
"                                                                    n.S.s.^.&X,XY.{.D.U.^.L.Y.A.H.S.D.D.D.P.L.                  ",
"                                                              N.l.U.`.|.^.|.`. X|.L.].~.'.^.L.L.L.~.L.L.U.L.L.L.^.).            ",
"                                                        |.L.^..X|. X X|.`.|.|.`.].|.].^.'.'.^.{.^.L.L.L.L.!.!.R._.H.V.A.*X      ",
"                                                    D.K. X|.&X;X'.%X%X#X%X'.|.].{.#X|.'.'.'.{.~.~.U.L.S.S.A.H.H.R.G.F.F.J.  ).>X",
"                                                #XU.XX1X&X&X$X-X%X^.|.%X%X&X%X].|.~.).^.~.~.^.H.L.H.A.A.A.C.A.C.C.F.            ",
"                                            K.~.XX>X;X&XXX&X-X&X%X%X%X#X#X#X].].'.'.L.L.!.D.!.F.V.A.A.z.g.z.z.f.                ",
"                                        U.M.`.,X;X*X^.&X&X&X|.&X&X%X^.].].^.^.].).).!.A.D.C.k.V.x.c.c.V.j.R.                    ",
"                                      ~.'.;X|.-XL.%X*XL.;X>X&X&X*X#X'.L.^.^.!.A.R.F.A.n.z.j.p.j.h.f.c.c.                        ",
"                                  P.S.). X;X'.%X*XL.*X*XL.*X*X].].#X^.!.A.H.F.A.k.V.c.u.l.d.y.e.z.C.                            ",
"                                K.|.].&X&X|.-X&X*X*XU.#X|.~.].^.!.!.R.H.G.V.z.h.V.a.y.F.0.y.a.w.                                ",
"                            K.M.&X`.`.%X|.|.|.|.#X#X~.^.!.H.!.H.F.V.C.f.g.f.p.u.p.c.9.8.w.y.p.                                  ",
"                          ^.-X XL.^.Y.D.^.'.[.].].^.~.A.H.A.x.F.V.j.p.p.e.e.w.y.0.y.q.6.6.$X                                    ",
"                        <X,XI.I.Y.{.~.K.P.`.`.].^.^.!.R.z.C.x.f.V.d.d.d.y.7.6.8.0.0.u.R.                                        ",
"                    T.P.I.N.I.P.I.I.L.S.                F.C.Z.x.z.h.d.y.f.9.8.7.K z.                                            ",
"                  `.N.B.N.N.                                          x.y.q.K w.                                  g.F.          ",
"                T.b.I.B.                                                                                    j._.  W.            ",
"              P.                                                                                      M.l.^.  S.  F.            ",
"        A.n.t.S ..Q M k e 0 y H                                                                 S.D.3XU.  H.^.H.C.              ",
"        t.n.> u B W N _ _ _ U y D                                                         #X  k.      L._._.).!.A.              ",
"        8 u F O.o.R L R R I j t y H                                                 S.&X    L.  U.  ].  _.].OXOX                ",
"      S Z v S i V R $.' I c e 7 b 2 X.                                        ~.,X      '.  L.^.^.].`.@X  )._.                  ",
"    G v e c i I U ` @.) z j 7 5 W 8 0 -.                              M.^.,X&X>X^.*X~.U.L.^.  ^.~.)..X.X).).                    ",
"    B N e e c S [ L #.:.l 6 6 8 h 8 0 S                         S.L.1X  M.U.].L.^.!.^.D.^.^.^.  ^.)..X  OX                      ",
"  ( B w h 6 c V Q M I >.] q > > 2 Q 7 8 -.              ~.M..X:X3X,X^.U.M.S.L.H.D.L.Y. X^.U.!.^.).$X).).                        ",
"  Q N w q p k t a { I I U * 1 - 2 e . = B     Y.U.l.^.1X^.^.K.L.!.U.^.S.n.M.S.U.^.^.!.~.^.^.).).(.@X                            ",
"D ( = 7 e e 0 6 s k o.d Y V d y 1 & O # 0 t.N.`.T.].].v.U.~.`.U.U.~.U.^.D.D.  ^.~.^././.!.!.(.).OX                              ",
"C I p h a 6 * 6 8 , d &.B.5.} m 1 % O ; , S 3X'.^.K.Y.M.n.K.U.^.D.~.^.!.U.H.H.  !.L.R././._.+X).(.                              ",
"C k Y V q 5 > & . - g <.2X2X,.n L x % . @ d P.N.P.I.B.^.s.N.).`.!.S.~.!.T.!._.W.  /.!.OX+XOX(.(.                                ",
"/ 3 p k l r ; $ X > A <.2XoX' x y , & $ @ G K.Y.N.P.~.U.}.r.M..X).U.A.!._.  (.)./.  _.W.(.(.+X                                  ",
"C k U T j e V a O t n 1. .Q 3.E y % + o X H S.Y.U.K.P.~.  .Xu.l.^.).W.C.!.(.  (././.    W.                                      ",
"X.B p h ] | | E a , P x 2.2.+.v 6 o O X - *.D.D.`.U.U.U.^.  ).j.x.(.R.R.Z.F.OX  +X+X@X                                          ",
"  n 7 v 0 $.%.R P * f E N >.;.t 8 o + $ & K.^.U.U.^.^.^.U.).  ).C.p.(.W./.Z.Z.@X(.  @X                                          ",
"  o 2 p 5 4 Y Q p 0 $ r b O.{ w $ % ; > 2       U.U.^.(.(._.@X  G.G.d.Q.W.(.Q.Z.E.                                              ",
"  Z q > 0 s _ W r * $ @ % e j 9 $ > - &                 !._.W.(.  h.W.i.E.@X@X@X                                                ",
"    & * l y I 8 ; = & : r y % o & % % J                             f.V.i.                                                      ",
"      $ ; Q y c e w j j j L l ; 6 , G                                   c.                                                      ",
"        - 1 M I W W ~ ^ ! j 9 : u                                                                                               ",
"          Z t d w i h N z c n                                                                                                   ",
"              H f A X.X.*.                                                                                                      "
};
